Parix-Hybrid111R-1.1.ufo
<glyph name="ampersand" format="2">
	<advance width="896"/>
	<unicode hex="0026"/>
	<outline>
		<contour>
			<point x="604" y="105" type="curve" smooth="yes"/>
			<point x="595" y="119"/>
			<point x="586" y="134"/>
			<point x="577" y="149" type="curve"/>
			<point x="623" y="190"/>
			<point x="662" y="231"/>
			<point x="690" y="257" type="curve" smooth="yes"/>
			<point x="741" y="305"/>
			<point x="785" y="335"/>
			<point x="836" y="375" type="curve"/>
			<point x="833" y="402" type="line"/>
			<point x="780" y="398"/>
			<point x="728" y="398"/>
			<point x="675" y="402" type="curve"/>
			<point x="673" y="375" type="line"/>
			<point x="699" y="358"/>
			<point x="708" y="333"/>
			<point x="663" y="289" type="curve" smooth="yes"/>
			<point x="627" y="254"/>
			<point x="593" y="218"/>
			<point x="557" y="186" type="curve"/>
			<point x="521" y="258"/>
			<point x="493" y="337"/>
			<point x="476" y="400" type="curve"/>
			<point x="566" y="421"/>
			<point x="652" y="458"/>
			<point x="652" y="549" type="curve" smooth="yes"/>
			<point x="652" y="609"/>
			<point x="577" y="659"/>
			<point x="498" y="659" type="curve" smooth="yes"/>
			<point x="432" y="659"/>
			<point x="377" y="614"/>
			<point x="379" y="525" type="curve" smooth="yes"/>
			<point x="379" y="505"/>
			<point x="384" y="469"/>
			<point x="394" y="423" type="curve"/>
			<point x="376" y="420"/>
			<point x="359" y="419"/>
			<point x="345" y="419" type="curve" smooth="yes"/>
			<point x="237" y="416"/>
			<point x="60" y="383"/>
			<point x="60" y="197" type="curve" smooth="yes"/>
			<point x="60" y="72"/>
			<point x="148" y="-8"/>
			<point x="283" y="-4" type="curve" smooth="yes"/>
			<point x="365" y="-2"/>
			<point x="446" y="44"/>
			<point x="516" y="98" type="curve"/>
			<point x="524" y="84"/>
			<point x="533" y="71"/>
			<point x="542" y="58" type="curve" smooth="yes"/>
			<point x="584" y="-2"/>
			<point x="669" y="-35"/>
			<point x="787" y="0" type="curve"/>
			<point x="827" y="68" type="line"/>
			<point x="810" y="82" type="line"/>
			<point x="734" y="49"/>
			<point x="645" y="43"/>
		</contour>
		<contour>
			<point x="458" y="502" type="curve" smooth="yes"/>
			<point x="458" y="567"/>
			<point x="488" y="590"/>
			<point x="515" y="590" type="curve" smooth="yes"/>
			<point x="546" y="590"/>
			<point x="559" y="574"/>
			<point x="559" y="542" type="curve" smooth="yes"/>
			<point x="559" y="486"/>
			<point x="517" y="455"/>
			<point x="467" y="438" type="curve"/>
			<point x="461" y="465"/>
			<point x="458" y="487"/>
		</contour>
		<contour>
			<point x="330" y="71" type="curve" smooth="yes"/>
			<point x="252" y="71"/>
			<point x="175" y="120"/>
			<point x="175" y="217" type="curve" smooth="yes"/>
			<point x="175" y="332"/>
			<point x="282" y="365"/>
			<point x="402" y="386" type="curve"/>
			<point x="421" y="311"/>
			<point x="451" y="218"/>
			<point x="496" y="134" type="curve"/>
			<point x="444" y="96"/>
			<point x="391" y="71"/>
		</contour>
	</outline>
</glyph>
<glyph name="comma" format="2">
	<advance width="222"/>
	<unicode hex="002C"/>
	<outline>
		<contour>
			<point x="-50" y="-141" type="curve"/>
			<point x="-45" y="-170" type="line"/>
			<point x="88" y="-133"/>
			<point x="153" y="-49"/>
			<point x="182" y="51" type="curve"/>
			<point x="176" y="74" type="line"/>
			<point x="72" y="74" type="line"/>
			<point x="67" y="51" type="line"/>
			<point x="76" y="43"/>
			<point x="80" y="28"/>
			<point x="80" y="14" type="curve"/>
			<point x="80" y="-40"/>
			<point x="14" y="-116"/>
		</contour>
	</outline>
</glyph>
<glyph name="hyphen" format="2">
	<advance width="312"/>
	<unicode hex="002D"/>
	<outline>
		<contour>
			<point x="20" y="154" type="line"/>
			<point x="22" y="117" type="line"/>
			<point x="31" y="117" type="line"/>
			<point x="292" y="378" type="line"/>
			<point x="292" y="451" type="line"/>
			<point x="282" y="451" type="line"/>
		</contour>
	</outline>
</glyph>
<glyph name="period" format="2">
	<advance width="167"/>
	<unicode hex="002E"/>
	<outline>
		<contour>
			<point x="80" y="0" type="curve"/>
			<point x="80" y="0" type="line"/>
			<point x="103" y="17"/>
			<point x="129" y="40"/>
			<point x="147" y="57" type="curve"/>
			<point x="132" y="80"/>
			<point x="111" y="107"/>
			<point x="89" y="124" type="curve"/>
			<point x="68" y="112"/>
			<point x="37" y="87"/>
			<point x="20" y="66" type="curve"/>
			<point x="36" y="45"/>
			<point x="61" y="18"/>
		</contour>
	</outline>
</glyph>
<glyph name="colon" format="2">
	<advance width="167"/>
	<unicode hex="003A"/>
	<outline>
		<contour>
			<point x="80" y="215" type="curve"/>
			<point x="80" y="215" type="line"/>
			<point x="103" y="232"/>
			<point x="129" y="255"/>
			<point x="147" y="272" type="curve"/>
			<point x="132" y="295"/>
			<point x="111" y="322"/>
			<point x="89" y="339" type="curve"/>
			<point x="68" y="327"/>
			<point x="37" y="302"/>
			<point x="20" y="281" type="curve"/>
			<point x="36" y="260"/>
			<point x="61" y="233"/>
		</contour>
		<contour>
			<point x="80" y="-10" type="curve"/>
			<point x="80" y="-10" type="line"/>
			<point x="103" y="7"/>
			<point x="129" y="30"/>
			<point x="147" y="47" type="curve"/>
			<point x="132" y="70"/>
			<point x="111" y="97"/>
			<point x="89" y="114" type="curve"/>
			<point x="68" y="102"/>
			<point x="37" y="77"/>
			<point x="20" y="56" type="curve"/>
			<point x="36" y="35"/>
			<point x="61" y="8"/>
		</contour>
	</outline>
</glyph>
<glyph name="A" format="2">
	<advance width="789"/>
	<unicode hex="0041"/>
	<outline>
		<contour>
			<point x="698" y="112" type="curve"/>
			<point x="698" y="112" type="line"/>
			<point x="595" y="311"/>
			<point x="498" y="502"/>
			<point x="403" y="700" type="curve"/>
			<point x="344" y="711"/>
			<point x="299" y="725"/>
			<point x="252" y="750" type="curve"/>
			<point x="227" y="719" type="line"/>
			<point x="258" y="686"/>
			<point x="267" y="681"/>
			<point x="252" y="633" type="curve"/>
			<point x="84" y="107" type="line" smooth="yes"/>
			<point x="68" y="57"/>
			<point x="52" y="49"/>
			<point x="5" y="37" type="curve"/>
			<point x="5" y="-3" type="line"/>
			<point x="40" y="1"/>
			<point x="151" y="0"/>
			<point x="176" y="-3" type="curve"/>
			<point x="176" y="37" type="line"/>
			<point x="135" y="49"/>
			<point x="129" y="48"/>
			<point x="144" y="104" type="curve"/>
			<point x="163" y="176"/>
			<point x="184" y="247"/>
			<point x="205" y="322" type="curve"/>
			<point x="290" y="327"/>
			<point x="388" y="330"/>
			<point x="475" y="330" type="curve"/>
			<point x="510" y="252"/>
			<point x="543" y="179"/>
			<point x="574" y="102" type="curve"/>
			<point x="593" y="54"/>
			<point x="603" y="47"/>
			<point x="539" y="37" type="curve"/>
			<point x="539" y="-3" type="line"/>
			<point x="585" y="-1"/>
			<point x="736" y="0"/>
			<point x="784" y="-3" type="curve"/>
			<point x="784" y="37" type="line"/>
			<point x="733" y="44"/>
			<point x="730" y="50"/>
		</contour>
		<contour>
			<point x="219" y="373" type="curve"/>
			<point x="219" y="373" type="line"/>
			<point x="248" y="472"/>
			<point x="278" y="570"/>
			<point x="310" y="660" type="curve"/>
			<point x="361" y="567"/>
			<point x="408" y="474"/>
			<point x="452" y="380" type="curve"/>
			<point x="372" y="377"/>
			<point x="291" y="374"/>
		</contour>
	</outline>
</glyph>
<glyph name="B" format="2">
	<advance width="651"/>
	<unicode hex="0042"/>
	<outline>
		<contour>
			<point x="437" y="413" type="curve"/>
			<point x="492" y="436"/>
			<point x="545" y="500"/>
			<point x="545" y="571" type="curve" smooth="yes"/>
			<point x="545" y="651"/>
			<point x="499" y="711"/>
			<point x="379" y="711" type="curve" smooth="yes"/>
			<point x="311" y="711"/>
			<point x="233" y="703"/>
			<point x="155" y="703" type="curve" smooth="yes"/>
			<point x="135" y="703"/>
			<point x="85" y="701"/>
			<point x="55" y="703" type="curve"/>
			<point x="50" y="663" type="line"/>
			<point x="90" y="653"/>
			<point x="98" y="634"/>
			<point x="101" y="586" type="curve" smooth="yes"/>
			<point x="111" y="423"/>
			<point x="111" y="192"/>
			<point x="108" y="139" type="curve" smooth="yes"/>
			<point x="105" y="83"/>
			<point x="102" y="48"/>
			<point x="92" y="17" type="curve"/>
			<point x="111" y="-11" type="line"/>
			<point x="141" y="-5"/>
			<point x="179" y="4"/>
			<point x="216" y="4" type="curve" smooth="yes"/>
			<point x="251" y="4"/>
			<point x="306" y="-10"/>
			<point x="382" y="-10" type="curve" smooth="yes"/>
			<point x="511" y="-10"/>
			<point x="641" y="67"/>
			<point x="641" y="219" type="curve" smooth="yes"/>
			<point x="641" y="326"/>
			<point x="558" y="390"/>
		</contour>
		<contour>
			<point x="208" y="596" type="curve" smooth="yes"/>
			<point x="210" y="648"/>
			<point x="214" y="670"/>
			<point x="310" y="670" type="curve" smooth="yes"/>
			<point x="407" y="670"/>
			<point x="440" y="624"/>
			<point x="440" y="541" type="curve" smooth="yes"/>
			<point x="440" y="461"/>
			<point x="379" y="405"/>
			<point x="289" y="405" type="curve" smooth="yes"/>
			<point x="253" y="405"/>
			<point x="228" y="408"/>
			<point x="205" y="415" type="curve"/>
			<point x="204" y="477"/>
			<point x="205" y="544"/>
		</contour>
		<contour>
			<point x="335" y="34" type="curve" smooth="yes"/>
			<point x="277" y="34"/>
			<point x="243" y="45"/>
			<point x="213" y="60" type="curve"/>
			<point x="208" y="159"/>
			<point x="203" y="260"/>
			<point x="205" y="359" type="curve"/>
			<point x="228" y="367"/>
			<point x="268" y="376"/>
			<point x="316" y="376" type="curve" smooth="yes"/>
			<point x="435" y="376"/>
			<point x="538" y="329"/>
			<point x="538" y="209" type="curve" smooth="yes"/>
			<point x="538" y="99"/>
			<point x="457" y="34"/>
		</contour>
	</outline>
</glyph>
<glyph name="C" format="2">
	<advance width="777"/>
	<unicode hex="0043"/>
	<outline>
		<contour>
			<point x="428" y="670" type="curve"/>
			<point x="428" y="670" type="line"/>
			<point x="569" y="670"/>
			<point x="659" y="590"/>
			<point x="691" y="486" type="curve"/>
			<point x="722" y="487" type="line"/>
			<point x="732" y="534"/>
			<point x="746" y="580"/>
			<point x="762" y="627" type="curve"/>
			<point x="683" y="668"/>
			<point x="571" y="710"/>
			<point x="451" y="710" type="curve"/>
			<point x="221" y="710"/>
			<point x="35" y="567"/>
			<point x="35" y="350" type="curve"/>
			<point x="35" y="127"/>
			<point x="164" y="-10"/>
			<point x="404" y="-10" type="curve"/>
			<point x="478" y="-10"/>
			<point x="541" y="12"/>
			<point x="589" y="42" type="curve"/>
			<point x="595" y="-42" type="line"/>
			<point x="622" y="-48" type="line"/>
			<point x="707" y="141" type="line"/>
			<point x="682" y="155" type="line"/>
			<point x="615" y="82"/>
			<point x="517" y="35"/>
			<point x="407" y="35" type="curve"/>
			<point x="247" y="35"/>
			<point x="153" y="190"/>
			<point x="153" y="350" type="curve"/>
			<point x="153" y="539"/>
			<point x="258" y="670"/>
		</contour>
	</outline>
</glyph>
<glyph name="D" format="2">
	<advance width="802"/>
	<unicode hex="0044"/>
	<outline>
		<contour>
			<point x="393" y="-10" type="curve" smooth="yes"/>
			<point x="603" y="-10"/>
			<point x="767" y="140"/>
			<point x="767" y="350" type="curve" smooth="yes"/>
			<point x="767" y="540"/>
			<point x="627" y="710"/>
			<point x="387" y="710" type="curve" smooth="yes"/>
			<point x="306" y="710"/>
			<point x="221" y="697"/>
			<point x="161" y="698" type="curve" smooth="yes"/>
			<point x="65" y="699" type="line"/>
			<point x="60" y="662" type="line"/>
			<point x="100" y="657"/>
			<point x="120" y="640"/>
			<point x="121" y="600" type="curve" smooth="yes"/>
			<point x="124" y="489"/>
			<point x="126" y="249"/>
			<point x="117" y="122" type="curve" smooth="yes"/>
			<point x="114" y="79"/>
			<point x="103" y="59"/>
			<point x="65" y="28" type="curve"/>
			<point x="79" y="-6" type="line"/>
			<point x="109" y="-1"/>
			<point x="141" y="10"/>
			<point x="191" y="10" type="curve" smooth="yes"/>
			<point x="236" y="10"/>
			<point x="335" y="-10"/>
		</contour>
		<contour>
			<point x="397" y="32" type="curve" smooth="yes"/>
			<point x="286" y="32"/>
			<point x="225" y="74"/>
			<point x="221" y="171" type="curve" smooth="yes"/>
			<point x="215" y="307"/>
			<point x="214" y="459"/>
			<point x="219" y="555" type="curve" smooth="yes"/>
			<point x="223" y="634"/>
			<point x="218" y="670"/>
			<point x="323" y="670" type="curve" smooth="yes"/>
			<point x="522" y="670"/>
			<point x="660" y="510"/>
			<point x="660" y="310" type="curve" smooth="yes"/>
			<point x="660" y="150"/>
			<point x="587" y="32"/>
		</contour>
	</outline>
</glyph>
<glyph name="E" format="2">
	<advance width="855"/>
	<unicode hex="0045"/>
	<outline>
		<contour>
			<point x="35" y="-6" type="line"/>
			<point x="85" y="-3"/>
			<point x="155" y="0"/>
			<point x="215" y="0" type="curve" smooth="yes"/>
			<point x="383" y="0"/>
			<point x="594" y="-2"/>
			<point x="738" y="-4" type="curve"/>
			<point x="845" y="143" type="line"/>
			<point x="826" y="165" type="line"/>
			<point x="718" y="78"/>
			<point x="576" y="45"/>
			<point x="400" y="45" type="curve" smooth="yes"/>
			<point x="329" y="45"/>
			<point x="292" y="59"/>
			<point x="265" y="61" type="curve"/>
			<point x="265" y="298" type="line"/>
			<point x="490" y="298" type="line" smooth="yes"/>
			<point x="582" y="298"/>
			<point x="592" y="256"/>
			<point x="610" y="147" type="curve"/>
			<point x="654" y="147" type="line"/>
			<point x="639" y="241"/>
			<point x="631" y="347"/>
			<point x="672" y="440" type="curve"/>
			<point x="633" y="457" type="line"/>
			<point x="593" y="377"/>
			<point x="593" y="353"/>
			<point x="522" y="353" type="curve" smooth="yes"/>
			<point x="265" y="353" type="line"/>
			<point x="265" y="578" type="line" smooth="yes"/>
			<point x="265" y="641"/>
			<point x="281" y="660"/>
			<point x="370" y="660" type="curve" smooth="yes"/>
			<point x="532" y="660"/>
			<point x="655" y="656"/>
			<point x="666" y="513" type="curve"/>
			<point x="705" y="513" type="line"/>
			<point x="704" y="570"/>
			<point x="723" y="636"/>
			<point x="761" y="685" type="curve"/>
			<point x="755" y="705" type="line"/>
			<point x="604" y="701"/>
			<point x="365" y="700"/>
			<point x="214" y="700" type="curve" smooth="yes"/>
			<point x="174" y="700"/>
			<point x="105" y="701"/>
			<point x="65" y="703" type="curve"/>
			<point x="65" y="663" type="line"/>
			<point x="127" y="646"/>
			<point x="165" y="635"/>
			<point x="165" y="573" type="curve" smooth="yes"/>
			<point x="165" y="120" type="line" smooth="yes"/>
			<point x="165" y="73"/>
			<point x="116" y="55"/>
			<point x="35" y="34" type="curve"/>
		</contour>
	</outline>
</glyph>
<glyph name="G" format="2">
	<advance width="784"/>
	<unicode hex="0047"/>
	<outline>
		<contour>
			<point x="414" y="-10" type="curve" smooth="yes"/>
			<point x="524" y="-10"/>
			<point x="635" y="19"/>
			<point x="738" y="60" type="curve"/>
			<point x="738" y="89" type="line"/>
			<point x="717" y="96"/>
			<point x="685" y="96"/>
			<point x="685" y="141" type="curve" smooth="yes"/>
			<point x="685" y="247" type="line" smooth="yes"/>
			<point x="685" y="297"/>
			<point x="715" y="310"/>
			<point x="754" y="320" type="curve"/>
			<point x="754" y="356" type="line"/>
			<point x="663" y="347"/>
			<point x="588" y="347"/>
			<point x="495" y="356" type="curve"/>
			<point x="495" y="322" type="line"/>
			<point x="559" y="312"/>
			<point x="585" y="290"/>
			<point x="585" y="250" type="curve" smooth="yes"/>
			<point x="585" y="101" type="line"/>
			<point x="554" y="69"/>
			<point x="482" y="35"/>
			<point x="414" y="35" type="curve" smooth="yes"/>
			<point x="254" y="35"/>
			<point x="155" y="190"/>
			<point x="155" y="350" type="curve" smooth="yes"/>
			<point x="155" y="540"/>
			<point x="272" y="665"/>
			<point x="420" y="665" type="curve" smooth="yes"/>
			<point x="523" y="665"/>
			<point x="592" y="598"/>
			<point x="634" y="498" type="curve"/>
			<point x="674" y="499" type="line"/>
			<point x="682" y="561"/>
			<point x="687" y="613"/>
			<point x="701" y="675" type="curve"/>
			<point x="621" y="698"/>
			<point x="546" y="710"/>
			<point x="440" y="710" type="curve" smooth="yes"/>
			<point x="237" y="710"/>
			<point x="35" y="570"/>
			<point x="35" y="340" type="curve" smooth="yes"/>
			<point x="35" y="130"/>
			<point x="214" y="-10"/>
		</contour>
	</outline>
</glyph>
<glyph name="H" format="2">
	<advance width="962"/>
	<unicode hex="0048"/>
	<outline>
		<contour>
			<point x="845" y="107" type="curve" smooth="yes"/>
			<point x="843" y="588" type="line" smooth="yes"/>
			<point x="843" y="641"/>
			<point x="871" y="651"/>
			<point x="919" y="664" type="curve"/>
			<point x="919" y="704" type="line"/>
			<point x="822" y="700"/>
			<point x="775" y="700"/>
			<point x="688" y="704" type="curve"/>
			<point x="688" y="664" type="line"/>
			<point x="726" y="651"/>
			<point x="743" y="641"/>
			<point x="743" y="588" type="curve" smooth="yes"/>
			<point x="743" y="396" type="line"/>
			<point x="226" y="399" type="line"/>
			<point x="227" y="593" type="line" smooth="yes"/>
			<point x="227" y="634"/>
			<point x="259" y="646"/>
			<point x="274" y="664" type="curve"/>
			<point x="274" y="704" type="line"/>
			<point x="199" y="700"/>
			<point x="115" y="700"/>
			<point x="40" y="704" type="curve"/>
			<point x="40" y="664" type="line"/>
			<point x="78" y="651"/>
			<point x="125" y="641"/>
			<point x="125" y="588" type="curve" smooth="yes"/>
			<point x="125" y="112" type="line" smooth="yes"/>
			<point x="125" y="59"/>
			<point x="78" y="43"/>
			<point x="66" y="36" type="curve"/>
			<point x="66" y="-4" type="line"/>
			<point x="126" y="1"/>
			<point x="221" y="1"/>
			<point x="320" y="-4" type="curve"/>
			<point x="320" y="36" type="line"/>
			<point x="272" y="49"/>
			<point x="225" y="59"/>
			<point x="225" y="112" type="curve" smooth="yes"/>
			<point x="226" y="351" type="line"/>
			<point x="743" y="348" type="line"/>
			<point x="743" y="112" type="line" smooth="yes"/>
			<point x="743" y="59"/>
			<point x="696" y="49"/>
			<point x="668" y="36" type="curve"/>
			<point x="668" y="-4" type="line"/>
			<point x="733" y="1"/>
			<point x="817" y="1"/>
			<point x="922" y="-4" type="curve"/>
			<point x="922" y="36" type="line"/>
			<point x="877" y="54"/>
			<point x="845" y="66"/>
		</contour>
	</outline>
</glyph>
<glyph name="I" format="2">
	<advance width="463"/>
	<unicode hex="0049"/>
	<outline>
		<contour>
			<point x="418" y="708" type="curve"/>
			<point x="400" y="722" type="line"/>
			<point x="399" y="722" type="line"/>
			<point x="289" y="690"/>
			<point x="234" y="713"/>
			<point x="84" y="713" type="curve"/>
			<point x="5" y="600" type="line"/>
			<point x="31" y="586" type="line"/>
			<point x="81" y="627"/>
			<point x="217" y="622"/>
			<point x="304" y="619" type="curve"/>
			<point x="288" y="548"/>
			<point x="277" y="487"/>
			<point x="273" y="415" type="curve"/>
			<point x="183" y="349" type="line"/>
			<point x="183" y="344" type="line"/>
			<point x="222" y="336"/>
			<point x="255" y="321"/>
			<point x="277" y="294" type="curve"/>
			<point x="282" y="253"/>
			<point x="288" y="214"/>
			<point x="288" y="169" type="curve" smooth="yes"/>
			<point x="288" y="46"/>
			<point x="159" y="-60"/>
			<point x="115" y="-83" type="curve"/>
			<point x="127" y="-115" type="line"/>
			<point x="184" y="-100"/>
			<point x="391" y="48"/>
			<point x="391" y="150" type="curve" smooth="yes"/>
			<point x="391" y="234"/>
			<point x="374" y="308"/>
			<point x="374" y="445" type="curve" smooth="yes"/>
			<point x="374" y="535"/>
			<point x="371" y="599"/>
		</contour>
	</outline>
</glyph>
<glyph name="J" format="2">
	<advance width="496"/>
	<unicode hex="004A"/>
	<outline>
		<contour>
			<point x="451" y="704" type="curve"/>
			<point x="451" y="704" type="line"/>
			<point x="434" y="717" type="line"/>
			<point x="433" y="717" type="line"/>
			<point x="341" y="665"/>
			<point x="193" y="719"/>
			<point x="55" y="719" type="curve"/>
			<point x="5" y="615" type="line"/>
			<point x="29" y="602" type="line"/>
			<point x="75" y="651"/>
			<point x="274" y="606"/>
			<point x="352" y="601" type="curve"/>
			<point x="339" y="546"/>
			<point x="319" y="483"/>
			<point x="309" y="423" type="curve"/>
			<point x="196" y="368" type="line"/>
			<point x="196" y="362" type="line"/>
			<point x="238" y="354"/>
			<point x="273" y="339"/>
			<point x="299" y="313" type="curve"/>
			<point x="206" y="258" type="line"/>
			<point x="206" y="255" type="line"/>
			<point x="265" y="235"/>
			<point x="322" y="221"/>
			<point x="340" y="154" type="curve"/>
			<point x="339" y="158" type="line" smooth="yes"/>
			<point x="344" y="139"/>
			<point x="348" y="120"/>
			<point x="348" y="97" type="curve"/>
			<point x="348" y="13"/>
			<point x="307" y="-40"/>
			<point x="226" y="-40" type="curve"/>
			<point x="133" y="-40"/>
			<point x="69" y="36"/>
			<point x="49" y="72" type="curve"/>
			<point x="17" y="49" type="line"/>
			<point x="49" y="-11"/>
			<point x="117" y="-88"/>
			<point x="225" y="-88" type="curve"/>
			<point x="339" y="-88"/>
			<point x="435" y="4"/>
			<point x="435" y="89" type="curve"/>
			<point x="435" y="161"/>
			<point x="409" y="234"/>
			<point x="409" y="360" type="curve"/>
			<point x="409" y="444"/>
			<point x="408" y="604"/>
		</contour>
	</outline>
</glyph>
<glyph name="K" format="2">
	<advance width="649"/>
	<unicode hex="004B"/>
	<outline>
		<contour>
			<point x="644" y="662" type="curve"/>
			<point x="644" y="700" type="line"/>
			<point x="598" y="694"/>
			<point x="499" y="696"/>
			<point x="409" y="700" type="curve"/>
			<point x="409" y="662" type="line"/>
			<point x="453" y="657"/>
			<point x="474" y="647"/>
			<point x="443" y="599" type="curve" smooth="yes"/>
			<point x="300" y="375" type="line"/>
			<point x="187" y="375" type="line"/>
			<point x="187" y="560" type="line" smooth="yes"/>
			<point x="187" y="642"/>
			<point x="192" y="653"/>
			<point x="257" y="663" type="curve"/>
			<point x="257" y="703" type="line"/>
			<point x="200" y="701"/>
			<point x="112" y="700"/>
			<point x="52" y="703" type="curve"/>
			<point x="52" y="663" type="line"/>
			<point x="83" y="642"/>
			<point x="87" y="615"/>
			<point x="87" y="570" type="curve" smooth="yes"/>
			<point x="87" y="100" type="line" smooth="yes"/>
			<point x="87" y="60"/>
			<point x="80" y="46"/>
			<point x="40" y="32" type="curve"/>
			<point x="40" y="-3" type="line"/>
			<point x="73" y="-1"/>
			<point x="175" y="-2"/>
			<point x="237" y="-2" type="curve"/>
			<point x="237" y="32" type="line"/>
			<point x="200" y="46"/>
			<point x="187" y="60"/>
			<point x="187" y="100" type="curve" smooth="yes"/>
			<point x="187" y="335" type="line"/>
			<point x="266" y="335" type="line"/>
			<point x="428" y="98" type="line" smooth="yes"/>
			<point x="460" y="51"/>
			<point x="438" y="40"/>
			<point x="394" y="35" type="curve"/>
			<point x="394" y="-3" type="line"/>
			<point x="484" y="1"/>
			<point x="590" y="3"/>
			<point x="636" y="-3" type="curve"/>
			<point x="636" y="35" type="line"/>
			<point x="611" y="47"/>
			<point x="602" y="47"/>
			<point x="560" y="105" type="curve" smooth="yes"/>
			<point x="355" y="386" type="line"/>
			<point x="525" y="592" type="line" smooth="yes"/>
			<point x="569" y="645"/>
			<point x="619" y="650"/>
		</contour>
	</outline>
</glyph>
<glyph name="L" format="2">
	<advance width="723"/>
	<unicode hex="004C"/>
	<outline>
		<contour>
			<point x="50" y="-3" type="line"/>
			<point x="71" y="-1"/>
			<point x="113" y="0"/>
			<point x="155" y="0" type="curve" smooth="yes"/>
			<point x="648" y="0" type="line"/>
			<point x="690" y="43"/>
			<point x="718" y="106"/>
			<point x="718" y="200" type="curve"/>
			<point x="688" y="200" type="line"/>
			<point x="673" y="91"/>
			<point x="639" y="57"/>
			<point x="576" y="57" type="curve" smooth="yes"/>
			<point x="175" y="56" type="line"/>
			<point x="175" y="560" type="line" smooth="yes"/>
			<point x="175" y="642"/>
			<point x="180" y="653"/>
			<point x="245" y="663" type="curve"/>
			<point x="245" y="703" type="line"/>
			<point x="188" y="701"/>
			<point x="100" y="700"/>
			<point x="40" y="703" type="curve"/>
			<point x="40" y="663" type="line"/>
			<point x="71" y="642"/>
			<point x="75" y="615"/>
			<point x="75" y="570" type="curve" smooth="yes"/>
			<point x="75" y="120" type="line" smooth="yes"/>
			<point x="75" y="80"/>
			<point x="68" y="60"/>
			<point x="50" y="37" type="curve"/>
		</contour>
	</outline>
</glyph>
<glyph name="N" format="2">
	<advance width="772"/>
	<unicode hex="004E"/>
	<outline>
		<contour>
			<point x="497" y="76" type="curve"/>
			<point x="497" y="76" type="line"/>
			<point x="558" y="144"/>
			<point x="727" y="342"/>
			<point x="727" y="463" type="curve"/>
			<point x="727" y="603"/>
			<point x="627" y="709"/>
			<point x="431" y="709" type="curve"/>
			<point x="348" y="709"/>
			<point x="250" y="667"/>
			<point x="180" y="610" type="curve"/>
			<point x="128" y="574"/>
			<point x="77" y="526"/>
			<point x="45" y="486" type="curve"/>
			<point x="45" y="484" type="line"/>
			<point x="62" y="468"/>
			<point x="79" y="450"/>
			<point x="90" y="424" type="curve"/>
			<point x="61" y="378" type="line"/>
			<point x="61" y="375" type="line"/>
			<point x="79" y="366"/>
			<point x="97" y="352"/>
			<point x="113" y="324" type="curve"/>
			<point x="116" y="316" type="line"/>
			<point x="92" y="274" type="line"/>
			<point x="116" y="258"/>
			<point x="128" y="250"/>
			<point x="158" y="223" type="curve"/>
			<point x="158" y="221"/>
			<point x="159" y="220"/>
			<point x="160" y="218" type="curve"/>
			<point x="132" y="188" type="line"/>
			<point x="133" y="186" type="line"/>
			<point x="161" y="181"/>
			<point x="183" y="168"/>
			<point x="196" y="151" type="curve"/>
			<point x="222" y="104"/>
			<point x="243" y="65"/>
			<point x="243" y="34" type="curve"/>
			<point x="243" y="-20"/>
			<point x="179" y="-15"/>
			<point x="123" y="6" type="curve"/>
			<point x="112" y="-25" type="line"/>
			<point x="136" y="-42"/>
			<point x="169" y="-52"/>
			<point x="196" y="-52" type="curve"/>
			<point x="273" y="-52"/>
			<point x="299" y="-6"/>
			<point x="299" y="67" type="curve"/>
			<point x="299" y="164"/>
			<point x="182" y="307"/>
			<point x="182" y="447" type="curve"/>
			<point x="182" y="564"/>
			<point x="285" y="649"/>
			<point x="382" y="653" type="curve"/>
			<point x="378" y="569"/>
			<point x="376" y="485"/>
			<point x="375" y="401" type="curve"/>
			<point x="315" y="344" type="line"/>
			<point x="375" y="291" type="line"/>
			<point x="375" y="190"/>
			<point x="377" y="88"/>
			<point x="382" y="-13" type="curve"/>
			<point x="446" y="-5"/>
			<point x="545" y="6"/>
			<point x="625" y="1" type="curve"/>
			<point x="634" y="-9"/>
			<point x="638" y="-23"/>
			<point x="642" y="-33" type="curve"/>
			<point x="667" y="-32" type="line"/>
			<point x="669" y="0"/>
			<point x="681" y="49"/>
			<point x="687" y="81" type="curve"/>
			<point x="683" y="86" type="line"/>
			<point x="639" y="88"/>
			<point x="593" y="87"/>
		</contour>
		<contour>
			<point x="617" y="428" type="curve"/>
			<point x="617" y="428" type="line"/>
			<point x="617" y="295"/>
			<point x="507" y="118"/>
			<point x="409" y="20" type="curve"/>
			<point x="405" y="103"/>
			<point x="403" y="187"/>
			<point x="403" y="271" type="curve"/>
			<point x="477" y="346" type="line"/>
			<point x="403" y="413" type="line"/>
			<point x="404" y="493"/>
			<point x="406" y="573"/>
			<point x="410" y="652" type="curve"/>
			<point x="556" y="643"/>
			<point x="617" y="543"/>
		</contour>
	</outline>
</glyph>
<glyph name="O" format="2">
	<advance width="810"/>
	<unicode hex="004F"/>
	<outline>
		<contour>
			<point x="402" y="-10" type="curve" smooth="yes"/>
			<point x="606" y="-10"/>
			<point x="775" y="146"/>
			<point x="775" y="348" type="curve" smooth="yes"/>
			<point x="775" y="558"/>
			<point x="611" y="710"/>
			<point x="408" y="710" type="curve" smooth="yes"/>
			<point x="204" y="710"/>
			<point x="35" y="554"/>
			<point x="35" y="352" type="curve" smooth="yes"/>
			<point x="35" y="142"/>
			<point x="199" y="-10"/>
		</contour>
		<contour>
			<point x="408" y="30" type="curve" smooth="yes"/>
			<point x="245" y="30"/>
			<point x="149" y="200"/>
			<point x="149" y="374" type="curve" smooth="yes"/>
			<point x="149" y="525"/>
			<point x="228" y="670"/>
			<point x="399" y="670" type="curve" smooth="yes"/>
			<point x="561" y="670"/>
			<point x="662" y="503"/>
			<point x="662" y="329" type="curve" smooth="yes"/>
			<point x="662" y="178"/>
			<point x="580" y="30"/>
		</contour>
	</outline>
</glyph>
<glyph name="P" format="2">
	<advance width="709"/>
	<unicode hex="0050"/>
	<outline>
		<contour>
			<point x="80" y="-4" type="line"/>
			<point x="117" y="0"/>
			<point x="213" y="0"/>
			<point x="310" y="-4" type="curve"/>
			<point x="310" y="30" type="line"/>
			<point x="233" y="50"/>
			<point x="215" y="53"/>
			<point x="215" y="106" type="curve" smooth="yes"/>
			<point x="217" y="533" type="line" smooth="yes"/>
			<point x="217" y="612"/>
			<point x="232" y="660"/>
			<point x="347" y="660" type="curve" smooth="yes"/>
			<point x="513" y="660"/>
			<point x="590" y="544"/>
			<point x="590" y="437" type="curve" smooth="yes"/>
			<point x="590" y="291"/>
			<point x="485" y="245"/>
			<point x="338" y="270" type="curve"/>
			<point x="343" y="247" type="line"/>
			<point x="384" y="236"/>
			<point x="410" y="235"/>
			<point x="434" y="235" type="curve" smooth="yes"/>
			<point x="554" y="235"/>
			<point x="694" y="309"/>
			<point x="694" y="470" type="curve" smooth="yes"/>
			<point x="694" y="633"/>
			<point x="578" y="700"/>
			<point x="379" y="700" type="curve" smooth="yes"/>
			<point x="40" y="700" type="line"/>
			<point x="40" y="660" type="line"/>
			<point x="98" y="653"/>
			<point x="115" y="647"/>
			<point x="115" y="594" type="curve" smooth="yes"/>
			<point x="115" y="106" type="line" smooth="yes"/>
			<point x="115" y="53"/>
			<point x="110" y="47"/>
			<point x="80" y="30" type="curve"/>
		</contour>
	</outline>
</glyph>
<glyph name="Q" format="2">
	<advance width="863"/>
	<unicode hex="0051"/>
	<outline>
		<contour>
			<point x="825" y="554"/>
			<point x="654" y="710"/>
			<point x="435" y="710" type="curve" smooth="yes"/>
			<point x="219" y="710"/>
			<point x="40" y="554"/>
			<point x="40" y="352" type="curve" smooth="yes"/>
			<point x="40" y="157"/>
			<point x="191" y="11"/>
			<point x="385" y="-8" type="curve"/>
			<point x="656" y="-234"/>
			<point x="931" y="-297"/>
			<point x="1228" y="-222" type="curve"/>
			<point x="1218" y="-190" type="line"/>
			<point x="936" y="-255"/>
			<point x="691" y="-149"/>
			<point x="553" y="8" type="curve"/>
			<point x="710" y="54"/>
			<point x="825" y="186"/>
			<point x="825" y="348" type="curve" smooth="yes"/>
		</contour>
		<contour>
			<point x="435" y="30" type="curve" smooth="yes"/>
			<point x="426" y="30"/>
			<point x="418" y="30"/>
			<point x="409" y="31" type="curve" smooth="yes"/>
			<point x="395" y="33" type="line" smooth="yes"/>
			<point x="247" y="57"/>
			<point x="164" y="214"/>
			<point x="164" y="374" type="curve" smooth="yes"/>
			<point x="164" y="525"/>
			<point x="244" y="670"/>
			<point x="426" y="670" type="curve" smooth="yes"/>
			<point x="598" y="670"/>
			<point x="708" y="504"/>
			<point x="708" y="340" type="curve" smooth="yes"/>
			<point x="708" y="169"/>
			<point x="618" y="30"/>
		</contour>
	</outline>
</glyph>
<glyph name="R" format="2">
	<advance width="898"/>
	<unicode hex="0052"/>
	<outline>
		<contour>
			<point x="885" y="33" type="line"/>
			<point x="755" y="19"/>
			<point x="730" y="77"/>
			<point x="652" y="162" type="curve" smooth="yes"/>
			<point x="578" y="242"/>
			<point x="478" y="319"/>
			<point x="399" y="335" type="curve"/>
			<point x="471" y="364"/>
			<point x="548" y="424"/>
			<point x="550" y="509" type="curve" smooth="yes"/>
			<point x="553" y="637"/>
			<point x="470" y="700"/>
			<point x="262" y="700" type="curve" smooth="yes"/>
			<point x="196" y="700"/>
			<point x="106" y="698"/>
			<point x="42" y="702" type="curve"/>
			<point x="40" y="662" type="line"/>
			<point x="76" y="656"/>
			<point x="109" y="644"/>
			<point x="109" y="598" type="curve" smooth="yes"/>
			<point x="109" y="577"/>
			<point x="110" y="130"/>
			<point x="107" y="82" type="curve" smooth="yes"/>
			<point x="106" y="63"/>
			<point x="89" y="38"/>
			<point x="47" y="38" type="curve"/>
			<point x="50" y="-2" type="line"/>
			<point x="127" y="3"/>
			<point x="214" y="3"/>
			<point x="291" y="-2" type="curve"/>
			<point x="290" y="38" type="line"/>
			<point x="259" y="40"/>
			<point x="212" y="54"/>
			<point x="212" y="104" type="curve" smooth="yes"/>
			<point x="212" y="312" type="line"/>
			<point x="306" y="311" type="line" smooth="yes"/>
			<point x="415" y="310"/>
			<point x="482" y="205"/>
			<point x="540" y="138" type="curve" smooth="yes"/>
			<point x="597" y="72"/>
			<point x="661" y="-11"/>
			<point x="780" y="-11" type="curve" smooth="yes"/>
			<point x="823" y="-11"/>
			<point x="861" y="-4"/>
			<point x="893" y="12" type="curve"/>
		</contour>
		<contour>
			<point x="257" y="342" type="curve" smooth="yes"/>
			<point x="210" y="342" type="line"/>
			<point x="210" y="657" type="line"/>
			<point x="376" y="665"/>
			<point x="446" y="572"/>
			<point x="444" y="486" type="curve" smooth="yes"/>
			<point x="442" y="383"/>
			<point x="378" y="342"/>
		</contour>
	</outline>
</glyph>
<glyph name="S" format="2">
	<advance width="639"/>
	<unicode hex="0053"/>
	<outline>
		<contour>
			<point x="328" y="-10" type="curve"/>
			<point x="328" y="-10" type="line"/>
			<point x="488" y="-10"/>
			<point x="610" y="64"/>
			<point x="609" y="214" type="curve"/>
			<point x="608" y="357"/>
			<point x="491" y="394"/>
			<point x="309" y="425" type="curve"/>
			<point x="193" y="445"/>
			<point x="126" y="463"/>
			<point x="126" y="544" type="curve"/>
			<point x="126" y="624"/>
			<point x="190" y="670"/>
			<point x="292" y="670" type="curve"/>
			<point x="431" y="670"/>
			<point x="488" y="597"/>
			<point x="495" y="517" type="curve"/>
			<point x="530" y="511" type="line"/>
			<point x="592" y="658" type="line"/>
			<point x="588" y="668" type="line"/>
			<point x="508" y="681"/>
			<point x="415" y="710"/>
			<point x="322" y="710" type="curve"/>
			<point x="162" y="710"/>
			<point x="33" y="644"/>
			<point x="33" y="494" type="curve"/>
			<point x="33" y="362"/>
			<point x="132" y="333"/>
			<point x="294" y="315" type="curve"/>
			<point x="448" y="298"/>
			<point x="532" y="267"/>
			<point x="529" y="166" type="curve"/>
			<point x="527" y="87"/>
			<point x="461" y="24"/>
			<point x="321" y="24" type="curve"/>
			<point x="200" y="24"/>
			<point x="99" y="72"/>
			<point x="70" y="201" type="curve"/>
			<point x="30" y="201" type="line"/>
			<point x="30" y="30" type="line"/>
			<point x="107" y="19"/>
			<point x="208" y="-10"/>
		</contour>
	</outline>
</glyph>
<glyph name="U" format="2">
	<advance width="772"/>
	<unicode hex="0055"/>
	<outline>
		<contour>
			<point x="394" y="-10" type="curve"/>
			<point x="394" y="-10" type="line"/>
			<point x="551" y="-10"/>
			<point x="683" y="73"/>
			<point x="688" y="212" type="curve"/>
			<point x="691" y="293"/>
			<point x="688" y="471"/>
			<point x="688" y="544" type="curve"/>
			<point x="688" y="624"/>
			<point x="697" y="646"/>
			<point x="732" y="667" type="curve"/>
			<point x="732" y="702" type="line"/>
			<point x="701" y="701"/>
			<point x="647" y="700"/>
			<point x="590" y="702" type="curve"/>
			<point x="591" y="667" type="line"/>
			<point x="634" y="646"/>
			<point x="633" y="624"/>
			<point x="633" y="548" type="curve"/>
			<point x="633" y="233" type="line" smooth="yes"/>
			<point x="633" y="96"/>
			<point x="540" y="34"/>
			<point x="409" y="34" type="curve"/>
			<point x="273" y="34"/>
			<point x="199" y="103"/>
			<point x="199" y="232" type="curve"/>
			<point x="199" y="561" type="line" smooth="yes"/>
			<point x="199" y="614"/>
			<point x="204" y="644"/>
			<point x="239" y="664" type="curve"/>
			<point x="239" y="704" type="line"/>
			<point x="212" y="702"/>
			<point x="110" y="701"/>
			<point x="40" y="704" type="curve"/>
			<point x="40" y="664" type="line"/>
			<point x="81" y="643"/>
			<point x="85" y="616"/>
			<point x="85" y="571" type="curve"/>
			<point x="85" y="432"/>
			<point x="89" y="314"/>
			<point x="85" y="175" type="curve"/>
			<point x="82" y="133"/>
			<point x="164" y="-10"/>
		</contour>
	</outline>
</glyph>
<glyph name="V" format="2">
	<advance width="707"/>
	<unicode hex="0056"/>
	<outline>
		<contour>
			<point x="480" y="703" type="curve"/>
			<point x="480" y="663" type="line"/>
			<point x="566" y="627"/>
			<point x="587" y="617"/>
			<point x="549" y="528" type="curve" smooth="yes"/>
			<point x="376" y="126" type="line"/>
			<point x="211" y="540" type="line" smooth="yes"/>
			<point x="183" y="610"/>
			<point x="164" y="635"/>
			<point x="271" y="663" type="curve"/>
			<point x="271" y="703" type="line"/>
			<point x="199" y="701"/>
			<point x="91" y="699"/>
			<point x="10" y="703" type="curve"/>
			<point x="10" y="663" type="line"/>
			<point x="71" y="652"/>
			<point x="217" y="217"/>
			<point x="322" y="-10" type="curve"/>
			<point x="372" y="-10" type="line"/>
			<point x="617" y="543" type="line" smooth="yes"/>
			<point x="642" y="599"/>
			<point x="663" y="639"/>
			<point x="697" y="663" type="curve"/>
			<point x="697" y="703" type="line"/>
			<point x="625" y="700"/>
			<point x="577" y="700"/>
		</contour>
	</outline>
</glyph>
<glyph name="W" format="2">
	<advance width="1196"/>
	<unicode hex="0057"/>
	<outline>
		<contour>
			<point x="959" y="703" type="curve"/>
			<point x="959" y="703" type="line"/>
			<point x="959" y="663" type="line"/>
			<point x="1045" y="627"/>
			<point x="1065" y="618"/>
			<point x="1028" y="528" type="curve"/>
			<point x="865" y="128" type="line"/>
			<point x="700" y="540" type="line" smooth="yes"/>
			<point x="672" y="610"/>
			<point x="653" y="635"/>
			<point x="760" y="663" type="curve"/>
			<point x="760" y="703" type="line"/>
			<point x="667" y="700"/>
			<point x="573" y="700"/>
			<point x="480" y="703" type="curve"/>
			<point x="480" y="663" type="line"/>
			<point x="496" y="656"/>
			<point x="534" y="632"/>
			<point x="558" y="589" type="curve"/>
			<point x="559" y="586"/>
			<point x="561" y="583"/>
			<point x="562" y="580" type="curve"/>
			<point x="374" y="131" type="line"/>
			<point x="211" y="540" type="line" smooth="yes"/>
			<point x="183" y="610"/>
			<point x="164" y="635"/>
			<point x="271" y="663" type="curve"/>
			<point x="271" y="703" type="line"/>
			<point x="199" y="701"/>
			<point x="91" y="699"/>
			<point x="10" y="703" type="curve"/>
			<point x="10" y="663" type="line"/>
			<point x="71" y="652"/>
			<point x="217" y="217"/>
			<point x="322" y="-10" type="curve"/>
			<point x="372" y="-10" type="line"/>
			<point x="598" y="500" type="line"/>
			<point x="692" y="284"/>
			<point x="733" y="158"/>
			<point x="811" y="-10" type="curve"/>
			<point x="861" y="-10" type="line"/>
			<point x="1106" y="543" type="line" smooth="yes"/>
			<point x="1131" y="599"/>
			<point x="1152" y="639"/>
			<point x="1186" y="663" type="curve"/>
			<point x="1186" y="703" type="line"/>
			<point x="1114" y="700"/>
			<point x="1056" y="700"/>
		</contour>
	</outline>
</glyph>
<glyph name="X" format="2">
	<advance width="744"/>
	<unicode hex="0058"/>
	<anchor x="382" y="722" name="top"/>
	<anchor x="382" y="25" name="bottom"/>
	<outline>
		<contour>
			<point x="427" y="369" type="line"/>
			<point x="647" y="596" type="line"/>
			<point x="672" y="621"/>
			<point x="697" y="644"/>
			<point x="734" y="660" type="curve"/>
			<point x="734" y="700" type="line"/>
			<point x="504" y="700" type="line"/>
			<point x="504" y="660" type="line"/>
			<point x="529" y="654" type="line" smooth="yes"/>
			<point x="565" y="645"/>
			<point x="596" y="627"/>
			<point x="554" y="583" type="curve"/>
			<point x="392" y="411" type="line"/>
			<point x="223" y="611" type="line" smooth="yes"/>
			<point x="208" y="629"/>
			<point x="218" y="646"/>
			<point x="233" y="650" type="curve"/>
			<point x="268" y="660" type="line"/>
			<point x="268" y="700" type="line"/>
			<point x="10" y="700" type="line"/>
			<point x="10" y="660" type="line"/>
			<point x="29" y="654"/>
			<point x="51" y="644"/>
			<point x="83" y="605" type="curve"/>
			<point x="313" y="328" type="line"/>
			<point x="74" y="83" type="line" smooth="yes"/>
			<point x="61" y="70"/>
			<point x="49" y="53"/>
			<point x="10" y="40" type="curve"/>
			<point x="10" y="0" type="line"/>
			<point x="213" y="0" type="line"/>
			<point x="213" y="40" type="line"/>
			<point x="174" y="51"/>
			<point x="157" y="59"/>
			<point x="172" y="77" type="curve"/>
			<point x="349" y="283" type="line"/>
			<point x="501" y="105" type="line" smooth="yes"/>
			<point x="524" y="78"/>
			<point x="526" y="60"/>
			<point x="473" y="40" type="curve"/>
			<point x="473" y="0" type="line"/>
			<point x="723" y="0" type="line"/>
			<point x="723" y="40" type="line"/>
			<point x="701" y="52"/>
			<point x="675" y="76"/>
			<point x="658" y="96" type="curve"/>
		</contour>
	</outline>
</glyph>
<glyph name="Y" format="2">
	<advance width="724"/>
	<unicode hex="0059"/>
	<outline>
		<contour>
			<point x="714" y="700" type="line"/>
			<point x="490" y="700" type="line"/>
			<point x="490" y="660" type="line"/>
			<point x="539" y="653" type="line" smooth="yes"/>
			<point x="566" y="649"/>
			<point x="583" y="631"/>
			<point x="566" y="608" type="curve"/>
			<point x="384" y="355" type="line"/>
			<point x="194" y="605" type="line" smooth="yes"/>
			<point x="179" y="624"/>
			<point x="191" y="645"/>
			<point x="210" y="649" type="curve"/>
			<point x="265" y="660" type="line"/>
			<point x="265" y="700" type="line"/>
			<point x="10" y="700" type="line"/>
			<point x="10" y="660" type="line"/>
			<point x="41" y="636"/>
			<point x="56" y="627"/>
			<point x="83" y="590" type="curve"/>
			<point x="301" y="291" type="line"/>
			<point x="299" y="139" type="line" smooth="yes"/>
			<point x="298" y="45"/>
			<point x="244" y="46"/>
			<point x="195" y="35" type="curve"/>
			<point x="195" y="0" type="line"/>
			<point x="511" y="0" type="line"/>
			<point x="511" y="35" type="line"/>
			<point x="471" y="46"/>
			<point x="409" y="41"/>
			<point x="410" y="139" type="curve"/>
			<point x="411" y="300" type="line"/>
			<point x="656" y="615" type="line" smooth="yes"/>
			<point x="676" y="640"/>
			<point x="693" y="647"/>
			<point x="714" y="660" type="curve"/>
		</contour>
	</outline>
</glyph>
<glyph name="Z" format="2">
	<advance width="756"/>
	<unicode hex="005A"/>
	<anchor x="350" y="722" name="top"/>
	<anchor x="350" y="25" name="bottom"/>
	<outline>
		<contour>
			<point x="710" y="173" type="line"/>
			<point x="670" y="125"/>
			<point x="593" y="60"/>
			<point x="481" y="58" type="curve" smooth="yes"/>
			<point x="181" y="53" type="line"/>
			<point x="637" y="586" type="line" smooth="yes"/>
			<point x="659" y="612"/>
			<point x="684" y="638"/>
			<point x="717" y="662" type="curve"/>
			<point x="705" y="706" type="line"/>
			<point x="663" y="701"/>
			<point x="623" y="700"/>
			<point x="578" y="700" type="curve" smooth="yes"/>
			<point x="100" y="700" type="line"/>
			<point x="13" y="560" type="line"/>
			<point x="48" y="546" type="line"/>
			<point x="100" y="592"/>
			<point x="165" y="639"/>
			<point x="228" y="640" type="curve" smooth="yes"/>
			<point x="556" y="647" type="line"/>
			<point x="10" y="15" type="line"/>
			<point x="43" y="-10" type="line"/>
			<point x="57" y="-4"/>
			<point x="70" y="0"/>
			<point x="86" y="0" type="curve" smooth="yes"/>
			<point x="272" y="0"/>
			<point x="469" y="0"/>
			<point x="655" y="-10" type="curve"/>
			<point x="746" y="164" type="line"/>
		</contour>
	</outline>
</glyph>
<glyph name="a" format="2">
	<advance width="379"/>
	<unicode hex="0061"/>
	<anchor x="343" y="10" name="ogonek"/>
	<anchor x="189" y="0" name="bottom"/>
	<anchor x="189" y="400" name="top"/>
	<outline>
		<contour>
			<point x="101" y="-10" type="curve" smooth="yes"/>
			<point x="155" y="-10"/>
			<point x="209" y="23"/>
			<point x="244" y="70" type="curve"/>
			<point x="252" y="-10" type="line"/>
			<point x="296" y="-5"/>
			<point x="329" y="-1"/>
			<point x="364" y="0" type="curve"/>
			<point x="364" y="30" type="line"/>
			<point x="343" y="43"/>
			<point x="338" y="54"/>
			<point x="339" y="96" type="curve" smooth="yes"/>
			<point x="342" y="302" type="line" smooth="yes"/>
			<point x="343" y="367"/>
			<point x="294" y="410"/>
			<point x="210" y="410" type="curve" smooth="yes"/>
			<point x="154" y="410"/>
			<point x="81" y="366"/>
			<point x="28" y="315" type="curve"/>
			<point x="43" y="292" type="line"/>
			<point x="79" y="321"/>
			<point x="117" y="337"/>
			<point x="160" y="337" type="curve" smooth="yes"/>
			<point x="220" y="337"/>
			<point x="245" y="313"/>
			<point x="245" y="253" type="curve"/>
			<point x="193" y="235"/>
			<point x="138" y="221"/>
			<point x="77" y="193" type="curve" smooth="yes"/>
			<point x="36" y="174"/>
			<point x="5" y="144"/>
			<point x="5" y="92" type="curve" smooth="yes"/>
			<point x="5" y="27"/>
			<point x="56" y="-10"/>
		</contour>
		<contour>
			<point x="162" y="66" type="curve" smooth="yes"/>
			<point x="114" y="66"/>
			<point x="100" y="94"/>
			<point x="100" y="122" type="curve" smooth="yes"/>
			<point x="100" y="173"/>
			<point x="181" y="207"/>
			<point x="259" y="226" type="curve"/>
			<point x="259" y="99"/>
			<point x="210" y="66"/>
		</contour>
	</outline>
</glyph>
<glyph name="b" format="2">
	<advance width="504"/>
	<unicode hex="0062"/>
	<outline>
		<contour>
			<point x="240" y="-10" type="curve" smooth="yes"/>
			<point x="268" y="-10"/>
			<point x="474" y="70"/>
			<point x="474" y="220" type="curve" smooth="yes"/>
			<point x="474" y="331"/>
			<point x="409" y="410"/>
			<point x="290" y="410" type="curve" smooth="yes"/>
			<point x="271" y="410"/>
			<point x="185" y="391"/>
			<point x="144" y="381" type="curve"/>
			<point x="146" y="545" type="line" smooth="yes"/>
			<point x="147" y="589"/>
			<point x="152" y="661"/>
			<point x="156" y="700" type="curve"/>
			<point x="147" y="705" type="line"/>
			<point x="99" y="696"/>
			<point x="55" y="692"/>
			<point x="15" y="684" type="curve"/>
			<point x="15" y="654" type="line"/>
			<point x="42" y="651"/>
			<point x="50" y="621"/>
			<point x="51" y="591" type="curve" smooth="yes"/>
			<point x="59" y="425"/>
			<point x="49" y="247"/>
			<point x="49" y="81" type="curve" smooth="yes"/>
			<point x="49" y="61"/>
			<point x="111" y="-10"/>
		</contour>
		<contour>
			<point x="279" y="53" type="curve" smooth="yes"/>
			<point x="175" y="53"/>
			<point x="145" y="96"/>
			<point x="145" y="215" type="curve" smooth="yes"/>
			<point x="145" y="314"/>
			<point x="197" y="364"/>
			<point x="259" y="364" type="curve" smooth="yes"/>
			<point x="320" y="364"/>
			<point x="376" y="308"/>
			<point x="376" y="222" type="curve" smooth="yes"/>
			<point x="376" y="122"/>
			<point x="309" y="53"/>
		</contour>
	</outline>
</glyph>
<glyph name="c" format="2">
	<advance width="415"/>
	<unicode hex="0063"/>
	<outline>
		<contour>
			<point x="223" y="-9" type="curve" smooth="yes"/>
			<point x="294" y="-9"/>
			<point x="345" y="14"/>
			<point x="384" y="33" type="curve"/>
			<point x="373" y="61" type="line"/>
			<point x="350" y="54"/>
			<point x="313" y="45"/>
			<point x="281" y="45" type="curve" smooth="yes"/>
			<point x="201" y="45"/>
			<point x="132" y="106"/>
			<point x="132" y="209" type="curve" smooth="yes"/>
			<point x="132" y="305"/>
			<point x="184" y="358"/>
			<point x="207" y="358" type="curve" smooth="yes"/>
			<point x="267" y="358"/>
			<point x="308" y="293"/>
			<point x="315" y="293" type="curve"/>
			<point x="347" y="314"/>
			<point x="372" y="337"/>
			<point x="405" y="358" type="curve"/>
			<point x="398" y="387" type="line"/>
			<point x="336" y="384"/>
			<point x="312" y="410"/>
			<point x="234" y="410" type="curve" smooth="yes"/>
			<point x="104" y="410"/>
			<point x="30" y="329"/>
			<point x="30" y="199" type="curve" smooth="yes"/>
			<point x="30" y="69"/>
			<point x="103" y="-9"/>
		</contour>
	</outline>
</glyph>
<glyph name="d" format="2">
	<advance width="518"/>
	<unicode hex="0064"/>
	<outline>
		<contour>
			<point x="236" y="-10" type="curve"/>
			<point x="236" y="-10" type="line"/>
			<point x="246" y="-10"/>
			<point x="310" y="58"/>
			<point x="350" y="81" type="curve"/>
			<point x="360" y="-9" type="line"/>
			<point x="404" y="3"/>
			<point x="449" y="12"/>
			<point x="493" y="20" type="curve"/>
			<point x="493" y="50" type="line"/>
			<point x="457" y="64"/>
			<point x="439" y="71"/>
			<point x="440" y="114" type="curve"/>
			<point x="446" y="522" type="line" smooth="yes"/>
			<point x="447" y="622"/>
			<point x="456" y="662"/>
			<point x="466" y="707" type="curve"/>
			<point x="461" y="711" type="line"/>
			<point x="383" y="699"/>
			<point x="319" y="691"/>
			<point x="232" y="683" type="curve"/>
			<point x="233" y="653" type="line"/>
			<point x="256" y="652" type="line" smooth="yes"/>
			<point x="360" y="650"/>
			<point x="350" y="628"/>
			<point x="351" y="563" type="curve"/>
			<point x="355" y="356" type="line"/>
			<point x="335" y="366"/>
			<point x="292" y="381"/>
			<point x="232" y="381" type="curve"/>
			<point x="154" y="381"/>
			<point x="25" y="318"/>
			<point x="25" y="174" type="curve"/>
			<point x="25" y="64"/>
			<point x="87" y="-10"/>
		</contour>
		<contour>
			<point x="236" y="71" type="curve"/>
			<point x="236" y="71" type="line"/>
			<point x="151" y="71"/>
			<point x="105" y="139"/>
			<point x="105" y="204" type="curve"/>
			<point x="105" y="294"/>
			<point x="168" y="331"/>
			<point x="216" y="331" type="curve"/>
			<point x="306" y="331"/>
			<point x="347" y="268"/>
			<point x="347" y="144" type="curve"/>
			<point x="347" y="134"/>
			<point x="296" y="71"/>
		</contour>
	</outline>
</glyph>
<glyph name="e" format="2">
	<advance width="396"/>
	<unicode hex="0065"/>
	<anchor x="350" y="10" name="ogonek"/>
	<anchor x="188" y="0" name="bottom"/>
	<anchor x="188" y="400" name="top"/>
	<outline>
		<contour>
			<point x="267" y="45" type="curve" smooth="yes"/>
			<point x="193" y="45"/>
			<point x="136" y="97"/>
			<point x="117" y="170" type="curve"/>
			<point x="199" y="218"/>
			<point x="297" y="258"/>
			<point x="386" y="307" type="curve"/>
			<point x="375" y="338" type="line"/>
			<point x="360" y="338"/>
			<point x="339" y="342"/>
			<point x="326" y="350" type="curve" smooth="yes"/>
			<point x="313" y="358"/>
			<point x="268" y="408"/>
			<point x="205" y="408" type="curve" smooth="yes"/>
			<point x="157" y="408"/>
			<point x="68" y="372"/>
			<point x="47" y="334" type="curve" smooth="yes"/>
			<point x="37" y="316"/>
			<point x="15" y="289"/>
			<point x="15" y="201" type="curve" smooth="yes"/>
			<point x="15" y="91"/>
			<point x="78" y="-10"/>
			<point x="217" y="-10" type="curve" smooth="yes"/>
			<point x="289" y="-10"/>
			<point x="331" y="15"/>
			<point x="376" y="40" type="curve"/>
			<point x="363" y="65" type="line"/>
			<point x="334" y="55"/>
			<point x="305" y="45"/>
		</contour>
		<contour>
			<point x="178" y="346" type="curve" smooth="yes"/>
			<point x="203" y="346"/>
			<point x="230" y="329"/>
			<point x="244" y="279" type="curve"/>
			<point x="111" y="209" type="line"/>
			<point x="111" y="222" type="line" smooth="yes"/>
			<point x="111" y="284"/>
			<point x="129" y="346"/>
		</contour>
	</outline>
</glyph>
<glyph name="g" format="2">
	<advance width="517"/>
	<unicode hex="0067"/>
	<outline>
		<contour>
			<point x="247" y="-290" type="curve" smooth="yes"/>
			<point x="397" y="-290"/>
			<point x="502" y="-221"/>
			<point x="502" y="-128" type="curve" smooth="yes"/>
			<point x="502" y="-40"/>
			<point x="393" y="-14"/>
			<point x="383" y="-14" type="curve" smooth="yes"/>
			<point x="375" y="-14"/>
			<point x="339" y="-21"/>
			<point x="306" y="-21" type="curve" smooth="yes"/>
			<point x="291" y="-21"/>
			<point x="219" y="11"/>
			<point x="204" y="36" type="curve"/>
			<point x="211" y="47"/>
			<point x="245" y="63"/>
			<point x="262" y="63" type="curve" smooth="yes"/>
			<point x="362" y="63"/>
			<point x="464" y="120"/>
			<point x="464" y="230" type="curve" smooth="yes"/>
			<point x="464" y="274"/>
			<point x="441" y="313"/>
			<point x="422" y="332" type="curve"/>
			<point x="501" y="340" type="line"/>
			<point x="501" y="400" type="line"/>
			<point x="362" y="400" type="line" smooth="yes"/>
			<point x="323" y="400"/>
			<point x="294" y="410"/>
			<point x="251" y="410" type="curve" smooth="yes"/>
			<point x="131" y="410"/>
			<point x="39" y="350"/>
			<point x="39" y="240" type="curve" smooth="yes"/>
			<point x="39" y="167"/>
			<point x="101" y="108"/>
			<point x="179" y="80" type="curve"/>
			<point x="160" y="70"/>
			<point x="139" y="66"/>
			<point x="107" y="58" type="curve"/>
			<point x="107" y="28" type="line"/>
			<point x="146" y="17"/>
			<point x="191" y="-11"/>
			<point x="200" y="-39" type="curve"/>
			<point x="159" y="-51"/>
			<point x="120" y="-57"/>
			<point x="75" y="-61" type="curve"/>
			<point x="39" y="-75"/>
			<point x="10" y="-108"/>
			<point x="10" y="-153" type="curve" smooth="yes"/>
			<point x="10" y="-253"/>
			<point x="137" y="-290"/>
		</contour>
		<contour>
			<point x="255" y="106" type="curve" smooth="yes"/>
			<point x="191" y="106"/>
			<point x="136" y="152"/>
			<point x="136" y="218" type="curve" smooth="yes"/>
			<point x="136" y="285"/>
			<point x="191" y="328"/>
			<point x="253" y="328" type="curve" smooth="yes"/>
			<point x="323" y="328"/>
			<point x="374" y="286"/>
			<point x="374" y="219" type="curve" smooth="yes"/>
			<point x="374" y="154"/>
			<point x="324" y="106"/>
		</contour>
		<contour>
			<point x="267" y="-255" type="curve" smooth="yes"/>
			<point x="177" y="-255"/>
			<point x="104" y="-223"/>
			<point x="104" y="-162" type="curve" smooth="yes"/>
			<point x="104" y="-98"/>
			<point x="200" y="-59"/>
			<point x="278" y="-58" type="curve" smooth="yes"/>
			<point x="352" y="-57"/>
			<point x="429" y="-88"/>
			<point x="429" y="-149" type="curve" smooth="yes"/>
			<point x="429" y="-209"/>
			<point x="362" y="-255"/>
		</contour>
	</outline>
</glyph>
<glyph name="h" format="2">
	<advance width="523"/>
	<unicode hex="0068"/>
	<outline>
		<contour>
			<point x="301" y="410" type="curve"/>
			<point x="301" y="410" type="line"/>
			<point x="235" y="410"/>
			<point x="188" y="390"/>
			<point x="148" y="353" type="curve"/>
			<point x="148" y="419"/>
			<point x="149" y="485"/>
			<point x="151" y="551" type="curve"/>
			<point x="152" y="595"/>
			<point x="157" y="666"/>
			<point x="161" y="705" type="curve"/>
			<point x="152" y="710" type="line"/>
			<point x="104" y="701"/>
			<point x="60" y="695"/>
			<point x="20" y="689" type="curve"/>
			<point x="20" y="659" type="line"/>
			<point x="47" y="656"/>
			<point x="54" y="626"/>
			<point x="56" y="596" type="curve"/>
			<point x="65" y="421"/>
			<point x="65" y="245"/>
			<point x="56" y="70" type="curve"/>
			<point x="55" y="52"/>
			<point x="42" y="34"/>
			<point x="28" y="27" type="curve"/>
			<point x="28" y="-3" type="line"/>
			<point x="53" y="-1"/>
			<point x="84" y="0"/>
			<point x="112" y="0" type="curve"/>
			<point x="132" y="0"/>
			<point x="158" y="0"/>
			<point x="182" y="-3" type="curve"/>
			<point x="182" y="27" type="line"/>
			<point x="162" y="34"/>
			<point x="152" y="47"/>
			<point x="151" y="71" type="curve"/>
			<point x="149" y="139"/>
			<point x="148" y="208"/>
			<point x="148" y="276" type="curve"/>
			<point x="165" y="330"/>
			<point x="215" y="352"/>
			<point x="255" y="352" type="curve"/>
			<point x="345" y="352"/>
			<point x="401" y="267"/>
			<point x="401" y="177" type="curve"/>
			<point x="401" y="118"/>
			<point x="381" y="61"/>
			<point x="343" y="10" type="curve"/>
			<point x="368" y="-10" type="line"/>
			<point x="434" y="57"/>
			<point x="488" y="136"/>
			<point x="488" y="227" type="curve"/>
			<point x="488" y="327"/>
			<point x="411" y="410"/>
		</contour>
	</outline>
</glyph>
<glyph name="j" format="2">
	<advance width="234"/>
	<unicode hex="006A"/>
	<outline>
		<contour>
			<point x="119" y="512" type="curve"/>
			<point x="119" y="512" type="line"/>
			<point x="146" y="512"/>
			<point x="168" y="534"/>
			<point x="168" y="562" type="curve"/>
			<point x="168" y="589"/>
			<point x="146" y="611"/>
			<point x="119" y="611" type="curve"/>
			<point x="92" y="611"/>
			<point x="70" y="589"/>
			<point x="70" y="562" type="curve"/>
			<point x="70" y="534"/>
			<point x="92" y="512"/>
		</contour>
		<contour>
			<point x="30" y="-177" type="curve"/>
			<point x="59" y="-195" type="line"/>
			<point x="116" y="-95"/>
			<point x="168" y="2"/>
			<point x="167" y="105" type="curve"/>
			<point x="166" y="168"/>
			<point x="170" y="220"/>
			<point x="172" y="283" type="curve"/>
			<point x="173" y="324"/>
			<point x="176" y="375"/>
			<point x="179" y="405" type="curve"/>
			<point x="172" y="411" type="line"/>
			<point x="124" y="402"/>
			<point x="80" y="396"/>
			<point x="40" y="390" type="curve"/>
			<point x="40" y="360" type="line"/>
			<point x="67" y="357"/>
			<point x="75" y="337"/>
			<point x="76" y="307" type="curve"/>
			<point x="78" y="239"/>
			<point x="74" y="88"/>
			<point x="71" y="20" type="curve"/>
			<point x="69" y="-22"/>
			<point x="65" y="-94"/>
		</contour>
	</outline>
</glyph>
<glyph name="k" format="2">
	<advance width="511"/>
	<unicode hex="006B"/>
	<outline>
		<contour>
			<point x="441" y="70" type="curve"/>
			<point x="441" y="70" type="line"/>
			<point x="314" y="248" type="line"/>
			<point x="365" y="296"/>
			<point x="414" y="348"/>
			<point x="465" y="376" type="curve"/>
			<point x="466" y="401" type="line"/>
			<point x="266" y="400" type="line"/>
			<point x="265" y="375" type="line"/>
			<point x="343" y="354"/>
			<point x="330" y="314"/>
			<point x="307" y="288" type="curve"/>
			<point x="263" y="237" type="line"/>
			<point x="174" y="237" type="line"/>
			<point x="175" y="341"/>
			<point x="176" y="446"/>
			<point x="181" y="550" type="curve"/>
			<point x="183" y="594"/>
			<point x="185" y="665"/>
			<point x="189" y="704" type="curve"/>
			<point x="182" y="710" type="line"/>
			<point x="134" y="701"/>
			<point x="60" y="685"/>
			<point x="20" y="679" type="curve"/>
			<point x="20" y="649" type="line"/>
			<point x="47" y="646"/>
			<point x="84" y="636"/>
			<point x="86" y="586" type="curve"/>
			<point x="91" y="449"/>
			<point x="93" y="292"/>
			<point x="87" y="90" type="curve"/>
			<point x="86" y="55"/>
			<point x="74" y="41"/>
			<point x="32" y="27" type="curve"/>
			<point x="31" y="-3" type="line"/>
			<point x="92" y="0"/>
			<point x="192" y="-1"/>
			<point x="236" y="-3" type="curve"/>
			<point x="236" y="27" type="line"/>
			<point x="194" y="41"/>
			<point x="174" y="55"/>
			<point x="174" y="90" type="curve"/>
			<point x="174" y="205" type="line"/>
			<point x="254" y="205" type="line"/>
			<point x="382" y="0" type="line"/>
			<point x="421" y="-2"/>
			<point x="460" y="-6"/>
			<point x="499" y="-12" type="curve"/>
			<point x="506" y="14" type="line"/>
			<point x="485" y="24"/>
			<point x="458" y="46"/>
		</contour>
	</outline>
</glyph>
<glyph name="l" format="2">
	<advance width="211"/>
	<unicode hex="006C"/>
	<outline>
		<contour>
			<point x="206" y="-3" type="curve"/>
			<point x="206" y="-3" type="line"/>
			<point x="206" y="32" type="line"/>
			<point x="164" y="46"/>
			<point x="144" y="55"/>
			<point x="144" y="90" type="curve"/>
			<point x="144" y="243"/>
			<point x="145" y="397"/>
			<point x="151" y="550" type="curve"/>
			<point x="153" y="594"/>
			<point x="155" y="665"/>
			<point x="159" y="704" type="curve"/>
			<point x="152" y="710" type="line"/>
			<point x="104" y="701"/>
			<point x="60" y="695"/>
			<point x="20" y="689" type="curve"/>
			<point x="20" y="659" type="line"/>
			<point x="47" y="656"/>
			<point x="54" y="636"/>
			<point x="56" y="586" type="curve"/>
			<point x="61" y="449"/>
			<point x="61" y="302"/>
			<point x="58" y="150" type="curve"/>
			<point x="56" y="67"/>
			<point x="48" y="17"/>
			<point x="49" y="9" type="curve"/>
			<point x="50" y="-2" type="line"/>
			<point x="68" y="-1"/>
			<point x="93" y="0"/>
			<point x="111" y="0" type="curve"/>
			<point x="131" y="0"/>
			<point x="162" y="-1"/>
		</contour>
	</outline>
</glyph>
<glyph name="m" format="2">
	<advance width="751"/>
	<unicode hex="006D"/>
	<outline>
		<contour>
			<point x="32" y="27" type="curve"/>
			<point x="32" y="-3" type="line"/>
			<point x="52" y="-1"/>
			<point x="155" y="-1"/>
			<point x="183" y="-3" type="curve"/>
			<point x="183" y="27" type="line"/>
			<point x="157" y="47"/>
			<point x="159" y="63"/>
			<point x="156" y="96" type="curve"/>
			<point x="153" y="126"/>
			<point x="154" y="201"/>
			<point x="159" y="244" type="curve"/>
			<point x="166" y="299"/>
			<point x="193" y="347"/>
			<point x="250" y="347" type="curve"/>
			<point x="309" y="347"/>
			<point x="328" y="303"/>
			<point x="331" y="235" type="curve"/>
			<point x="333" y="186"/>
			<point x="329" y="113"/>
			<point x="326" y="78" type="curve"/>
			<point x="323" y="47"/>
			<point x="312" y="37"/>
			<point x="286" y="27" type="curve"/>
			<point x="286" y="-3" type="line"/>
			<point x="338" y="1"/>
			<point x="425" y="0"/>
			<point x="474" y="-3" type="curve"/>
			<point x="474" y="27" type="line"/>
			<point x="451" y="36"/>
			<point x="436" y="45"/>
			<point x="433" y="71" type="curve"/>
			<point x="428" y="118"/>
			<point x="423" y="206"/>
			<point x="431" y="266" type="curve"/>
			<point x="437" y="310"/>
			<point x="465" y="347"/>
			<point x="514" y="347" type="curve"/>
			<point x="582" y="347"/>
			<point x="602" y="290"/>
			<point x="606" y="235" type="curve"/>
			<point x="609" y="189"/>
			<point x="607" y="138"/>
			<point x="604" y="96" type="curve"/>
			<point x="602" y="61"/>
			<point x="597" y="43"/>
			<point x="578" y="27" type="curve"/>
			<point x="578" y="-3" type="line"/>
			<point x="630" y="1"/>
			<point x="667" y="0"/>
			<point x="726" y="-3" type="curve"/>
			<point x="726" y="27" type="line"/>
			<point x="705" y="43"/>
			<point x="705" y="56"/>
			<point x="703" y="96" type="curve"/>
			<point x="701" y="142"/>
			<point x="700" y="193"/>
			<point x="702" y="261" type="curve"/>
			<point x="704" y="338"/>
			<point x="673" y="410"/>
			<point x="563" y="410" type="curve"/>
			<point x="518" y="410"/>
			<point x="470" y="387"/>
			<point x="422" y="338" type="curve"/>
			<point x="397" y="385"/>
			<point x="365" y="410"/>
			<point x="299" y="410" type="curve"/>
			<point x="248" y="410"/>
			<point x="198" y="384"/>
			<point x="158" y="342" type="curve"/>
			<point x="159" y="400" type="line"/>
			<point x="148" y="410" type="line"/>
			<point x="103" y="391"/>
			<point x="61" y="374"/>
			<point x="25" y="363" type="curve"/>
			<point x="25" y="333" type="line"/>
			<point x="52" y="327"/>
			<point x="60" y="321"/>
			<point x="60" y="282" type="curve"/>
			<point x="60" y="212"/>
			<point x="58" y="105"/>
			<point x="55" y="78" type="curve"/>
			<point x="52" y="53"/>
			<point x="47" y="40"/>
		</contour>
	</outline>
</glyph>
<glyph name="n" format="2">
	<advance width="485"/>
	<unicode hex="006E"/>
	<outline>
		<contour>
			<point x="434" y="96" type="curve"/>
			<point x="434" y="96" type="line"/>
			<point x="431" y="142"/>
			<point x="427" y="215"/>
			<point x="433" y="310" type="curve"/>
			<point x="436" y="359"/>
			<point x="383" y="410"/>
			<point x="294" y="410" type="curve"/>
			<point x="267" y="410"/>
			<point x="218" y="383"/>
			<point x="158" y="348" type="curve"/>
			<point x="159" y="400" type="line"/>
			<point x="149" y="409" type="line"/>
			<point x="109" y="392"/>
			<point x="67" y="376"/>
			<point x="25" y="363" type="curve"/>
			<point x="25" y="333" type="line"/>
			<point x="56" y="327"/>
			<point x="64" y="321"/>
			<point x="64" y="282" type="curve"/>
			<point x="64" y="212"/>
			<point x="62" y="105"/>
			<point x="59" y="78" type="curve"/>
			<point x="56" y="53"/>
			<point x="51" y="40"/>
			<point x="36" y="27" type="curve"/>
			<point x="36" y="-3" type="line"/>
			<point x="75" y="1"/>
			<point x="142" y="0"/>
			<point x="187" y="-3" type="curve"/>
			<point x="187" y="27" type="line"/>
			<point x="161" y="47"/>
			<point x="163" y="63"/>
			<point x="160" y="96" type="curve"/>
			<point x="157" y="122"/>
			<point x="158" y="232"/>
			<point x="158" y="287" type="curve"/>
			<point x="181" y="324"/>
			<point x="212" y="341"/>
			<point x="249" y="341" type="curve"/>
			<point x="294" y="341"/>
			<point x="330" y="314"/>
			<point x="335" y="276" type="curve"/>
			<point x="340" y="235"/>
			<point x="339" y="137"/>
			<point x="335" y="96" type="curve"/>
			<point x="332" y="61"/>
			<point x="329" y="43"/>
			<point x="310" y="27" type="curve"/>
			<point x="309" y="-3" type="line"/>
			<point x="362" y="1"/>
			<point x="398" y="0"/>
			<point x="459" y="-3" type="curve"/>
			<point x="460" y="27" type="line"/>
			<point x="439" y="43"/>
			<point x="437" y="56"/>
		</contour>
	</outline>
</glyph>
<glyph name="o" format="2">
	<advance width="468"/>
	<unicode hex="006F"/>
	<anchor x="234" y="200" name="center"/>
	<anchor x="421" y="10" name="ogonek"/>
	<anchor x="234" y="400" name="top"/>
	<anchor x="448" y="400" name="topright"/>
	<anchor x="234" y="0" name="bottom"/>
	<outline>
		<contour>
			<point x="242" y="-10" type="curve"/>
			<point x="242" y="-10" type="line"/>
			<point x="357" y="-10"/>
			<point x="443" y="80"/>
			<point x="443" y="197" type="curve"/>
			<point x="443" y="324"/>
			<point x="351" y="410"/>
			<point x="226" y="410" type="curve"/>
			<point x="103" y="410"/>
			<point x="25" y="314"/>
			<point x="25" y="197" type="curve"/>
			<point x="25" y="70"/>
			<point x="117" y="-10"/>
		</contour>
		<contour>
			<point x="244" y="33" type="curve"/>
			<point x="244" y="33" type="line"/>
			<point x="168" y="33"/>
			<point x="119" y="114"/>
			<point x="119" y="219" type="curve"/>
			<point x="119" y="319"/>
			<point x="166" y="366"/>
			<point x="228" y="366" type="curve"/>
			<point x="298" y="366"/>
			<point x="348" y="280"/>
			<point x="348" y="187" type="curve"/>
			<point x="348" y="101"/>
			<point x="304" y="33"/>
		</contour>
	</outline>
</glyph>
<glyph name="p" format="2">
	<advance width="508"/>
	<unicode hex="0070"/>
	<outline>
		<contour>
			<point x="35" y="-253" type="curve"/>
			<point x="35" y="-283" type="line"/>
			<point x="50" y="-281"/>
			<point x="97" y="-280"/>
			<point x="114" y="-280" type="curve"/>
			<point x="133" y="-280"/>
			<point x="174" y="-282"/>
			<point x="199" y="-283" type="curve"/>
			<point x="199" y="-253" type="line"/>
			<point x="182" y="-244"/>
			<point x="164" y="-238"/>
			<point x="164" y="-207" type="curve"/>
			<point x="162" y="22" type="line"/>
			<point x="188" y="7"/>
			<point x="224" y="-8"/>
			<point x="270" y="-8" type="curve"/>
			<point x="392" y="-8"/>
			<point x="483" y="97"/>
			<point x="483" y="217" type="curve"/>
			<point x="483" y="327"/>
			<point x="420" y="408"/>
			<point x="320" y="408" type="curve"/>
			<point x="276" y="408"/>
			<point x="210" y="364"/>
			<point x="161" y="328" type="curve"/>
			<point x="164" y="401" type="line"/>
			<point x="152" y="410" type="line"/>
			<point x="107" y="394"/>
			<point x="72" y="381"/>
			<point x="25" y="370" type="curve"/>
			<point x="25" y="340" type="line"/>
			<point x="51" y="330"/>
			<point x="66" y="326"/>
			<point x="71" y="250" type="curve"/>
			<point x="77" y="163"/>
			<point x="74" y="-106"/>
			<point x="69" y="-195" type="curve"/>
			<point x="67" y="-231"/>
			<point x="58" y="-242"/>
		</contour>
		<contour>
			<point x="289" y="40" type="curve"/>
			<point x="289" y="40" type="line"/>
			<point x="204" y="40"/>
			<point x="162" y="117"/>
			<point x="162" y="203" type="curve"/>
			<point x="162" y="299"/>
			<point x="211" y="340"/>
			<point x="260" y="340" type="curve"/>
			<point x="329" y="340"/>
			<point x="386" y="277"/>
			<point x="386" y="177" type="curve"/>
			<point x="386" y="109"/>
			<point x="359" y="40"/>
		</contour>
	</outline>
</glyph>
<glyph name="r" format="2">
	<advance width="350"/>
	<unicode hex="0072"/>
	<outline>
		<contour>
			<point x="238" y="409" type="curve"/>
			<point x="238" y="409" type="line"/>
			<point x="209" y="370"/>
			<point x="193" y="351"/>
			<point x="158" y="313" type="curve"/>
			<point x="158" y="324" type="line"/>
			<point x="163" y="399" type="line"/>
			<point x="144" y="409" type="line"/>
			<point x="100" y="393"/>
			<point x="64" y="377"/>
			<point x="25" y="363" type="curve"/>
			<point x="25" y="333" type="line"/>
			<point x="56" y="327"/>
			<point x="64" y="321"/>
			<point x="64" y="282" type="curve"/>
			<point x="64" y="212"/>
			<point x="62" y="105"/>
			<point x="59" y="78" type="curve"/>
			<point x="56" y="53"/>
			<point x="51" y="40"/>
			<point x="36" y="27" type="curve"/>
			<point x="36" y="-3" type="line"/>
			<point x="56" y="-1"/>
			<point x="90" y="0"/>
			<point x="121" y="0" type="curve"/>
			<point x="147" y="0"/>
			<point x="179" y="-1"/>
			<point x="207" y="-3" type="curve"/>
			<point x="207" y="27" type="line"/>
			<point x="181" y="40"/>
			<point x="163" y="43"/>
			<point x="160" y="76" type="curve"/>
			<point x="158" y="98"/>
			<point x="157" y="201"/>
			<point x="157" y="269" type="curve"/>
			<point x="206" y="324"/>
			<point x="241" y="305"/>
			<point x="281" y="268" type="curve"/>
			<point x="285" y="268" type="line"/>
			<point x="345" y="365" type="line"/>
			<point x="323" y="381"/>
			<point x="252" y="409"/>
		</contour>
	</outline>
</glyph>
<glyph name="s" format="2">
	<advance width="400"/>
	<unicode hex="0073"/>
	<outline>
		<contour>
			<point x="233" y="-10" type="curve"/>
			<point x="233" y="-10" type="line"/>
			<point x="300" y="-10"/>
			<point x="375" y="35"/>
			<point x="375" y="118" type="curve"/>
			<point x="375" y="182"/>
			<point x="330" y="229"/>
			<point x="238" y="245" type="curve"/>
			<point x="153" y="260"/>
			<point x="90" y="273"/>
			<point x="90" y="311" type="curve"/>
			<point x="90" y="340"/>
			<point x="121" y="358"/>
			<point x="163" y="358" type="curve"/>
			<point x="217" y="358"/>
			<point x="263" y="333"/>
			<point x="305" y="287" type="curve"/>
			<point x="332" y="287" type="line"/>
			<point x="380" y="394" type="line"/>
			<point x="358" y="408" type="line"/>
			<point x="343" y="398"/>
			<point x="334" y="389"/>
			<point x="318" y="389" type="curve"/>
			<point x="285" y="389"/>
			<point x="250" y="410"/>
			<point x="195" y="410" type="curve"/>
			<point x="105" y="410"/>
			<point x="36" y="359"/>
			<point x="36" y="289" type="curve"/>
			<point x="36" y="221"/>
			<point x="83" y="178"/>
			<point x="176" y="164" type="curve"/>
			<point x="263" y="151"/>
			<point x="303" y="132"/>
			<point x="303" y="88" type="curve"/>
			<point x="303" y="46"/>
			<point x="269" y="27"/>
			<point x="232" y="27" type="curve"/>
			<point x="175" y="27"/>
			<point x="97" y="81"/>
			<point x="88" y="164" type="curve"/>
			<point x="61" y="170" type="line"/>
			<point x="20" y="7" type="line"/>
			<point x="44" y="-1" type="line"/>
			<point x="74" y="44" type="line"/>
			<point x="118" y="11"/>
			<point x="174" y="-10"/>
		</contour>
	</outline>
</glyph>
<glyph name="t" format="2">
	<advance width="286"/>
	<unicode hex="0074"/>
	<outline>
		<contour>
			<point x="276" y="19" type="curve"/>
			<point x="271" y="50" type="line"/>
			<point x="156" y="33"/>
			<point x="146" y="62"/>
			<point x="141" y="155" type="curve"/>
			<point x="140" y="174"/>
			<point x="140" y="251"/>
			<point x="141" y="330" type="curve"/>
			<point x="273" y="330" type="line"/>
			<point x="273" y="400" type="line"/>
			<point x="142" y="400" type="line"/>
			<point x="143" y="441"/>
			<point x="144" y="478"/>
			<point x="146" y="503" type="curve"/>
			<point x="115" y="503" type="line"/>
			<point x="91" y="453"/>
			<point x="59" y="408"/>
			<point x="20" y="370" type="curve"/>
			<point x="20" y="330" type="line"/>
			<point x="52" y="330" type="line"/>
			<point x="52" y="103" type="line" smooth="yes"/>
			<point x="52" y="37"/>
			<point x="98" y="-11"/>
			<point x="151" y="-11" type="curve"/>
			<point x="199" y="-11"/>
			<point x="255" y="8"/>
		</contour>
	</outline>
</glyph>
<glyph name="w" format="2">
	<advance width="770"/>
	<unicode hex="0077"/>
	<outline>
		<contour>
			<point x="585" y="402" type="curve"/>
			<point x="585" y="372" type="line"/>
			<point x="645" y="366"/>
			<point x="669" y="342"/>
			<point x="649" y="296" type="curve" smooth="yes"/>
			<point x="553" y="74" type="line"/>
			<point x="465" y="300" type="line" smooth="yes"/>
			<point x="449" y="342"/>
			<point x="453" y="365"/>
			<point x="493" y="372" type="curve"/>
			<point x="493" y="402" type="line"/>
			<point x="484" y="402"/>
			<point x="475" y="401"/>
			<point x="466" y="401" type="curve"/>
			<point x="466" y="402" type="line"/>
			<point x="426" y="401"/>
			<point x="383" y="400"/>
			<point x="337" y="400" type="curve" smooth="yes"/>
			<point x="326" y="401"/>
			<point x="315" y="401"/>
			<point x="304" y="402" type="curve"/>
			<point x="304" y="401" type="line"/>
			<point x="298" y="401"/>
			<point x="292" y="402"/>
			<point x="286" y="402" type="curve"/>
			<point x="286" y="372" type="line"/>
			<point x="300" y="371"/>
			<point x="313" y="368"/>
			<point x="323" y="365" type="curve"/>
			<point x="337" y="355"/>
			<point x="346" y="339"/>
			<point x="356" y="316" type="curve"/>
			<point x="355" y="310"/>
			<point x="353" y="303"/>
			<point x="350" y="296" type="curve" smooth="yes"/>
			<point x="254" y="74" type="line"/>
			<point x="166" y="300" type="line" smooth="yes"/>
			<point x="150" y="342"/>
			<point x="154" y="365"/>
			<point x="194" y="372" type="curve"/>
			<point x="194" y="402" type="line"/>
			<point x="132" y="399"/>
			<point x="71" y="398"/>
			<point x="5" y="402" type="curve"/>
			<point x="5" y="372" type="line"/>
			<point x="35" y="366"/>
			<point x="46" y="342"/>
			<point x="63" y="303" type="curve" smooth="yes"/>
			<point x="196" y="0" type="line"/>
			<point x="260" y="0" type="line"/>
			<point x="386" y="248" type="line"/>
			<point x="495" y="0" type="line"/>
			<point x="559" y="0" type="line"/>
			<point x="704" y="285" type="line" smooth="yes"/>
			<point x="721" y="319"/>
			<point x="736" y="354"/>
			<point x="765" y="372" type="curve"/>
			<point x="765" y="402" type="line"/>
			<point x="711" y="400"/>
			<point x="650" y="399"/>
		</contour>
	</outline>
</glyph>
<glyph name="x" format="2">
	<advance width="533"/>
	<unicode hex="0078"/>
	<outline>
		<contour>
			<point x="523" y="373" type="curve"/>
			<point x="523" y="403" type="line"/>
			<point x="469" y="401"/>
			<point x="410" y="401"/>
			<point x="332" y="403" type="curve"/>
			<point x="332" y="373" type="line"/>
			<point x="368" y="359"/>
			<point x="400" y="352"/>
			<point x="400" y="327" type="curve" smooth="yes"/>
			<point x="400" y="306"/>
			<point x="365" y="256"/>
			<point x="319" y="205" type="curve"/>
			<point x="273" y="252"/>
			<point x="226" y="302"/>
			<point x="182" y="348" type="curve" smooth="yes"/>
			<point x="165" y="366"/>
			<point x="154" y="382"/>
			<point x="142" y="401" type="curve"/>
			<point x="96" y="400"/>
			<point x="51" y="400"/>
			<point x="5" y="401" type="curve"/>
			<point x="5" y="371" type="line"/>
			<point x="29" y="366"/>
			<point x="37" y="359"/>
			<point x="54" y="344" type="curve" smooth="yes"/>
			<point x="108" y="296"/>
			<point x="190" y="214"/>
			<point x="256" y="142" type="curve"/>
			<point x="207" y="98"/>
			<point x="157" y="64"/>
			<point x="125" y="64" type="curve" smooth="yes"/>
			<point x="86" y="64"/>
			<point x="75" y="86"/>
			<point x="62" y="112" type="curve"/>
			<point x="11" y="112" type="line"/>
			<point x="6" y="9" type="line"/>
			<point x="33" y="-3"/>
			<point x="56" y="-8"/>
			<point x="85" y="-8" type="curve" smooth="yes"/>
			<point x="139" y="-8"/>
			<point x="212" y="45"/>
			<point x="283" y="111" type="curve"/>
			<point x="312" y="77" type="line" smooth="yes"/>
			<point x="334" y="50"/>
			<point x="355" y="28"/>
			<point x="372" y="0" type="curve"/>
			<point x="417" y="1"/>
			<point x="468" y="1"/>
			<point x="513" y="0" type="curve"/>
			<point x="513" y="30" type="line"/>
			<point x="480" y="42"/>
			<point x="462" y="57"/>
			<point x="434" y="85" type="curve" smooth="yes"/>
			<point x="347" y="175" type="line"/>
			<point x="395" y="226"/>
			<point x="437" y="276"/>
			<point x="465" y="312" type="curve" smooth="yes"/>
			<point x="487" y="341"/>
			<point x="498" y="352"/>
		</contour>
	</outline>
</glyph>
<glyph name="y" format="2">
	<advance width="474"/>
	<unicode hex="0079"/>
	<outline>
		<contour>
			<point x="288" y="403" type="curve"/>
			<point x="288" y="403" type="line"/>
			<point x="288" y="373" type="line"/>
			<point x="353" y="348"/>
			<point x="366" y="327"/>
			<point x="341" y="286" type="curve"/>
			<point x="220" y="91" type="line"/>
			<point x="155" y="301" type="line" smooth="yes"/>
			<point x="141" y="346"/>
			<point x="153" y="365"/>
			<point x="186" y="373" type="curve"/>
			<point x="186" y="403" type="line"/>
			<point x="124" y="401"/>
			<point x="63" y="400"/>
			<point x="-3" y="403" type="curve"/>
			<point x="-3" y="373" type="line"/>
			<point x="27" y="365"/>
			<point x="43" y="354"/>
			<point x="55" y="314" type="curve"/>
			<point x="150" y="-3" type="line"/>
			<point x="69" y="-103"/>
			<point x="11" y="-164"/>
			<point x="-25" y="-184" type="curve"/>
			<point x="-25" y="-280" type="line"/>
			<point x="9" y="-280" type="line"/>
			<point x="413" y="300" type="line" smooth="yes"/>
			<point x="430" y="324"/>
			<point x="444" y="349"/>
			<point x="469" y="373" type="curve"/>
			<point x="469" y="403" type="line"/>
			<point x="415" y="400"/>
			<point x="353" y="400"/>
		</contour>
	</outline>
</glyph>
<glyph name="z" format="2">
	<advance width="433"/>
	<unicode hex="007A"/>
	<outline>
		<contour>
			<point x="280" y="162" type="curve" smooth="yes"/>
			<point x="244" y="162"/>
			<point x="204" y="152"/>
			<point x="169" y="134" type="curve"/>
			<point x="418" y="387" type="line"/>
			<point x="400" y="411" type="line"/>
			<point x="314" y="381"/>
			<point x="191" y="403"/>
			<point x="92" y="410" type="curve"/>
			<point x="14" y="330" type="line"/>
			<point x="27" y="308" type="line"/>
			<point x="76" y="322"/>
			<point x="214" y="307"/>
			<point x="279" y="302" type="curve"/>
			<point x="12" y="33" type="line"/>
			<point x="28" y="0" type="line"/>
			<point x="78" y="33"/>
			<point x="140" y="63"/>
			<point x="212" y="63" type="curve" smooth="yes"/>
			<point x="268" y="63"/>
			<point x="303" y="41"/>
			<point x="303" y="-17" type="curve" smooth="yes"/>
			<point x="303" y="-97"/>
			<point x="202" y="-230"/>
			<point x="112" y="-230" type="curve" smooth="yes"/>
			<point x="87" y="-230"/>
			<point x="78" y="-224"/>
			<point x="70" y="-202" type="curve"/>
			<point x="47" y="-199" type="line"/>
			<point x="10" y="-267" type="line"/>
			<point x="10" y="-272" type="line"/>
			<point x="31" y="-284"/>
			<point x="50" y="-290"/>
			<point x="82" y="-290" type="curve" smooth="yes"/>
			<point x="212" y="-290"/>
			<point x="398" y="-78"/>
			<point x="398" y="53" type="curve" smooth="yes"/>
			<point x="398" y="132"/>
			<point x="328" y="162"/>
		</contour>
	</outline>
</glyph>
<glyph name="periodcentered" format="2">
	<advance width="167"/>
	<unicode hex="00B7"/>
	<outline>
		<contour>
			<point x="80" y="160" type="curve"/>
			<point x="103" y="177"/>
			<point x="129" y="200"/>
			<point x="147" y="217" type="curve"/>
			<point x="132" y="240"/>
			<point x="111" y="267"/>
			<point x="89" y="284" type="curve"/>
			<point x="68" y="272"/>
			<point x="37" y="247"/>
			<point x="20" y="226" type="curve"/>
			<point x="36" y="205"/>
			<point x="61" y="178"/>
		</contour>
	</outline>
</glyph>
<glyph name="a_macr" format="2">
	<advance width="379"/>
	<unicode hex="0101"/>
	<anchor x="343" y="10" name="ogonek"/>
	<anchor x="172" y="629" name="top"/>
	<anchor x="181" y="356" name="_top"/>
	<anchor x="189" y="0" name="bottom"/>
	<outline>
		<contour>
			<point x="68" y="513" type="line"/>
			<point x="92" y="500" type="line"/>
			<point x="141" y="524"/>
			<point x="186" y="514"/>
			<point x="247" y="508" type="curve"/>
			<point x="363" y="662" type="line"/>
			<point x="335" y="670" type="line"/>
			<point x="261" y="589"/>
			<point x="229" y="608"/>
			<point x="151" y="608" type="curve"/>
		</contour>
		<contour>
			<point x="101" y="-10" type="curve"/>
			<point x="101" y="-10" type="line"/>
			<point x="155" y="-10"/>
			<point x="209" y="23"/>
			<point x="244" y="70" type="curve"/>
			<point x="252" y="-10" type="line"/>
			<point x="296" y="-5"/>
			<point x="329" y="-1"/>
			<point x="364" y="0" type="curve"/>
			<point x="364" y="30" type="line"/>
			<point x="343" y="43"/>
			<point x="338" y="54"/>
			<point x="339" y="96" type="curve"/>
			<point x="342" y="302" type="line" smooth="yes"/>
			<point x="343" y="367"/>
			<point x="294" y="410"/>
			<point x="210" y="410" type="curve"/>
			<point x="154" y="410"/>
			<point x="81" y="366"/>
			<point x="28" y="315" type="curve"/>
			<point x="43" y="292" type="line"/>
			<point x="79" y="321"/>
			<point x="117" y="337"/>
			<point x="160" y="337" type="curve"/>
			<point x="220" y="337"/>
			<point x="245" y="313"/>
			<point x="245" y="253" type="curve"/>
			<point x="193" y="235"/>
			<point x="138" y="221"/>
			<point x="77" y="193" type="curve"/>
			<point x="36" y="174"/>
			<point x="5" y="144"/>
			<point x="5" y="92" type="curve"/>
			<point x="5" y="27"/>
			<point x="56" y="-10"/>
		</contour>
		<contour>
			<point x="162" y="66" type="curve"/>
			<point x="162" y="66" type="line"/>
			<point x="114" y="66"/>
			<point x="100" y="94"/>
			<point x="100" y="122" type="curve"/>
			<point x="100" y="173"/>
			<point x="181" y="207"/>
			<point x="259" y="226" type="curve"/>
			<point x="259" y="99"/>
			<point x="210" y="66"/>
		</contour>
	</outline>
</glyph>
<glyph name="e_macr" format="2">
	<advance width="406"/>
	<unicode hex="0113"/>
	<anchor x="350" y="10" name="ogonek"/>
	<anchor x="208" y="623" name="top"/>
	<anchor x="217" y="350" name="_top"/>
	<anchor x="188" y="0" name="bottom"/>
	<outline>
		<contour>
			<point x="289" y="492" type="curve"/>
			<point x="289" y="492" type="line"/>
			<point x="377" y="611" type="line"/>
			<point x="351" y="621" type="line"/>
			<point x="277" y="570"/>
			<point x="241" y="580"/>
			<point x="163" y="588" type="curve"/>
			<point x="90" y="498" type="line"/>
			<point x="114" y="485" type="line"/>
			<point x="143" y="509"/>
			<point x="228" y="498"/>
		</contour>
		<contour>
			<point x="267" y="45" type="curve"/>
			<point x="267" y="45" type="line"/>
			<point x="193" y="45"/>
			<point x="136" y="97"/>
			<point x="117" y="170" type="curve"/>
			<point x="199" y="218"/>
			<point x="297" y="258"/>
			<point x="386" y="307" type="curve"/>
			<point x="375" y="338" type="line"/>
			<point x="360" y="338"/>
			<point x="339" y="342"/>
			<point x="326" y="350" type="curve"/>
			<point x="313" y="358"/>
			<point x="268" y="408"/>
			<point x="205" y="408" type="curve"/>
			<point x="157" y="408"/>
			<point x="68" y="372"/>
			<point x="47" y="334" type="curve"/>
			<point x="37" y="316"/>
			<point x="15" y="289"/>
			<point x="15" y="201" type="curve"/>
			<point x="15" y="91"/>
			<point x="78" y="-10"/>
			<point x="217" y="-10" type="curve"/>
			<point x="289" y="-10"/>
			<point x="331" y="15"/>
			<point x="376" y="40" type="curve"/>
			<point x="363" y="65" type="line"/>
			<point x="334" y="55"/>
			<point x="305" y="45"/>
		</contour>
		<contour>
			<point x="178" y="346" type="curve"/>
			<point x="178" y="346" type="line"/>
			<point x="203" y="346"/>
			<point x="230" y="329"/>
			<point x="244" y="279" type="curve"/>
			<point x="111" y="209" type="line"/>
			<point x="111" y="222" type="line" smooth="yes"/>
			<point x="111" y="284"/>
			<point x="129" y="346"/>
		</contour>
	</outline>
</glyph>
<glyph name="i_macr" format="2">
	<advance width="251"/>
	<unicode hex="012B"/>
	<anchor x="105" y="607" name="top"/>
	<anchor x="176" y="341" name="_top"/>
	<outline>
		<contour>
			<point x="30" y="474" type="line"/>
			<point x="55" y="465" type="line"/>
			<point x="76" y="496"/>
			<point x="152" y="502"/>
			<point x="212" y="505" type="curve"/>
			<point x="233" y="538"/>
			<point x="257" y="597"/>
			<point x="266" y="660" type="curve"/>
			<point x="237" y="663" type="line"/>
			<point x="228" y="572"/>
			<point x="141" y="579"/>
			<point x="67" y="587" type="curve"/>
		</contour>
		<contour>
			<point x="60" y="8" type="curve"/>
			<point x="65" y="-10" type="line"/>
			<point x="107" y="-5"/>
			<point x="164" y="0"/>
			<point x="195" y="0" type="curve"/>
			<point x="195" y="30" type="line"/>
			<point x="177" y="64"/>
			<point x="171" y="112"/>
			<point x="171" y="179" type="curve"/>
			<point x="171" y="263"/>
			<point x="171" y="327"/>
			<point x="181" y="405" type="curve"/>
			<point x="174" y="411" type="line"/>
			<point x="126" y="402"/>
			<point x="82" y="396"/>
			<point x="42" y="390" type="curve"/>
			<point x="42" y="360" type="line"/>
			<point x="69" y="357"/>
			<point x="77" y="337"/>
			<point x="78" y="307" type="curve"/>
			<point x="80" y="239"/>
			<point x="80" y="170"/>
			<point x="76" y="102" type="curve"/>
			<point x="74" y="60"/>
			<point x="72" y="38"/>
		</contour>
	</outline>
</glyph>
<glyph name="idotless" format="2">
	<advance width="233"/>
	<unicode hex="0131"/>
	<outline>
		<contour>
			<point x="53" y="-10" type="line"/>
			<point x="95" y="-5"/>
			<point x="152" y="0"/>
			<point x="203" y="0" type="curve"/>
			<point x="203" y="30" type="line"/>
			<point x="165" y="44"/>
			<point x="163" y="58"/>
			<point x="162" y="95" type="curve" smooth="yes"/>
			<point x="160" y="158"/>
			<point x="160" y="220"/>
			<point x="162" y="283" type="curve" smooth="yes"/>
			<point x="163" y="324"/>
			<point x="166" y="375"/>
			<point x="169" y="405" type="curve"/>
			<point x="162" y="411" type="line"/>
			<point x="114" y="402"/>
			<point x="70" y="396"/>
			<point x="30" y="390" type="curve"/>
			<point x="30" y="360" type="line"/>
			<point x="57" y="357"/>
			<point x="65" y="337"/>
			<point x="66" y="307" type="curve" smooth="yes"/>
			<point x="68" y="239"/>
			<point x="68" y="170"/>
			<point x="64" y="102" type="curve" smooth="yes"/>
			<point x="62" y="60"/>
			<point x="60" y="38"/>
			<point x="48" y="8" type="curve"/>
		</contour>
	</outline>
</glyph>
<glyph name="o_macr" format="2">
	<advance width="468"/>
	<unicode hex="014D"/>
	<anchor x="234" y="0" name="bottom"/>
	<anchor x="421" y="10" name="ogonek"/>
	<anchor x="177.822" y="662.633" name="top"/>
	<anchor x="448" y="400" name="topright"/>
	<anchor x="234.092" y="395.343" name="_top"/>
	<anchor x="234" y="200" name="center"/>
	<outline>
		<contour>
			<point x="98" y="518" type="line"/>
			<point x="142" y="550"/>
			<point x="219" y="543"/>
			<point x="280" y="548" type="curve"/>
			<point x="365" y="699" type="line"/>
			<point x="336" y="702" type="line"/>
			<point x="272" y="639"/>
			<point x="214" y="648"/>
			<point x="137" y="634" type="curve"/>
			<point x="72" y="526" type="line"/>
		</contour>
		<contour>
			<point x="244" y="-10" type="curve" smooth="yes"/>
			<point x="359" y="-10"/>
			<point x="443" y="80"/>
			<point x="443" y="197" type="curve" smooth="yes"/>
			<point x="443" y="324"/>
			<point x="349" y="410"/>
			<point x="224" y="410" type="curve" smooth="yes"/>
			<point x="101" y="410"/>
			<point x="25" y="314"/>
			<point x="25" y="197" type="curve" smooth="yes"/>
			<point x="25" y="70"/>
			<point x="119" y="-10"/>
		</contour>
		<contour>
			<point x="244" y="33" type="curve" smooth="yes"/>
			<point x="168" y="33"/>
			<point x="119" y="114"/>
			<point x="119" y="219" type="curve" smooth="yes"/>
			<point x="119" y="319"/>
			<point x="166" y="366"/>
			<point x="228" y="366" type="curve" smooth="yes"/>
			<point x="298" y="366"/>
			<point x="348" y="280"/>
			<point x="348" y="187" type="curve" smooth="yes"/>
			<point x="348" y="101"/>
			<point x="304" y="33"/>
		</contour>
	</outline>
</glyph>
<glyph name="u_macr" format="2">
	<advance width="475"/>
	<unicode hex="016B"/>
	<anchor x="235" y="653" name="top"/>
	<anchor x="244" y="380" name="_top"/>
	<outline>
		<contour>
			<point x="316" y="522" type="curve"/>
			<point x="426" y="656" type="line"/>
			<point x="398" y="664" type="line"/>
			<point x="324" y="613"/>
			<point x="268" y="632"/>
			<point x="190" y="632" type="curve"/>
			<point x="107" y="537" type="line"/>
			<point x="131" y="524" type="line"/>
			<point x="180" y="548"/>
			<point x="255" y="528"/>
		</contour>
		<contour>
			<point x="421" y="105" type="curve" smooth="yes"/>
			<point x="418" y="158"/>
			<point x="415" y="248"/>
			<point x="414" y="311" type="curve" smooth="yes"/>
			<point x="413" y="339"/>
			<point x="425" y="376"/>
			<point x="430" y="399" type="curve"/>
			<point x="420" y="409" type="line"/>
			<point x="376" y="403"/>
			<point x="320" y="400"/>
			<point x="254" y="399" type="curve"/>
			<point x="254" y="369" type="line"/>
			<point x="292" y="369"/>
			<point x="325" y="353"/>
			<point x="325" y="313" type="curve" smooth="yes"/>
			<point x="325" y="119" type="line"/>
			<point x="323" y="101" type="line"/>
			<point x="300" y="66"/>
			<point x="267" y="49"/>
			<point x="234" y="49" type="curve" smooth="yes"/>
			<point x="166" y="49"/>
			<point x="151" y="98"/>
			<point x="146" y="153" type="curve" smooth="yes"/>
			<point x="142" y="199"/>
			<point x="142" y="283"/>
			<point x="145" y="326" type="curve" smooth="yes"/>
			<point x="147" y="354"/>
			<point x="152" y="361"/>
			<point x="170" y="373" type="curve"/>
			<point x="171" y="403" type="line"/>
			<point x="147" y="401"/>
			<point x="127" y="400"/>
			<point x="97" y="400" type="curve" smooth="yes"/>
			<point x="75" y="400"/>
			<point x="44" y="402"/>
			<point x="21" y="403" type="curve"/>
			<point x="20" y="373" type="line"/>
			<point x="41" y="363"/>
			<point x="44" y="354"/>
			<point x="46" y="326" type="curve" smooth="yes"/>
			<point x="49" y="280"/>
			<point x="52" y="185"/>
			<point x="51" y="119" type="curve" smooth="yes"/>
			<point x="50" y="41"/>
			<point x="77" y="-10"/>
			<point x="196" y="-10" type="curve" smooth="yes"/>
			<point x="221" y="-10"/>
			<point x="266" y="13"/>
			<point x="320" y="45" type="curve"/>
			<point x="320" y="0" type="line"/>
			<point x="450" y="0" type="line"/>
			<point x="450" y="35" type="line"/>
			<point x="431" y="45"/>
			<point x="424" y="60"/>
		</contour>
	</outline>
</glyph>
<glyph name="longs" format="2">
	<advance width="256"/>
	<unicode hex="017F"/>
	<outline>
		<contour>
			<point x="123" y="355" type="move"/>
		</contour>
		<contour>
			<point x="222" y="-7" type="curve"/>
			<point x="222" y="28" type="line"/>
			<point x="171" y="37"/>
			<point x="166" y="47"/>
			<point x="160" y="75" type="curve" smooth="yes"/>
			<point x="156" y="95"/>
			<point x="153" y="390"/>
			<point x="152" y="499" type="curve" smooth="yes"/>
			<point x="151" y="608"/>
			<point x="187" y="665"/>
			<point x="258" y="665" type="curve" smooth="yes"/>
			<point x="292" y="665"/>
			<point x="339" y="637"/>
			<point x="369" y="598" type="curve"/>
			<point x="374" y="598" type="line"/>
			<point x="426" y="662" type="line"/>
			<point x="426" y="666" type="line"/>
			<point x="374" y="691"/>
			<point x="330" y="710"/>
			<point x="272" y="710" type="curve" smooth="yes"/>
			<point x="134" y="710"/>
			<point x="86" y="581"/>
			<point x="72" y="485" type="curve" smooth="yes"/>
			<point x="63" y="421"/>
			<point x="47" y="401"/>
			<point x="26" y="373" type="curve"/>
			<point x="25" y="342" type="line"/>
			<point x="70" y="343" type="line"/>
			<point x="69" y="232"/>
			<point x="66" y="77"/>
			<point x="66" y="69" type="curve" smooth="yes"/>
			<point x="66" y="50"/>
			<point x="56" y="40"/>
			<point x="35" y="28" type="curve"/>
			<point x="35" y="-6" type="line"/>
			<point x="104" y="2"/>
			<point x="164" y="-2"/>
		</contour>
	</outline>
</glyph>
<glyph name="a_hook" format="2">
	<advance width="378"/>
	<unicode hex="1EA3"/>
	<anchor x="327" y="10" name="ogonek"/>
	<anchor x="173" y="0" name="bottom"/>
	<anchor x="173" y="400" name="top"/>
	<outline>
		<contour>
			<point x="79" y="491" type="curve"/>
			<point x="79" y="491" type="line"/>
			<point x="99" y="463" type="line"/>
			<point x="214" y="498"/>
			<point x="323" y="522"/>
			<point x="373" y="556" type="curve"/>
			<point x="373" y="599"/>
			<point x="317" y="667"/>
			<point x="285" y="706" type="curve"/>
			<point x="180" y="662" type="line"/>
			<point x="199" y="648"/>
			<point x="258" y="603"/>
			<point x="258" y="575" type="curve"/>
			<point x="258" y="538"/>
			<point x="177" y="522"/>
		</contour>
		<contour>
			<point x="316" y="106" type="curve"/>
			<point x="316" y="106" type="line"/>
			<point x="329" y="332" type="line"/>
			<point x="303" y="378"/>
			<point x="259" y="401"/>
			<point x="224" y="409" type="curve"/>
			<point x="168" y="400"/>
			<point x="87" y="356"/>
			<point x="12" y="315" type="curve"/>
			<point x="17" y="292" type="line"/>
			<point x="63" y="313"/>
			<point x="123" y="337"/>
			<point x="166" y="337" type="curve"/>
			<point x="213" y="337"/>
			<point x="233" y="312"/>
			<point x="235" y="264" type="curve"/>
			<point x="166" y="226"/>
			<point x="48" y="173"/>
			<point x="5" y="142" type="curve"/>
			<point x="15" y="77"/>
			<point x="48" y="24"/>
			<point x="93" y="-12" type="curve"/>
			<point x="143" y="20"/>
			<point x="189" y="44"/>
			<point x="235" y="78" type="curve"/>
			<point x="235" y="58"/>
			<point x="236" y="28"/>
			<point x="236" y="-20" type="curve"/>
			<point x="280" y="-8"/>
			<point x="316" y="-1"/>
			<point x="341" y="0" type="curve"/>
			<point x="341" y="30" type="line"/>
			<point x="330" y="43"/>
			<point x="314" y="64"/>
		</contour>
		<contour>
			<point x="158" y="66" type="curve"/>
			<point x="158" y="66" type="line"/>
			<point x="110" y="66"/>
			<point x="88" y="131"/>
			<point x="88" y="159" type="curve"/>
			<point x="120" y="184"/>
			<point x="175" y="210"/>
			<point x="235" y="226" type="curve"/>
			<point x="235" y="110" type="line"/>
			<point x="210" y="85"/>
			<point x="182" y="66"/>
		</contour>
	</outline>
</glyph>
<glyph name="p_flour" format="2">
	<advance width="618"/>
	<unicode hex="A752"/>
	<outline>
		<contour>
			<point x="430" y="408" type="curve"/>
			<point x="430" y="408" type="line"/>
			<point x="386" y="408"/>
			<point x="320" y="364"/>
			<point x="271" y="328" type="curve"/>
			<point x="274" y="401" type="line"/>
			<point x="262" y="410" type="line"/>
			<point x="217" y="394"/>
			<point x="182" y="381"/>
			<point x="135" y="370" type="curve"/>
			<point x="135" y="340" type="line"/>
			<point x="161" y="330"/>
			<point x="176" y="326"/>
			<point x="181" y="250" type="curve"/>
			<point x="184" y="214"/>
			<point x="184" y="145"/>
			<point x="184" y="72" type="curve"/>
			<point x="83" y="35"/>
			<point x="10" y="-30"/>
			<point x="10" y="-89" type="curve"/>
			<point x="10" y="-122"/>
			<point x="26" y="-155"/>
			<point x="55" y="-179" type="curve"/>
			<point x="104" y="-172"/>
			<point x="143" y="-161"/>
			<point x="181" y="-144" type="curve"/>
			<point x="180" y="-164"/>
			<point x="180" y="-182"/>
			<point x="179" y="-195" type="curve"/>
			<point x="177" y="-231"/>
			<point x="168" y="-242"/>
			<point x="145" y="-253" type="curve"/>
			<point x="145" y="-283" type="line"/>
			<point x="160" y="-281"/>
			<point x="207" y="-280"/>
			<point x="224" y="-280" type="curve"/>
			<point x="243" y="-280"/>
			<point x="284" y="-282"/>
			<point x="309" y="-283" type="curve"/>
			<point x="309" y="-253" type="line"/>
			<point x="292" y="-244"/>
			<point x="274" y="-238"/>
			<point x="274" y="-207" type="curve"/>
			<point x="272" y="22" type="line"/>
			<point x="298" y="7"/>
			<point x="334" y="-8"/>
			<point x="380" y="-8" type="curve"/>
			<point x="502" y="-8"/>
			<point x="593" y="97"/>
			<point x="593" y="217" type="curve"/>
			<point x="593" y="327"/>
			<point x="530" y="408"/>
		</contour>
		<contour>
			<point x="399" y="40" type="curve"/>
			<point x="399" y="40" type="line"/>
			<point x="314" y="40"/>
			<point x="272" y="117"/>
			<point x="272" y="203" type="curve"/>
			<point x="272" y="299"/>
			<point x="321" y="340"/>
			<point x="370" y="340" type="curve"/>
			<point x="439" y="340"/>
			<point x="496" y="277"/>
			<point x="496" y="177" type="curve"/>
			<point x="496" y="109"/>
			<point x="469" y="40"/>
		</contour>
		<contour>
			<point x="111" y="-47" type="curve"/>
			<point x="111" y="-47" type="line"/>
			<point x="111" y="-18"/>
			<point x="137" y="10"/>
			<point x="184" y="38" type="curve"/>
			<point x="184" y="-9"/>
			<point x="183" y="-56"/>
			<point x="182" y="-97" type="curve"/>
			<point x="134" y="-93"/>
			<point x="111" y="-78"/>
		</contour>
	</outline>
</glyph>
<glyph name="q_bardes" format="2">
	<advance width="634"/>
	<unicode hex="A757"/>
	<outline>
		<contour>
			<point x="634" y="-6" type="curve"/>
			<point x="602" y="8" type="line"/>
			<point x="576" y="-19"/>
			<point x="531" y="-34"/>
			<point x="476" y="-45" type="curve"/>
			<point x="476" y="64"/>
			<point x="478" y="194"/>
			<point x="482" y="250" type="curve"/>
			<point x="487" y="326"/>
			<point x="498" y="370"/>
			<point x="514" y="422" type="curve"/>
			<point x="485" y="431" type="line"/>
			<point x="465" y="404"/>
			<point x="441" y="378"/>
			<point x="414" y="342" type="curve"/>
			<point x="356" y="382"/>
			<point x="313" y="410"/>
			<point x="242" y="410" type="curve"/>
			<point x="152" y="410"/>
			<point x="30" y="331"/>
			<point x="30" y="201" type="curve"/>
			<point x="30" y="71"/>
			<point x="117" y="-10"/>
			<point x="267" y="-10" type="curve"/>
			<point x="276" y="-10"/>
			<point x="335" y="26"/>
			<point x="390" y="49" type="curve"/>
			<point x="387" y="-59" type="line"/>
			<point x="335" y="-66"/>
			<point x="278" y="-72"/>
			<point x="222" y="-81" type="curve"/>
			<point x="214" y="-115" type="line"/>
			<point x="269" y="-109"/>
			<point x="323" y="-107"/>
			<point x="386" y="-103" type="curve"/>
			<point x="384" y="-207" type="line" smooth="yes"/>
			<point x="383" y="-238"/>
			<point x="366" y="-244"/>
			<point x="339" y="-253" type="curve"/>
			<point x="339" y="-283" type="line"/>
			<point x="374" y="-282"/>
			<point x="415" y="-280"/>
			<point x="434" y="-280" type="curve"/>
			<point x="451" y="-280"/>
			<point x="498" y="-281"/>
			<point x="513" y="-283" type="curve"/>
			<point x="513" y="-253" type="line"/>
			<point x="490" y="-242"/>
			<point x="481" y="-231"/>
			<point x="479" y="-195" type="curve"/>
			<point x="478" y="-172"/>
			<point x="477" y="-137"/>
			<point x="476" y="-96" type="curve"/>
			<point x="503" y="-94"/>
			<point x="530" y="-91"/>
			<point x="560" y="-88" type="curve"/>
			<point x="579" y="-86"/>
			<point x="614" y="-55"/>
		</contour>
		<contour>
			<point x="278" y="45" type="curve"/>
			<point x="278" y="45" type="line"/>
			<point x="178" y="45"/>
			<point x="130" y="120"/>
			<point x="130" y="211" type="curve"/>
			<point x="130" y="290"/>
			<point x="179" y="360"/>
			<point x="262" y="360" type="curve"/>
			<point x="369" y="360"/>
			<point x="408" y="241"/>
			<point x="390" y="119" type="curve"/>
			<point x="390" y="118" type="line"/>
			<point x="345" y="60"/>
			<point x="301" y="45"/>
		</contour>
	</outline>
</glyph>
<glyph name="q_strok" format="2">
	<advance width="753"/>
	<unicode hex="A759"/>
	<outline>
		<contour>
			<point x="728" y="264" type="curve" smooth="yes"/>
			<point x="728" y="330"/>
			<point x="707" y="413"/>
			<point x="630" y="413" type="curve" smooth="yes"/>
			<point x="589" y="413"/>
			<point x="546" y="368"/>
			<point x="509" y="321" type="curve"/>
			<point x="514" y="359"/>
			<point x="520" y="389"/>
			<point x="524" y="422" type="curve"/>
			<point x="495" y="431" type="line"/>
			<point x="481" y="405"/>
			<point x="461" y="378"/>
			<point x="434" y="342" type="curve"/>
			<point x="376" y="382"/>
			<point x="323" y="410"/>
			<point x="252" y="410" type="curve" smooth="yes"/>
			<point x="152" y="410"/>
			<point x="30" y="331"/>
			<point x="30" y="201" type="curve" smooth="yes"/>
			<point x="30" y="71"/>
			<point x="109" y="-10"/>
			<point x="259" y="-10" type="curve" smooth="yes"/>
			<point x="268" y="-10"/>
			<point x="355" y="26"/>
			<point x="410" y="49" type="curve"/>
			<point x="404" y="-207" type="line" smooth="yes"/>
			<point x="403" y="-238"/>
			<point x="386" y="-244"/>
			<point x="359" y="-253" type="curve"/>
			<point x="359" y="-283" type="line"/>
			<point x="394" y="-282"/>
			<point x="435" y="-280"/>
			<point x="454" y="-280" type="curve" smooth="yes"/>
			<point x="471" y="-280"/>
			<point x="518" y="-281"/>
			<point x="533" y="-283" type="curve"/>
			<point x="533" y="-253" type="line"/>
			<point x="510" y="-242"/>
			<point x="501" y="-231"/>
			<point x="499" y="-195" type="curve" smooth="yes"/>
			<point x="497" y="-167"/>
			<point x="497" y="-121"/>
			<point x="496" y="-69" type="curve"/>
			<point x="589" y="18"/>
			<point x="728" y="168"/>
		</contour>
		<contour>
			<point x="410" y="109" type="curve" smooth="yes"/>
			<point x="410" y="108" type="line"/>
			<point x="365" y="60"/>
			<point x="313" y="40"/>
			<point x="270" y="40" type="curve" smooth="yes"/>
			<point x="170" y="40"/>
			<point x="130" y="120"/>
			<point x="130" y="201" type="curve" smooth="yes"/>
			<point x="130" y="290"/>
			<point x="188" y="360"/>
			<point x="268" y="360" type="curve" smooth="yes"/>
			<point x="391" y="360"/>
			<point x="428" y="241"/>
		</contour>
		<contour>
			<point x="571" y="311" type="curve" smooth="yes"/>
			<point x="617" y="311"/>
			<point x="640" y="273"/>
			<point x="640" y="232" type="curve" smooth="yes"/>
			<point x="640" y="160"/>
			<point x="560" y="46"/>
			<point x="496" y="-23" type="curve"/>
			<point x="496" y="81"/>
			<point x="498" y="198"/>
			<point x="502" y="250" type="curve" smooth="yes"/>
			<point x="503" y="258"/>
			<point x="503" y="267"/>
			<point x="504" y="274" type="curve"/>
			<point x="525" y="295"/>
			<point x="542" y="311"/>
		</contour>
	</outline>
</glyph>
<glyph name="l_strok" format="2">
	<advance width="333"/>
	<unicode hex="A769"/>
	<outline>
		<contour>
			<point x="333" y="577" type="curve" smooth="yes"/>
			<point x="333" y="624"/>
			<point x="305" y="660"/>
			<point x="234" y="691" type="curve"/>
			<point x="165" y="628" type="line"/>
			<point x="163" y="619" type="line"/>
			<point x="217" y="601"/>
			<point x="256" y="582"/>
			<point x="256" y="526" type="curve" smooth="yes"/>
			<point x="256" y="489"/>
			<point x="227" y="441"/>
			<point x="147" y="408" type="curve"/>
			<point x="148" y="455"/>
			<point x="149" y="503"/>
			<point x="151" y="550" type="curve" smooth="yes"/>
			<point x="153" y="594"/>
			<point x="155" y="665"/>
			<point x="159" y="704" type="curve"/>
			<point x="152" y="710" type="line"/>
			<point x="104" y="701"/>
			<point x="60" y="695"/>
			<point x="20" y="689" type="curve"/>
			<point x="20" y="659" type="line"/>
			<point x="47" y="656"/>
			<point x="54" y="636"/>
			<point x="56" y="586" type="curve" smooth="yes"/>
			<point x="58" y="520"/>
			<point x="60" y="452"/>
			<point x="60" y="382" type="curve"/>
			<point x="46" y="379"/>
			<point x="31" y="376"/>
			<point x="15" y="374" type="curve"/>
			<point x="17" y="368" type="line"/>
			<point x="45" y="353" type="line"/>
			<point x="50" y="353"/>
			<point x="55" y="354"/>
			<point x="60" y="355" type="curve"/>
			<point x="60" y="288"/>
			<point x="59" y="219"/>
			<point x="58" y="150" type="curve" smooth="yes"/>
			<point x="56" y="67"/>
			<point x="48" y="17"/>
			<point x="49" y="9" type="curve" smooth="yes"/>
			<point x="50" y="-2" type="line"/>
			<point x="68" y="-1"/>
			<point x="93" y="0"/>
			<point x="111" y="0" type="curve" smooth="yes"/>
			<point x="131" y="0"/>
			<point x="162" y="-1"/>
			<point x="206" y="-3" type="curve"/>
			<point x="206" y="32" type="line"/>
			<point x="164" y="46"/>
			<point x="144" y="55"/>
			<point x="144" y="90" type="curve" smooth="yes"/>
			<point x="144" y="185"/>
			<point x="144" y="281"/>
			<point x="146" y="376" type="curve"/>
			<point x="252" y="415"/>
			<point x="333" y="495"/>
		</contour>
	</outline>
</glyph>
<glyph name="etfin" format="2">
	<advance width="433"/>
	<unicode hex="A76B"/>
	<outline>
		<contour>
			<point x="280" y="162" type="curve" smooth="yes"/>
			<point x="244" y="162"/>
			<point x="204" y="152"/>
			<point x="169" y="134" type="curve"/>
			<point x="418" y="387" type="line"/>
			<point x="400" y="411" type="line"/>
			<point x="314" y="381"/>
			<point x="201" y="403"/>
			<point x="102" y="410" type="curve"/>
			<point x="23" y="312" type="line"/>
			<point x="52" y="297" type="line"/>
			<point x="101" y="344"/>
			<point x="218" y="311"/>
			<point x="280" y="303" type="curve"/>
			<point x="12" y="33" type="line"/>
			<point x="28" y="0" type="line"/>
			<point x="78" y="33"/>
			<point x="140" y="63"/>
			<point x="212" y="63" type="curve" smooth="yes"/>
			<point x="268" y="63"/>
			<point x="303" y="41"/>
			<point x="303" y="-17" type="curve" smooth="yes"/>
			<point x="303" y="-117"/>
			<point x="202" y="-230"/>
			<point x="112" y="-230" type="curve" smooth="yes"/>
			<point x="87" y="-230"/>
			<point x="78" y="-224"/>
			<point x="70" y="-202" type="curve"/>
			<point x="47" y="-199" type="line"/>
			<point x="10" y="-267" type="line"/>
			<point x="10" y="-272" type="line"/>
			<point x="31" y="-284"/>
			<point x="50" y="-290"/>
			<point x="82" y="-290" type="curve" smooth="yes"/>
			<point x="212" y="-290"/>
			<point x="398" y="-78"/>
			<point x="398" y="53" type="curve" smooth="yes"/>
			<point x="398" y="132"/>
			<point x="328" y="162"/>
		</contour>
	</outline>
</glyph>
<glyph name="con" format="2">
	<advance width="415"/>
	<unicode hex="A76F"/>
	<outline>
		<contour>
			<point x="192" y="-9" type="curve" smooth="yes"/>
			<point x="312" y="-9"/>
			<point x="385" y="69"/>
			<point x="385" y="199" type="curve" smooth="yes"/>
			<point x="385" y="329"/>
			<point x="311" y="410"/>
			<point x="181" y="410" type="curve" smooth="yes"/>
			<point x="103" y="410"/>
			<point x="52" y="380"/>
			<point x="17" y="340" type="curve"/>
			<point x="10" y="318" type="line"/>
			<point x="37" y="306"/>
			<point x="80" y="293"/>
			<point x="109" y="282" type="curve"/>
			<point x="118" y="287" type="line"/>
			<point x="125" y="314"/>
			<point x="132" y="343"/>
			<point x="138" y="365" type="curve"/>
			<point x="214" y="365"/>
			<point x="283" y="305"/>
			<point x="283" y="209" type="curve" smooth="yes"/>
			<point x="283" y="106"/>
			<point x="214" y="45"/>
			<point x="134" y="45" type="curve" smooth="yes"/>
			<point x="102" y="45"/>
			<point x="65" y="54"/>
			<point x="42" y="61" type="curve"/>
			<point x="31" y="33" type="line"/>
			<point x="70" y="14"/>
			<point x="121" y="-9"/>
		</contour>
	</outline>
</glyph>
<glyph name="usmod" format="2">
	<advance width="473"/>
	<unicode hex="A770"/>
	<outline>
		<contour>
			<point x="149" y="-20" type="line"/>
			<point x="241" y="66"/>
			<point x="458" y="264"/>
			<point x="458" y="495" type="curve" smooth="yes"/>
			<point x="458" y="600"/>
			<point x="392" y="713"/>
			<point x="234" y="713" type="curve" smooth="yes"/>
			<point x="92" y="713"/>
			<point x="15" y="596"/>
			<point x="15" y="489" type="curve" smooth="yes"/>
			<point x="15" y="389"/>
			<point x="86" y="310"/>
			<point x="185" y="310" type="curve" smooth="yes"/>
			<point x="222" y="310"/>
			<point x="255" y="331"/>
			<point x="274" y="352" type="curve"/>
			<point x="268" y="373" type="line"/>
			<point x="199" y="342"/>
			<point x="116" y="404"/>
			<point x="116" y="499" type="curve" smooth="yes"/>
			<point x="116" y="591"/>
			<point x="152" y="661"/>
			<point x="222" y="661" type="curve" smooth="yes"/>
			<point x="297" y="661"/>
			<point x="355" y="591"/>
			<point x="355" y="449" type="curve" smooth="yes"/>
			<point x="355" y="301"/>
			<point x="255" y="90"/>
			<point x="83" y="10" type="curve"/>
			<point x="85" y="-11" type="line"/>
		</contour>
	</outline>
</glyph>
<glyph name="rum" format="2">
	<advance width="605"/>
	<unicode hex="A775"/>
	<outline>
		<contour>
			<point x="600" y="65" type="curve"/>
			<point x="588" y="88" type="line"/>
			<point x="552" y="74"/>
			<point x="547" y="66"/>
			<point x="507" y="66" type="curve" smooth="yes"/>
			<point x="461" y="66"/>
			<point x="438" y="76"/>
			<point x="397" y="81" type="curve"/>
			<point x="426" y="162"/>
			<point x="447" y="234"/>
			<point x="466" y="275" type="curve" smooth="yes"/>
			<point x="490" y="329"/>
			<point x="500" y="339"/>
			<point x="585" y="330" type="curve"/>
			<point x="594" y="362" type="line"/>
			<point x="564" y="372"/>
			<point x="475" y="401"/>
			<point x="444" y="409" type="curve"/>
			<point x="423" y="347"/>
			<point x="403" y="219"/>
			<point x="358" y="83" type="curve"/>
			<point x="357" y="83" type="line" smooth="yes"/>
			<point x="277" y="83"/>
			<point x="167" y="80"/>
			<point x="120" y="76" type="curve"/>
			<point x="172" y="128"/>
			<point x="257" y="207"/>
			<point x="257" y="300" type="curve" smooth="yes"/>
			<point x="257" y="369"/>
			<point x="203" y="410"/>
			<point x="146" y="410" type="curve" smooth="yes"/>
			<point x="124" y="410"/>
			<point x="74" y="397"/>
			<point x="36" y="364" type="curve"/>
			<point x="39" y="333" type="line"/>
			<point x="92" y="368"/>
			<point x="175" y="331"/>
			<point x="175" y="253" type="curve" smooth="yes"/>
			<point x="175" y="166"/>
			<point x="106" y="93"/>
			<point x="5" y="22" type="curve"/>
			<point x="9" y="-12" type="line"/>
			<point x="46" y="9"/>
			<point x="90" y="15"/>
			<point x="177" y="15" type="curve" smooth="yes"/>
			<point x="229" y="15"/>
			<point x="281" y="9"/>
			<point x="329" y="4" type="curve"/>
			<point x="300" y="-69"/>
			<point x="263" y="-141"/>
			<point x="213" y="-203" type="curve"/>
			<point x="248" y="-223" type="line"/>
			<point x="297" y="-155"/>
			<point x="335" y="-76"/>
			<point x="366" y="-1" type="curve"/>
			<point x="398" y="-4"/>
			<point x="426" y="-7"/>
			<point x="449" y="-7" type="curve" smooth="yes"/>
			<point x="496" y="-7"/>
			<point x="580" y="56"/>
		</contour>
	</outline>
</glyph>
<glyph name="r_strok" format="2">
	<advance width="492"/>
	<unicode hex="A776"/>
	<outline>
		<contour>
			<point x="487" y="313" type="curve"/>
			<point x="487" y="313" type="line"/>
			<point x="485" y="379" type="line"/>
			<point x="464" y="377"/>
			<point x="433" y="376"/>
			<point x="402" y="374" type="curve"/>
			<point x="404" y="401"/>
			<point x="407" y="426"/>
			<point x="410" y="447" type="curve"/>
			<point x="343" y="447" type="line"/>
			<point x="341" y="428"/>
			<point x="340" y="402"/>
			<point x="341" y="371" type="curve"/>
			<point x="335" y="371" type="line"/>
			<point x="307" y="387"/>
			<point x="250" y="409"/>
			<point x="238" y="409" type="curve"/>
			<point x="209" y="370"/>
			<point x="193" y="351"/>
			<point x="158" y="313" type="curve"/>
			<point x="158" y="324" type="line"/>
			<point x="163" y="399" type="line"/>
			<point x="144" y="409" type="line"/>
			<point x="100" y="393"/>
			<point x="64" y="377"/>
			<point x="25" y="363" type="curve"/>
			<point x="25" y="333" type="line"/>
			<point x="56" y="327"/>
			<point x="64" y="321"/>
			<point x="64" y="282" type="curve"/>
			<point x="64" y="212"/>
			<point x="62" y="105"/>
			<point x="59" y="78" type="curve"/>
			<point x="56" y="53"/>
			<point x="51" y="40"/>
			<point x="36" y="27" type="curve"/>
			<point x="36" y="-3" type="line"/>
			<point x="56" y="-1"/>
			<point x="90" y="0"/>
			<point x="121" y="0" type="curve"/>
			<point x="147" y="0"/>
			<point x="179" y="-1"/>
			<point x="237" y="-3" type="curve"/>
			<point x="237" y="27" type="line"/>
			<point x="181" y="40"/>
			<point x="163" y="43"/>
			<point x="160" y="76" type="curve"/>
			<point x="158" y="98"/>
			<point x="157" y="201"/>
			<point x="157" y="269" type="curve"/>
			<point x="206" y="324"/>
			<point x="241" y="305"/>
			<point x="281" y="268" type="curve"/>
			<point x="285" y="268" type="line"/>
			<point x="310" y="309" type="line"/>
			<point x="320" y="310"/>
			<point x="330" y="310"/>
			<point x="342" y="311" type="curve"/>
			<point x="348" y="156"/>
			<point x="368" y="-66"/>
			<point x="381" y="-186" type="curve"/>
			<point x="421" y="-177" type="line"/>
			<point x="404" y="-59"/>
			<point x="394" y="154"/>
			<point x="399" y="313" type="curve"/>
			<point x="439" y="315"/>
			<point x="476" y="315"/>
		</contour>
	</outline>
</glyph>
<glyph name="t_stroke" format="2">
	<advance width="566"/>
	<unicode hex="A777"/>
	<outline>
		<contour>
			<point x="507" y="327" type="curve"/>
			<point x="581" y="425" type="line"/>
			<point x="563" y="440" type="line"/>
			<point x="521" y="423"/>
			<point x="472" y="416"/>
			<point x="410" y="412" type="curve"/>
			<point x="413" y="568" type="line"/>
			<point x="351" y="560" type="line"/>
			<point x="354" y="410" type="line"/>
			<point x="298" y="409"/>
			<point x="232" y="409"/>
			<point x="153" y="407" type="curve"/>
			<point x="154" y="441"/>
			<point x="157" y="472"/>
			<point x="163" y="509" type="curve"/>
			<point x="138" y="518" type="line"/>
			<point x="107" y="457"/>
			<point x="65" y="430"/>
			<point x="12" y="385" type="curve"/>
			<point x="10" y="351" type="line"/>
			<point x="36" y="347" type="line" smooth="yes"/>
			<point x="51" y="345"/>
			<point x="55" y="330"/>
			<point x="55" y="314" type="curve" smooth="yes"/>
			<point x="55" y="184" type="line" smooth="yes"/>
			<point x="55" y="61"/>
			<point x="67" y="-9"/>
			<point x="182" y="-9" type="curve" smooth="yes"/>
			<point x="263" y="-9"/>
			<point x="321" y="37"/>
			<point x="354" y="67" type="curve"/>
			<point x="351" y="-123" type="line"/>
			<point x="413" y="-105" type="line"/>
			<point x="409" y="44"/>
			<point x="408" y="193"/>
			<point x="409" y="342" type="curve"/>
			<point x="439" y="338"/>
			<point x="471" y="333"/>
		</contour>
		<contour>
			<point x="354" y="88" type="curve"/>
			<point x="350" y="98" type="line"/>
			<point x="311" y="76"/>
			<point x="268" y="62"/>
			<point x="219" y="62" type="curve" smooth="yes"/>
			<point x="154" y="62"/>
			<point x="145" y="108"/>
			<point x="149" y="224" type="curve" smooth="yes"/>
			<point x="151" y="280"/>
			<point x="151" y="322"/>
			<point x="152" y="359" type="curve"/>
			<point x="228" y="361"/>
			<point x="286" y="358"/>
			<point x="354" y="349" type="curve"/>
			<point x="355" y="262"/>
			<point x="355" y="175"/>
		</contour>
	</outline>
</glyph>
<glyph name="n_macr" format="2">
	<advance width="525"/>
	<unicode hex="E5DC"/>
	<anchor x="250" y="630" name="top"/>
	<anchor x="259" y="421" name="_top"/>
	<outline>
		<contour>
			<point x="301" y="530" type="curve"/>
			<point x="301" y="530" type="line"/>
			<point x="423" y="622" type="line"/>
			<point x="424" y="667" type="line"/>
			<point x="415" y="667" type="line"/>
			<point x="371" y="608"/>
			<point x="303" y="617"/>
			<point x="225" y="617" type="curve"/>
			<point x="122" y="541" type="line"/>
			<point x="146" y="531" type="line"/>
			<point x="185" y="547"/>
			<point x="240" y="534"/>
		</contour>
		<contour>
			<point x="474" y="96" type="curve"/>
			<point x="474" y="96" type="line"/>
			<point x="471" y="142"/>
			<point x="468" y="212"/>
			<point x="473" y="307" type="curve"/>
			<point x="476" y="366"/>
			<point x="423" y="410"/>
			<point x="334" y="410" type="curve"/>
			<point x="270" y="410"/>
			<point x="218" y="383"/>
			<point x="158" y="348" type="curve"/>
			<point x="159" y="400" type="line"/>
			<point x="149" y="409" type="line"/>
			<point x="109" y="392"/>
			<point x="67" y="376"/>
			<point x="25" y="363" type="curve"/>
			<point x="25" y="333" type="line"/>
			<point x="56" y="327"/>
			<point x="64" y="321"/>
			<point x="64" y="282" type="curve"/>
			<point x="64" y="212"/>
			<point x="62" y="105"/>
			<point x="59" y="78" type="curve"/>
			<point x="56" y="53"/>
			<point x="51" y="40"/>
			<point x="36" y="27" type="curve"/>
			<point x="36" y="-3" type="line"/>
			<point x="75" y="1"/>
			<point x="142" y="0"/>
			<point x="187" y="-3" type="curve"/>
			<point x="187" y="27" type="line"/>
			<point x="161" y="47"/>
			<point x="163" y="63"/>
			<point x="160" y="96" type="curve"/>
			<point x="157" y="124"/>
			<point x="158" y="253"/>
			<point x="158" y="301" type="curve"/>
			<point x="183" y="325"/>
			<point x="224" y="346"/>
			<point x="279" y="346" type="curve"/>
			<point x="343" y="346"/>
			<point x="385" y="314"/>
			<point x="385" y="223" type="curve"/>
			<point x="385" y="156"/>
			<point x="383" y="55"/>
			<point x="350" y="27" type="curve"/>
			<point x="349" y="-3" type="line"/>
			<point x="402" y="1"/>
			<point x="438" y="0"/>
			<point x="499" y="-3" type="curve"/>
			<point x="500" y="27" type="line"/>
			<point x="479" y="43"/>
			<point x="477" y="56"/>
		</contour>
	</outline>
</glyph>
<glyph name="p_macr" format="2">
	<advance width="517"/>
	<unicode hex="E665"/>
	<anchor x="324" y="633" name="top"/>
	<anchor x="333" y="360" name="_top"/>
	<outline>
		<contour>
			<point x="375" y="502" type="curve"/>
			<point x="375" y="502" type="line"/>
			<point x="512" y="628" type="line"/>
			<point x="487" y="644" type="line"/>
			<point x="403" y="564"/>
			<point x="367" y="612"/>
			<point x="289" y="612" type="curve"/>
			<point x="196" y="517" type="line"/>
			<point x="220" y="504" type="line"/>
			<point x="269" y="528"/>
			<point x="314" y="508"/>
		</contour>
		<contour>
			<point x="35" y="-253" type="curve"/>
			<point x="35" y="-283" type="line"/>
			<point x="50" y="-281"/>
			<point x="97" y="-280"/>
			<point x="114" y="-280" type="curve"/>
			<point x="133" y="-280"/>
			<point x="174" y="-282"/>
			<point x="199" y="-283" type="curve"/>
			<point x="199" y="-253" type="line"/>
			<point x="182" y="-244"/>
			<point x="164" y="-238"/>
			<point x="164" y="-207" type="curve"/>
			<point x="162" y="22" type="line"/>
			<point x="188" y="7"/>
			<point x="224" y="-8"/>
			<point x="270" y="-8" type="curve"/>
			<point x="392" y="-8"/>
			<point x="483" y="97"/>
			<point x="483" y="217" type="curve"/>
			<point x="483" y="327"/>
			<point x="420" y="408"/>
			<point x="320" y="408" type="curve"/>
			<point x="276" y="408"/>
			<point x="210" y="364"/>
			<point x="161" y="328" type="curve"/>
			<point x="164" y="401" type="line"/>
			<point x="152" y="410" type="line"/>
			<point x="107" y="394"/>
			<point x="72" y="381"/>
			<point x="25" y="370" type="curve"/>
			<point x="25" y="340" type="line"/>
			<point x="51" y="330"/>
			<point x="66" y="326"/>
			<point x="71" y="250" type="curve"/>
			<point x="77" y="163"/>
			<point x="74" y="-106"/>
			<point x="69" y="-195" type="curve"/>
			<point x="67" y="-231"/>
			<point x="58" y="-242"/>
		</contour>
		<contour>
			<point x="289" y="40" type="curve"/>
			<point x="289" y="40" type="line"/>
			<point x="204" y="40"/>
			<point x="162" y="117"/>
			<point x="162" y="203" type="curve"/>
			<point x="162" y="299"/>
			<point x="211" y="340"/>
			<point x="260" y="340" type="curve"/>
			<point x="329" y="340"/>
			<point x="386" y="277"/>
			<point x="386" y="177" type="curve"/>
			<point x="386" y="109"/>
			<point x="359" y="40"/>
		</contour>
	</outline>
</glyph>
<glyph name="q_macr" format="2">
	<advance width="534"/>
	<unicode hex="E681"/>
	<anchor x="342" y="634" name="top"/>
	<anchor x="351" y="361" name="_top"/>
	<outline>
		<contour>
			<point x="194" y="481" type="line"/>
			<point x="218" y="468" type="line"/>
			<point x="267" y="482"/>
			<point x="301" y="481"/>
			<point x="362" y="475" type="curve"/>
			<point x="463" y="580" type="line"/>
			<point x="435" y="588" type="line"/>
			<point x="381" y="569"/>
			<point x="325" y="576"/>
			<point x="277" y="576" type="curve"/>
		</contour>
		<contour>
			<point x="339" y="-253" type="curve"/>
			<point x="339" y="-283" type="line"/>
			<point x="374" y="-282"/>
			<point x="415" y="-280"/>
			<point x="434" y="-280" type="curve"/>
			<point x="451" y="-280"/>
			<point x="498" y="-281"/>
			<point x="513" y="-283" type="curve"/>
			<point x="513" y="-253" type="line"/>
			<point x="490" y="-242"/>
			<point x="481" y="-231"/>
			<point x="479" y="-195" type="curve"/>
			<point x="474" y="-106"/>
			<point x="476" y="163"/>
			<point x="482" y="250" type="curve"/>
			<point x="487" y="326"/>
			<point x="498" y="370"/>
			<point x="514" y="422" type="curve"/>
			<point x="485" y="431" type="line"/>
			<point x="465" y="404"/>
			<point x="441" y="378"/>
			<point x="414" y="342" type="curve"/>
			<point x="356" y="382"/>
			<point x="313" y="410"/>
			<point x="242" y="410" type="curve"/>
			<point x="152" y="410"/>
			<point x="30" y="331"/>
			<point x="30" y="201" type="curve"/>
			<point x="30" y="71"/>
			<point x="117" y="-10"/>
			<point x="267" y="-10" type="curve"/>
			<point x="276" y="-10"/>
			<point x="335" y="26"/>
			<point x="390" y="49" type="curve"/>
			<point x="384" y="-207" type="line" smooth="yes"/>
			<point x="383" y="-238"/>
			<point x="366" y="-244"/>
		</contour>
		<contour>
			<point x="278" y="45" type="curve"/>
			<point x="278" y="45" type="line"/>
			<point x="178" y="45"/>
			<point x="130" y="120"/>
			<point x="130" y="211" type="curve"/>
			<point x="130" y="290"/>
			<point x="179" y="360"/>
			<point x="262" y="360" type="curve"/>
			<point x="369" y="360"/>
			<point x="408" y="241"/>
			<point x="390" y="119" type="curve"/>
			<point x="390" y="118" type="line"/>
			<point x="345" y="60"/>
			<point x="301" y="45"/>
		</contour>
	</outline>
</glyph>
<glyph name="A.ss01" format="2">
	<advance width="700"/>
	<outline>
		<contour>
			<point x="680" y="71" type="curve"/>
			<point x="673" y="96" type="line"/>
			<point x="651" y="91"/>
			<point x="645" y="90"/>
			<point x="626" y="90" type="curve"/>
			<point x="589" y="90"/>
			<point x="569" y="204"/>
			<point x="569" y="294" type="curve"/>
			<point x="569" y="431"/>
			<point x="569" y="556"/>
			<point x="612" y="661" type="curve"/>
			<point x="592" y="676" type="line"/>
			<point x="507" y="609" type="line"/>
			<point x="470" y="684"/>
			<point x="409" y="715"/>
			<point x="327" y="715" type="curve"/>
			<point x="181" y="715"/>
			<point x="101" y="586"/>
			<point x="10" y="427" type="curve"/>
			<point x="33" y="413" type="line"/>
			<point x="121" y="544"/>
			<point x="183" y="611"/>
			<point x="302" y="611" type="curve"/>
			<point x="384" y="611"/>
			<point x="458" y="578"/>
			<point x="486" y="517" type="curve"/>
			<point x="485" y="500"/>
			<point x="483" y="483"/>
			<point x="482" y="466" type="curve"/>
			<point x="472" y="457"/>
			<point x="463" y="449"/>
			<point x="453" y="441" type="curve"/>
			<point x="256" y="441" type="line"/>
			<point x="271" y="373" type="line"/>
			<point x="373" y="373" type="line"/>
			<point x="281" y="296"/>
			<point x="205" y="231"/>
			<point x="109" y="121" type="curve"/>
			<point x="109" y="116" type="line"/>
			<point x="156" y="92"/>
			<point x="236" y="26"/>
			<point x="292" y="-10" type="curve"/>
			<point x="295" y="-9" type="line"/>
			<point x="357" y="52"/>
			<point x="424" y="138"/>
			<point x="480" y="242" type="curve"/>
			<point x="483" y="164"/>
			<point x="489" y="96"/>
			<point x="497" y="42" type="curve"/>
			<point x="527" y="23"/>
			<point x="552" y="5"/>
			<point x="591" y="-10" type="curve"/>
			<point x="623" y="18"/>
			<point x="653" y="45"/>
		</contour>
		<contour>
			<point x="310" y="93" type="curve"/>
			<point x="310" y="93" type="line"/>
			<point x="207" y="165" type="line"/>
			<point x="261" y="229"/>
			<point x="337" y="300"/>
			<point x="422" y="373" type="curve"/>
			<point x="479" y="373" type="line"/>
			<point x="478" y="344"/>
			<point x="478" y="317"/>
			<point x="478" y="290" type="curve"/>
			<point x="429" y="210"/>
			<point x="373" y="143"/>
		</contour>
	</outline>
</glyph>
<glyph name="B.ss01" format="2">
	<advance width="886"/>
	<outline>
		<contour>
			<point x="633" y="433" type="curve" smooth="yes"/>
			<point x="602" y="433"/>
			<point x="578" y="428"/>
			<point x="547" y="416" type="curve"/>
			<point x="798" y="605" type="line"/>
			<point x="798" y="619" type="line"/>
			<point x="757" y="643"/>
			<point x="709" y="668"/>
			<point x="651" y="726" type="curve"/>
			<point x="647" y="726" type="line"/>
			<point x="443" y="553" type="line"/>
			<point x="404" y="728" type="line"/>
			<point x="375" y="721" type="line"/>
			<point x="500" y="176" type="line"/>
			<point x="486" y="182"/>
			<point x="472" y="188"/>
			<point x="457" y="193" type="curve"/>
			<point x="328" y="715" type="line"/>
			<point x="300" y="708" type="line"/>
			<point x="429" y="199" type="line"/>
			<point x="372" y="199"/>
			<point x="297" y="192"/>
			<point x="232" y="177" type="curve"/>
			<point x="272" y="288"/>
			<point x="296" y="363"/>
			<point x="296" y="422" type="curve" smooth="yes"/>
			<point x="296" y="521"/>
			<point x="215" y="581"/>
			<point x="157" y="581" type="curve" smooth="yes"/>
			<point x="69" y="581"/>
			<point x="14" y="466"/>
			<point x="52" y="411" type="curve"/>
			<point x="71" y="412" type="line"/>
			<point x="76" y="443"/>
			<point x="94" y="469"/>
			<point x="137" y="469" type="curve" smooth="yes"/>
			<point x="240" y="469"/>
			<point x="257" y="347"/>
			<point x="195" y="166" type="curve"/>
			<point x="161" y="155"/>
			<point x="132" y="141"/>
			<point x="112" y="124" type="curve"/>
			<point x="82" y="-6" type="line"/>
			<point x="105" y="-13" type="line"/>
			<point x="163" y="71"/>
			<point x="261" y="119"/>
			<point x="387" y="119" type="curve" smooth="yes"/>
			<point x="500" y="119"/>
			<point x="556" y="58"/>
			<point x="624" y="-14" type="curve"/>
			<point x="682" y="31"/>
			<point x="866" y="133"/>
			<point x="866" y="258" type="curve" smooth="yes"/>
			<point x="866" y="389"/>
			<point x="758" y="433"/>
		</contour>
		<contour>
			<point x="591" y="621" type="curve"/>
			<point x="610" y="613"/>
			<point x="649" y="588"/>
			<point x="676" y="558" type="curve"/>
			<point x="626" y="511"/>
			<point x="558" y="465"/>
			<point x="476" y="409" type="curve"/>
			<point x="451" y="518" type="line"/>
			<point x="480" y="542"/>
			<point x="558" y="599"/>
		</contour>
		<contour>
			<point x="643" y="71" type="curve"/>
			<point x="607" y="102"/>
			<point x="573" y="133"/>
			<point x="533" y="158" type="curve"/>
			<point x="486" y="365" type="line"/>
			<point x="626" y="425"/>
			<point x="773" y="360"/>
			<point x="773" y="228" type="curve" smooth="yes"/>
			<point x="773" y="144"/>
			<point x="733" y="104"/>
		</contour>
	</outline>
</glyph>
<glyph name="C.ss01" format="2">
	<advance width="705"/>
	<outline>
		<contour>
			<point x="425" y="658" type="curve"/>
			<point x="425" y="658" type="line"/>
			<point x="489" y="658"/>
			<point x="536" y="598"/>
			<point x="575" y="557" type="curve"/>
			<point x="675" y="626" type="line"/>
			<point x="675" y="630" type="line"/>
			<point x="616" y="682"/>
			<point x="550" y="715"/>
			<point x="465" y="715" type="curve"/>
			<point x="424" y="715"/>
			<point x="381" y="700"/>
			<point x="346" y="672" type="curve"/>
			<point x="243" y="669"/>
			<point x="108" y="561"/>
			<point x="108" y="458" type="curve"/>
			<point x="108" y="355"/>
			<point x="188" y="301"/>
			<point x="188" y="207" type="curve"/>
			<point x="188" y="144"/>
			<point x="149" y="88"/>
			<point x="65" y="49" type="curve"/>
			<point x="60" y="-7" type="line"/>
			<point x="258" y="-1"/>
			<point x="420" y="-1"/>
			<point x="601" y="-7" type="curve"/>
			<point x="641" y="89" type="line"/>
			<point x="635" y="92" type="line"/>
			<point x="537" y="69"/>
			<point x="434" y="66"/>
			<point x="334" y="65" type="curve"/>
			<point x="388" y="109"/>
			<point x="491" y="200"/>
			<point x="491" y="288" type="curve"/>
			<point x="491" y="382"/>
			<point x="358" y="475"/>
			<point x="358" y="587" type="curve"/>
			<point x="358" y="632"/>
			<point x="389" y="658"/>
		</contour>
		<contour>
			<point x="388" y="244" type="curve"/>
			<point x="388" y="244" type="line"/>
			<point x="388" y="160"/>
			<point x="315" y="72"/>
			<point x="219" y="64" type="curve"/>
			<point x="153" y="64" type="line"/>
			<point x="223" y="128"/>
			<point x="276" y="165"/>
			<point x="276" y="245" type="curve"/>
			<point x="276" y="321"/>
			<point x="208" y="377"/>
			<point x="208" y="485" type="curve"/>
			<point x="208" y="555"/>
			<point x="249" y="613"/>
			<point x="309" y="632" type="curve"/>
			<point x="290" y="604"/>
			<point x="278" y="570"/>
			<point x="278" y="531" type="curve"/>
			<point x="278" y="439"/>
			<point x="388" y="352"/>
		</contour>
	</outline>
</glyph>
<glyph name="D.ss01" format="2">
	<advance width="1001"/>
	<outline>
		<contour>
			<point x="641" y="709" type="curve" smooth="yes"/>
			<point x="515" y="709"/>
			<point x="415" y="677"/>
			<point x="325" y="677" type="curve" smooth="yes"/>
			<point x="219" y="677"/>
			<point x="170" y="708"/>
			<point x="126" y="788" type="curve"/>
			<point x="101" y="788" type="line"/>
			<point x="62" y="657" type="line"/>
			<point x="94" y="605"/>
			<point x="189" y="576"/>
			<point x="290" y="574" type="curve"/>
			<point x="203" y="520"/>
			<point x="60" y="457"/>
			<point x="60" y="390" type="curve" smooth="yes"/>
			<point x="60" y="309"/>
			<point x="186" y="266"/>
			<point x="186" y="177" type="curve" smooth="yes"/>
			<point x="186" y="134"/>
			<point x="165" y="81"/>
			<point x="133" y="29" type="curve"/>
			<point x="108" y="19"/>
			<point x="84" y="10"/>
			<point x="64" y="1" type="curve"/>
			<point x="63" y="-5" type="line"/>
			<point x="87" y="-39" type="line"/>
			<point x="180" y="1"/>
			<point x="286" y="22"/>
			<point x="390" y="22" type="curve" smooth="yes"/>
			<point x="501" y="22"/>
			<point x="650" y="-21"/>
			<point x="760" y="-15" type="curve"/>
			<point x="842" y="130"/>
			<point x="961" y="209"/>
			<point x="961" y="389" type="curve" smooth="yes"/>
			<point x="961" y="599"/>
			<point x="811" y="709"/>
		</contour>
		<contour>
			<point x="741" y="70" type="curve"/>
			<point x="679" y="61"/>
			<point x="614" y="75"/>
			<point x="545" y="86" type="curve"/>
			<point x="545" y="601" type="line"/>
			<point x="556" y="602"/>
			<point x="568" y="602"/>
			<point x="580" y="602" type="curve" smooth="yes"/>
			<point x="760" y="602"/>
			<point x="852" y="493"/>
			<point x="852" y="333" type="curve" smooth="yes"/>
			<point x="852" y="224"/>
			<point x="803" y="138"/>
		</contour>
		<contour>
			<point x="515" y="325" type="line"/>
			<point x="446" y="395" type="line"/>
			<point x="380" y="325" type="line"/>
			<point x="380" y="578" type="line"/>
			<point x="432" y="583"/>
			<point x="470" y="593"/>
			<point x="515" y="598" type="curve"/>
		</contour>
		<contour>
			<point x="187" y="413" type="curve" smooth="yes"/>
			<point x="187" y="471"/>
			<point x="289" y="537"/>
			<point x="350" y="574" type="curve"/>
			<point x="350" y="90" type="line"/>
			<point x="298" y="82"/>
			<point x="244" y="67"/>
			<point x="195" y="51" type="curve"/>
			<point x="225" y="116"/>
			<point x="247" y="182"/>
			<point x="247" y="234" type="curve" smooth="yes"/>
			<point x="247" y="308"/>
			<point x="187" y="359"/>
		</contour>
		<contour>
			<point x="380" y="94" type="curve"/>
			<point x="380" y="296" type="line"/>
			<point x="451" y="226" type="line"/>
			<point x="515" y="297" type="line"/>
			<point x="515" y="91" type="line"/>
			<point x="489" y="95"/>
			<point x="462" y="97"/>
			<point x="435" y="97" type="curve" smooth="yes"/>
			<point x="417" y="97"/>
			<point x="399" y="96"/>
		</contour>
	</outline>
</glyph>
<glyph name="D.ss02" format="2">
	<advance width="933"/>
	<outline>
		<contour>
			<point x="572" y="716" type="curve" smooth="yes"/>
			<point x="467" y="716"/>
			<point x="369" y="710"/>
			<point x="300" y="710" type="curve" smooth="yes"/>
			<point x="230" y="710"/>
			<point x="153" y="724"/>
			<point x="142" y="765" type="curve"/>
			<point x="122" y="775" type="line"/>
			<point x="45" y="665" type="line"/>
			<point x="96" y="615"/>
			<point x="194" y="602"/>
			<point x="291" y="602" type="curve" smooth="yes"/>
			<point x="308" y="602"/>
			<point x="322" y="603"/>
			<point x="335" y="605" type="curve"/>
			<point x="261" y="564"/>
			<point x="217" y="523"/>
			<point x="182" y="485" type="curve" smooth="yes"/>
			<point x="153" y="453"/>
			<point x="137" y="374"/>
			<point x="137" y="332" type="curve" smooth="yes"/>
			<point x="137" y="134"/>
			<point x="287" y="-10"/>
			<point x="485" y="-10" type="curve" smooth="yes"/>
			<point x="701" y="-10"/>
			<point x="898" y="161"/>
			<point x="898" y="371" type="curve" smooth="yes"/>
			<point x="898" y="569"/>
			<point x="738" y="716"/>
		</contour>
		<contour>
			<point x="250" y="360" type="curve" smooth="yes"/>
			<point x="250" y="454"/>
			<point x="294" y="563"/>
			<point x="405" y="619" type="curve"/>
			<point x="431" y="624"/>
			<point x="462" y="628"/>
			<point x="509" y="628" type="curve"/>
			<point x="494" y="400" type="line"/>
			<point x="419" y="347" type="line"/>
			<point x="485" y="270" type="line"/>
			<point x="471" y="54" type="line"/>
			<point x="348" y="87"/>
			<point x="250" y="215"/>
		</contour>
		<contour>
			<point x="532" y="46" type="curve" smooth="yes"/>
			<point x="521" y="46"/>
			<point x="509" y="47"/>
			<point x="498" y="48" type="curve"/>
			<point x="517" y="276" type="line"/>
			<point x="583" y="326" type="line"/>
			<point x="527" y="393" type="line"/>
			<point x="547" y="626" type="line"/>
			<point x="692" y="609"/>
			<point x="785" y="494"/>
			<point x="785" y="342" type="curve" smooth="yes"/>
			<point x="785" y="182"/>
			<point x="695" y="46"/>
		</contour>
	</outline>
</glyph>
<glyph name="E.ss01" format="2">
	<advance width="811"/>
	<outline>
		<contour>
			<point x="777" y="338" type="curve"/>
			<point x="777" y="338" type="line"/>
			<point x="806" y="426" type="line"/>
			<point x="801" y="432" type="line"/>
			<point x="729" y="411"/>
			<point x="639" y="401"/>
			<point x="567" y="396" type="curve"/>
			<point x="748" y="574" type="line"/>
			<point x="747" y="580" type="line"/>
			<point x="687" y="615"/>
			<point x="626" y="673"/>
			<point x="593" y="718" type="curve"/>
			<point x="588" y="718" type="line"/>
			<point x="466" y="574" type="line"/>
			<point x="467" y="640"/>
			<point x="468" y="692"/>
			<point x="469" y="713" type="curve"/>
			<point x="464" y="719" type="line"/>
			<point x="228" y="710"/>
			<point x="35" y="558"/>
			<point x="35" y="351" type="curve"/>
			<point x="35" y="87"/>
			<point x="279" y="-7"/>
			<point x="397" y="-7" type="curve"/>
			<point x="430" y="-7"/>
			<point x="617" y="81"/>
			<point x="698" y="121" type="curve"/>
			<point x="688" y="157" type="line"/>
			<point x="583" y="116"/>
			<point x="515" y="94"/>
			<point x="468" y="88" type="curve"/>
			<point x="467" y="128"/>
			<point x="466" y="216"/>
			<point x="465" y="314" type="curve"/>
			<point x="541" y="328"/>
			<point x="693" y="319"/>
		</contour>
		<contour>
			<point x="316" y="115" type="curve"/>
			<point x="316" y="115" type="line"/>
			<point x="343" y="157"/>
			<point x="370" y="196"/>
			<point x="397" y="230" type="curve"/>
			<point x="390" y="362"/>
			<point x="388" y="540"/>
			<point x="393" y="662" type="curve"/>
			<point x="407" y="663"/>
			<point x="421" y="664"/>
			<point x="436" y="664" type="curve"/>
			<point x="440" y="594"/>
			<point x="440" y="222"/>
			<point x="437" y="87" type="curve"/>
			<point x="394" y="88"/>
			<point x="353" y="98"/>
		</contour>
		<contour>
			<point x="138" y="378" type="curve"/>
			<point x="138" y="378" type="line"/>
			<point x="138" y="505"/>
			<point x="208" y="601"/>
			<point x="314" y="642" type="curve"/>
			<point x="324" y="506"/>
			<point x="321" y="389"/>
			<point x="317" y="266" type="curve"/>
			<point x="316" y="232"/>
			<point x="309" y="187"/>
			<point x="285" y="130" type="curve"/>
			<point x="197" y="182"/>
			<point x="138" y="274"/>
		</contour>
		<contour>
			<point x="466" y="529" type="curve"/>
			<point x="532" y="590" type="line"/>
			<point x="552" y="558"/>
			<point x="590" y="522"/>
			<point x="617" y="497" type="curve"/>
			<point x="465" y="334" type="line"/>
			<point x="465" y="399"/>
			<point x="465" y="468"/>
		</contour>
	</outline>
</glyph>
<glyph name="F.ss01" format="2">
	<advance width="696"/>
	<outline>
		<contour>
			<point x="517" y="387" type="curve" smooth="yes"/>
			<point x="502" y="387"/>
			<point x="488" y="386"/>
			<point x="473" y="386" type="curve"/>
			<point x="468" y="441"/>
			<point x="462" y="499"/>
			<point x="462" y="563" type="curve" smooth="yes"/>
			<point x="462" y="628"/>
			<point x="473" y="662"/>
			<point x="516" y="662" type="curve" smooth="yes"/>
			<point x="547" y="662"/>
			<point x="570" y="641"/>
			<point x="604" y="605" type="curve"/>
			<point x="608" y="605" type="line"/>
			<point x="676" y="672" type="line"/>
			<point x="648" y="701"/>
			<point x="578" y="716"/>
			<point x="536" y="716" type="curve" smooth="yes"/>
			<point x="486" y="716"/>
			<point x="434" y="700"/>
			<point x="401" y="658" type="curve"/>
			<point x="376" y="666"/>
			<point x="356" y="667"/>
			<point x="336" y="667" type="curve" smooth="yes"/>
			<point x="246" y="667"/>
			<point x="171" y="599"/>
			<point x="171" y="471" type="curve" smooth="yes"/>
			<point x="171" y="445"/>
			<point x="174" y="412"/>
			<point x="178" y="376" type="curve"/>
			<point x="170" y="376"/>
			<point x="163" y="375"/>
			<point x="155" y="375" type="curve" smooth="yes"/>
			<point x="80" y="371"/>
			<point x="35" y="334"/>
			<point x="10" y="262" type="curve"/>
			<point x="32" y="252" type="line"/>
			<point x="49" y="292"/>
			<point x="86" y="307"/>
			<point x="186" y="309" type="curve"/>
			<point x="193" y="250"/>
			<point x="200" y="192"/>
			<point x="200" y="155" type="curve" smooth="yes"/>
			<point x="200" y="2"/>
			<point x="160" y="-42"/>
			<point x="40" y="-66" type="curve"/>
			<point x="45" y="-89" type="line"/>
			<point x="217" y="-65"/>
			<point x="291" y="31"/>
			<point x="291" y="155" type="curve" smooth="yes"/>
			<point x="291" y="194"/>
			<point x="285" y="251"/>
			<point x="279" y="309" type="curve"/>
			<point x="391" y="309" type="line"/>
			<point x="397" y="257"/>
			<point x="403" y="206"/>
			<point x="401" y="139" type="curve" smooth="yes"/>
			<point x="400" y="100"/>
			<point x="395" y="63"/>
			<point x="380" y="16" type="curve"/>
			<point x="402" y="8" type="line"/>
			<point x="409" y="23"/>
			<point x="414" y="35"/>
			<point x="423" y="35" type="curve" smooth="yes"/>
			<point x="453" y="35"/>
			<point x="483" y="11"/>
			<point x="518" y="-9" type="curve"/>
			<point x="553" y="15"/>
			<point x="591" y="42"/>
			<point x="636" y="65" type="curve"/>
			<point x="622" y="88" type="line"/>
			<point x="604" y="80"/>
			<point x="578" y="80"/>
			<point x="564" y="80" type="curve" smooth="yes"/>
			<point x="522" y="80"/>
			<point x="493" y="101"/>
			<point x="444" y="111" type="curve"/>
			<point x="454" y="161"/>
			<point x="479" y="214"/>
			<point x="479" y="276" type="curve" smooth="yes"/>
			<point x="479" y="287"/>
			<point x="479" y="298"/>
			<point x="478" y="309" type="curve"/>
			<point x="643" y="309" type="line"/>
			<point x="644" y="338"/>
			<point x="643" y="359"/>
			<point x="649" y="411" type="curve"/>
			<point x="625" y="415" type="line"/>
			<point x="608" y="394"/>
			<point x="592" y="389"/>
		</contour>
		<contour>
			<point x="272" y="380" type="line"/>
			<point x="268" y="420"/>
			<point x="265" y="457"/>
			<point x="265" y="482" type="curve" smooth="yes"/>
			<point x="265" y="569"/>
			<point x="299" y="630"/>
			<point x="384" y="630" type="curve"/>
			<point x="375" y="609"/>
			<point x="370" y="585"/>
			<point x="370" y="555" type="curve" smooth="yes"/>
			<point x="370" y="485"/>
			<point x="375" y="432"/>
			<point x="381" y="383" type="curve"/>
		</contour>
	</outline>
</glyph>
<glyph name="G.ss01" format="2">
	<advance width="763"/>
	<outline>
		<contour>
			<point x="497" y="484" type="curve" smooth="yes"/>
			<point x="480" y="484"/>
			<point x="410" y="394"/>
			<point x="350" y="318" type="curve"/>
			<point x="352" y="332"/>
			<point x="353" y="346"/>
			<point x="353" y="360" type="curve" smooth="yes"/>
			<point x="353" y="439"/>
			<point x="304" y="496"/>
			<point x="304" y="559" type="curve" smooth="yes"/>
			<point x="304" y="592"/>
			<point x="310" y="612"/>
			<point x="337" y="635" type="curve"/>
			<point x="391" y="604"/>
			<point x="447" y="530"/>
			<point x="461" y="530" type="curve" smooth="yes"/>
			<point x="527" y="530"/>
			<point x="594" y="582"/>
			<point x="670" y="662" type="curve"/>
			<point x="670" y="667" type="line"/>
			<point x="586" y="689" type="line"/>
			<point x="576" y="660"/>
			<point x="560" y="595"/>
			<point x="526" y="595" type="curve" smooth="yes"/>
			<point x="495" y="595"/>
			<point x="437" y="639"/>
			<point x="437" y="674" type="curve" smooth="yes"/>
			<point x="437" y="689"/>
			<point x="450" y="696"/>
			<point x="459" y="703" type="curve"/>
			<point x="459" y="707" type="line"/>
			<point x="415" y="717" type="line"/>
			<point x="335" y="689"/>
			<point x="56" y="530"/>
			<point x="56" y="447" type="curve" smooth="yes"/>
			<point x="56" y="390"/>
			<point x="137" y="302"/>
			<point x="137" y="217" type="curve" smooth="yes"/>
			<point x="137" y="122"/>
			<point x="90" y="76"/>
			<point x="50" y="13" type="curve"/>
			<point x="69" y="-9" type="line"/>
			<point x="113" y="26"/>
			<point x="188" y="39"/>
			<point x="241" y="39" type="curve" smooth="yes"/>
			<point x="369" y="39"/>
			<point x="488" y="-14"/>
			<point x="497" y="-9" type="curve" smooth="yes"/>
			<point x="629" y="64"/>
			<point x="743" y="172"/>
			<point x="743" y="297" type="curve" smooth="yes"/>
			<point x="743" y="431"/>
			<point x="634" y="484"/>
		</contour>
		<contour>
			<point x="160" y="465" type="curve" smooth="yes"/>
			<point x="160" y="516"/>
			<point x="178" y="538"/>
			<point x="223" y="571" type="curve"/>
			<point x="220" y="561"/>
			<point x="219" y="558"/>
			<point x="219" y="544" type="curve" smooth="yes"/>
			<point x="219" y="483"/>
			<point x="269" y="413"/>
			<point x="269" y="322" type="curve" smooth="yes"/>
			<point x="269" y="254"/>
			<point x="246" y="178"/>
			<point x="162" y="128" type="curve"/>
			<point x="199" y="182"/>
			<point x="206" y="232"/>
			<point x="206" y="276" type="curve" smooth="yes"/>
			<point x="206" y="336"/>
			<point x="160" y="405"/>
		</contour>
		<contour>
			<point x="546" y="80" type="curve" smooth="yes"/>
			<point x="512" y="80"/>
			<point x="378" y="119"/>
			<point x="310" y="119" type="curve" smooth="yes"/>
			<point x="262" y="119"/>
			<point x="235" y="119"/>
			<point x="181" y="98" type="curve"/>
			<point x="229" y="129"/>
			<point x="266" y="162"/>
			<point x="293" y="195" type="curve" smooth="yes"/>
			<point x="296" y="199" type="line" smooth="yes"/>
			<point x="300" y="204"/>
			<point x="303" y="209"/>
			<point x="307" y="213" type="curve"/>
			<point x="385" y="320"/>
			<point x="446" y="390"/>
			<point x="516" y="390" type="curve" smooth="yes"/>
			<point x="586" y="390"/>
			<point x="635" y="335"/>
			<point x="635" y="250" type="curve" smooth="yes"/>
			<point x="635" y="146"/>
			<point x="559" y="80"/>
		</contour>
	</outline>
</glyph>
<glyph name="H.ss01" format="2">
	<advance width="890"/>
	<outline>
		<contour>
			<point x="612" y="659" type="curve"/>
			<point x="612" y="659" type="line"/>
			<point x="525" y="659"/>
			<point x="452" y="589"/>
			<point x="408" y="513" type="curve"/>
			<point x="409" y="707" type="line"/>
			<point x="310" y="697"/>
			<point x="100" y="728"/>
			<point x="53" y="611" type="curve"/>
			<point x="45" y="511" type="line"/>
			<point x="74" y="511" type="line"/>
			<point x="121" y="596"/>
			<point x="171" y="627"/>
			<point x="233" y="639" type="curve"/>
			<point x="227" y="424" type="line"/>
			<point x="145" y="372" type="line"/>
			<point x="145" y="369" type="line"/>
			<point x="177" y="359"/>
			<point x="201" y="344"/>
			<point x="221" y="322" type="curve"/>
			<point x="145" y="271" type="line"/>
			<point x="146" y="267" type="line"/>
			<point x="178" y="258"/>
			<point x="230" y="224"/>
			<point x="235" y="202" type="curve"/>
			<point x="239" y="186"/>
			<point x="245" y="139"/>
			<point x="220" y="92" type="curve"/>
			<point x="189" y="81"/>
			<point x="150" y="62"/>
			<point x="115" y="37" type="curve"/>
			<point x="115" y="33" type="line"/>
			<point x="202" y="-19" type="line"/>
			<point x="239" y="3"/>
			<point x="272" y="15"/>
			<point x="313" y="15" type="curve"/>
			<point x="356" y="15"/>
			<point x="404" y="-5"/>
			<point x="449" y="-19" type="curve"/>
			<point x="452" y="-19" type="line"/>
			<point x="498" y="0"/>
			<point x="578" y="81"/>
			<point x="629" y="130" type="curve"/>
			<point x="613" y="158" type="line"/>
			<point x="556" y="105"/>
			<point x="501" y="66"/>
			<point x="477" y="66" type="curve"/>
			<point x="458" y="66"/>
			<point x="432" y="72"/>
			<point x="404" y="79" type="curve"/>
			<point x="407" y="446" type="line"/>
			<point x="446" y="524"/>
			<point x="494" y="583"/>
			<point x="567" y="583" type="curve"/>
			<point x="681" y="583"/>
			<point x="751" y="429"/>
			<point x="751" y="297" type="curve"/>
			<point x="751" y="184"/>
			<point x="721" y="102"/>
			<point x="652" y="-3" type="curve"/>
			<point x="684" y="-19" type="line"/>
			<point x="773" y="122"/>
			<point x="845" y="215"/>
			<point x="845" y="383" type="curve"/>
			<point x="845" y="525"/>
			<point x="753" y="659"/>
		</contour>
		<contour>
			<point x="269" y="104" type="curve"/>
			<point x="269" y="104" type="line"/>
			<point x="293" y="144"/>
			<point x="318" y="178"/>
			<point x="318" y="246" type="curve"/>
			<point x="318" y="645" type="line"/>
			<point x="381" y="645" type="line"/>
			<point x="381" y="85" type="line"/>
			<point x="344" y="94"/>
			<point x="304" y="104"/>
		</contour>
		<contour>
			<point x="561" y="416" type="line"/>
			<point x="485" y="336" type="line"/>
			<point x="566" y="257" type="line"/>
			<point x="638" y="338" type="line"/>
		</contour>
	</outline>
</glyph>
<glyph name="L.ss01" format="2">
	<advance width="864"/>
	<outline>
		<contour>
			<point x="849" y="91" type="line"/>
			<point x="827" y="110" type="line"/>
			<point x="788" y="84"/>
			<point x="782" y="80"/>
			<point x="735" y="83" type="curve"/>
			<point x="698" y="86"/>
			<point x="638" y="96"/>
			<point x="576" y="106" type="curve"/>
			<point x="585" y="658" type="line"/>
			<point x="624" y="671"/>
			<point x="670" y="680"/>
			<point x="729" y="683" type="curve"/>
			<point x="730" y="709" type="line"/>
			<point x="569" y="713"/>
			<point x="541" y="688"/>
			<point x="412" y="681" type="curve"/>
			<point x="322" y="676"/>
			<point x="210" y="694"/>
			<point x="144" y="703" type="curve"/>
			<point x="104" y="686"/>
			<point x="45" y="604"/>
			<point x="30" y="524" type="curve"/>
			<point x="57" y="518" type="line"/>
			<point x="74" y="561"/>
			<point x="103" y="619"/>
			<point x="146" y="619" type="curve"/>
			<point x="212" y="619"/>
			<point x="275" y="599"/>
			<point x="363" y="593" type="curve"/>
			<point x="365" y="543"/>
			<point x="366" y="499"/>
			<point x="368" y="459" type="curve"/>
			<point x="261" y="399" type="line"/>
			<point x="261" y="396" type="line"/>
			<point x="300" y="383"/>
			<point x="345" y="373"/>
			<point x="371" y="343" type="curve"/>
			<point x="371" y="336" type="line"/>
			<point x="261" y="275" type="line"/>
			<point x="262" y="272" type="line"/>
			<point x="294" y="262"/>
			<point x="326" y="258"/>
			<point x="372" y="236" type="curve"/>
			<point x="372" y="186"/>
			<point x="371" y="151"/>
			<point x="368" y="122" type="curve"/>
			<point x="327" y="115"/>
			<point x="288" y="98"/>
			<point x="263" y="81" type="curve"/>
			<point x="257" y="-7" type="line"/>
			<point x="273" y="-7" type="line"/>
			<point x="294" y="25"/>
			<point x="360" y="47"/>
			<point x="408" y="47" type="curve"/>
			<point x="502" y="47"/>
			<point x="671" y="4"/>
			<point x="734" y="-15" type="curve"/>
		</contour>
		<contour>
			<point x="556" y="647" type="curve"/>
			<point x="547" y="111" type="line"/>
			<point x="520" y="115"/>
			<point x="492" y="119"/>
			<point x="467" y="121" type="curve"/>
			<point x="461" y="291"/>
			<point x="459" y="463"/>
			<point x="459" y="602" type="curve"/>
			<point x="485" y="614"/>
			<point x="516" y="631"/>
		</contour>
	</outline>
</glyph>
<glyph name="M.ss01" format="2">
	<advance width="1200"/>
	<outline>
		<contour>
			<point x="1170" y="427" type="curve" smooth="yes"/>
			<point x="1170" y="575"/>
			<point x="1066" y="707"/>
			<point x="868" y="707" type="curve" smooth="yes"/>
			<point x="734" y="707"/>
			<point x="658" y="632"/>
			<point x="609" y="517" type="curve"/>
			<point x="574" y="620"/>
			<point x="490" y="707"/>
			<point x="348" y="707" type="curve" smooth="yes"/>
			<point x="174" y="707"/>
			<point x="30" y="547"/>
			<point x="30" y="321" type="curve" smooth="yes"/>
			<point x="30" y="161"/>
			<point x="116" y="-6"/>
			<point x="315" y="-6" type="curve" smooth="yes"/>
			<point x="330" y="-6"/>
			<point x="435" y="67"/>
			<point x="509" y="110" type="curve"/>
			<point x="499" y="79"/>
			<point x="486" y="43"/>
			<point x="470" y="-2" type="curve"/>
			<point x="474" y="-9" type="line"/>
			<point x="533" y="-20"/>
			<point x="599" y="-62"/>
			<point x="639" y="-87" type="curve"/>
			<point x="752" y="17" type="line"/>
			<point x="730" y="33" type="line"/>
			<point x="665" y="7"/>
			<point x="640" y="34"/>
			<point x="547" y="65" type="curve"/>
			<point x="567" y="108"/>
			<point x="591" y="173"/>
			<point x="608" y="247" type="curve"/>
			<point x="1026" y="247" type="line"/>
			<point x="988" y="150"/>
			<point x="925" y="67"/>
			<point x="925" y="4" type="curve"/>
			<point x="935" y="-34"/>
			<point x="948" y="-80"/>
			<point x="986" y="-128" type="curve"/>
			<point x="1018" y="-106" type="line"/>
			<point x="1000" y="-77"/>
			<point x="978" y="-34"/>
			<point x="978" y="4" type="curve" smooth="yes"/>
			<point x="978" y="85"/>
			<point x="1170" y="224"/>
		</contour>
		<contour>
			<point x="323" y="633" type="curve" smooth="yes"/>
			<point x="436" y="633"/>
			<point x="510" y="523"/>
			<point x="533" y="385" type="curve"/>
			<point x="132" y="385" type="line"/>
			<point x="141" y="527"/>
			<point x="203" y="633"/>
		</contour>
		<contour>
			<point x="831" y="617" type="curve" smooth="yes"/>
			<point x="966" y="617"/>
			<point x="1051" y="517"/>
			<point x="1054" y="386" type="curve"/>
			<point x="627" y="386" type="line"/>
			<point x="627" y="404" type="line" smooth="yes"/>
			<point x="627" y="424"/>
			<point x="625" y="444"/>
			<point x="622" y="464" type="curve"/>
			<point x="674" y="563"/>
			<point x="732" y="617"/>
		</contour>
		<contour>
			<point x="613" y="270" type="line"/>
			<point x="619" y="300"/>
			<point x="623" y="331"/>
			<point x="626" y="363" type="curve"/>
			<point x="1053" y="363" type="line"/>
			<point x="1052" y="331"/>
			<point x="1044" y="300"/>
			<point x="1034" y="270" type="curve"/>
		</contour>
		<contour>
			<point x="540" y="296" type="curve" smooth="yes"/>
			<point x="540" y="269" type="line"/>
			<point x="138" y="269" type="line"/>
			<point x="133" y="293"/>
			<point x="131" y="319"/>
			<point x="131" y="348" type="curve" smooth="yes"/>
			<point x="131" y="362" type="line"/>
			<point x="536" y="362" type="line"/>
			<point x="539" y="341"/>
			<point x="540" y="318"/>
		</contour>
		<contour>
			<point x="523" y="155" type="curve"/>
			<point x="467" y="113"/>
			<point x="413" y="83"/>
			<point x="326" y="83" type="curve" smooth="yes"/>
			<point x="246" y="83"/>
			<point x="171" y="135"/>
			<point x="143" y="246" type="curve"/>
			<point x="538" y="246" type="line"/>
			<point x="536" y="213"/>
			<point x="531" y="185"/>
		</contour>
	</outline>
</glyph>
<glyph name="O.ss01" format="2">
	<advance width="824"/>
	<outline>
		<contour>
			<point x="35" y="337" type="curve" smooth="yes"/>
			<point x="35" y="141"/>
			<point x="185" y="-10"/>
			<point x="389" y="-10" type="curve" smooth="yes"/>
			<point x="593" y="-10"/>
			<point x="789" y="151"/>
			<point x="789" y="358" type="curve" smooth="yes"/>
			<point x="789" y="554"/>
			<point x="649" y="709"/>
			<point x="436" y="709" type="curve" smooth="yes"/>
			<point x="235" y="709"/>
			<point x="35" y="547"/>
		</contour>
		<contour>
			<point x="146" y="346" type="curve" smooth="yes"/>
			<point x="146" y="525"/>
			<point x="262" y="663"/>
			<point x="432" y="663" type="curve"/>
			<point x="404" y="386" type="line"/>
			<point x="330" y="333" type="line"/>
			<point x="388" y="254" type="line"/>
			<point x="367" y="39" type="line"/>
			<point x="225" y="63"/>
			<point x="146" y="185"/>
		</contour>
		<contour>
			<point x="392" y="36" type="curve"/>
			<point x="417" y="255" type="line"/>
			<point x="492" y="314" type="line"/>
			<point x="432" y="386" type="line"/>
			<point x="463" y="660" type="line"/>
			<point x="588" y="638"/>
			<point x="676" y="522"/>
			<point x="676" y="349" type="curve" smooth="yes"/>
			<point x="676" y="155"/>
			<point x="577" y="25"/>
		</contour>
	</outline>
</glyph>
<glyph name="P.ss01" format="2">
	<advance width="1035"/>
	<outline>
		<contour>
			<point x="285" y="653" type="curve"/>
			<point x="239" y="680"/>
			<point x="185" y="700"/>
			<point x="116" y="708" type="curve"/>
			<point x="45" y="608" type="line"/>
			<point x="67" y="590" type="line"/>
			<point x="103" y="616"/>
			<point x="158" y="612"/>
			<point x="178" y="584" type="curve"/>
			<point x="178" y="448"/>
			<point x="178" y="317"/>
			<point x="177" y="200" type="curve"/>
			<point x="135" y="167"/>
			<point x="104" y="150"/>
			<point x="62" y="121" type="curve"/>
			<point x="77" y="82" type="line"/>
			<point x="115" y="100"/>
			<point x="147" y="112"/>
			<point x="176" y="117" type="curve"/>
			<point x="175" y="-43"/>
			<point x="173" y="-169"/>
			<point x="169" y="-235" type="curve"/>
			<point x="287" y="-235" type="line"/>
			<point x="277" y="61"/>
			<point x="277" y="357"/>
		</contour>
		<contour>
			<point x="685" y="708" type="curve" smooth="yes"/>
			<point x="572" y="708"/>
			<point x="490" y="664"/>
			<point x="422" y="561" type="curve"/>
			<point x="422" y="650" type="line"/>
			<point x="380" y="650" type="line"/>
			<point x="380" y="-234" type="line"/>
			<point x="422" y="-234" type="line"/>
			<point x="422" y="98" type="line"/>
			<point x="487" y="53"/>
			<point x="547" y="11"/>
			<point x="644" y="-7" type="curve"/>
			<point x="771" y="13"/>
			<point x="1000" y="175"/>
			<point x="1000" y="383" type="curve" smooth="yes"/>
			<point x="1000" y="576"/>
			<point x="888" y="708"/>
		</contour>
		<contour>
			<point x="670" y="90" type="curve" smooth="yes"/>
			<point x="590" y="90"/>
			<point x="493" y="155"/>
			<point x="422" y="219" type="curve"/>
			<point x="422" y="499" type="line"/>
			<point x="486" y="580"/>
			<point x="554" y="610"/>
			<point x="662" y="610" type="curve" smooth="yes"/>
			<point x="830" y="610"/>
			<point x="906" y="483"/>
			<point x="906" y="360" type="curve" smooth="yes"/>
			<point x="906" y="194"/>
			<point x="786" y="90"/>
		</contour>
		<contour>
			<point x="555" y="359" type="line"/>
			<point x="631" y="269" type="line"/>
			<point x="721" y="338" type="line"/>
			<point x="648" y="425" type="line"/>
		</contour>
	</outline>
</glyph>
<glyph name="Q.ss01" format="2">
	<advance width="847"/>
	<outline>
		<contour>
			<point x="640" y="82" type="curve"/>
			<point x="704" y="160"/>
			<point x="802" y="272"/>
			<point x="802" y="389" type="curve" smooth="yes"/>
			<point x="802" y="558"/>
			<point x="647" y="709"/>
			<point x="451" y="709" type="curve" smooth="yes"/>
			<point x="191" y="709"/>
			<point x="35" y="533"/>
			<point x="35" y="323" type="curve" smooth="yes"/>
			<point x="35" y="122"/>
			<point x="163" y="-6"/>
			<point x="311" y="-6" type="curve" smooth="yes"/>
			<point x="387" y="-6"/>
			<point x="445" y="6"/>
			<point x="489" y="29" type="curve"/>
			<point x="516" y="61"/>
			<point x="558" y="100"/>
			<point x="594" y="157" type="curve"/>
			<point x="571" y="168" type="line"/>
			<point x="543" y="139"/>
			<point x="490" y="115"/>
			<point x="434" y="103" type="curve"/>
			<point x="373" y="289" type="line"/>
			<point x="417" y="364" type="line"/>
			<point x="335" y="408" type="line"/>
			<point x="275" y="591" type="line"/>
			<point x="314" y="607"/>
			<point x="357" y="616"/>
			<point x="403" y="616" type="curve" smooth="yes"/>
			<point x="562" y="616"/>
			<point x="687" y="524"/>
			<point x="687" y="345" type="curve" smooth="yes"/>
			<point x="687" y="198"/>
			<point x="596" y="75"/>
			<point x="539" y="16" type="curve"/>
			<point x="546" y="-8" type="line"/>
			<point x="614" y="4"/>
			<point x="663" y="2"/>
			<point x="752" y="-8" type="curve"/>
			<point x="800" y="98" type="line"/>
			<point x="778" y="107" type="line"/>
			<point x="739" y="80"/>
			<point x="703" y="82"/>
		</contour>
		<contour>
			<point x="307" y="397" type="line"/>
			<point x="260" y="322" type="line"/>
			<point x="347" y="277" type="line"/>
			<point x="406" y="97" type="line"/>
			<point x="385" y="94"/>
			<point x="364" y="92"/>
			<point x="344" y="92" type="curve" smooth="yes"/>
			<point x="204" y="92"/>
			<point x="94" y="162"/>
			<point x="94" y="320" type="curve" smooth="yes"/>
			<point x="94" y="432"/>
			<point x="154" y="528"/>
			<point x="248" y="579" type="curve"/>
		</contour>
	</outline>
</glyph>
<glyph name="Q.ss02" format="2">
	<advance width="1034"/>
	<outline>
		<contour>
			<point x="1026" y="79" type="line"/>
			<point x="888" y="-8"/>
			<point x="721" y="-5"/>
			<point x="614" y="53" type="curve"/>
			<point x="722" y="125"/>
			<point x="787" y="249"/>
			<point x="773" y="386" type="curve" smooth="yes"/>
			<point x="751" y="595"/>
			<point x="572" y="729"/>
			<point x="370" y="708" type="curve" smooth="yes"/>
			<point x="168" y="686"/>
			<point x="16" y="514"/>
			<point x="37" y="313" type="curve" smooth="yes"/>
			<point x="59" y="104"/>
			<point x="238" y="-30"/>
			<point x="440" y="-9" type="curve" smooth="yes"/>
			<point x="452" y="-8"/>
			<point x="464" y="-6"/>
			<point x="476" y="-4" type="curve"/>
			<point x="612" y="-68"/>
			<point x="773" y="-80"/>
			<point x="883" y="-52" type="curve"/>
			<point x="925" y="-27"/>
			<point x="970" y="0"/>
			<point x="1044" y="56" type="curve"/>
		</contour>
		<contour>
			<point x="153" y="347" type="curve" smooth="yes"/>
			<point x="137" y="497"/>
			<point x="196" y="649"/>
			<point x="366" y="667" type="curve" smooth="yes"/>
			<point x="527" y="684"/>
			<point x="639" y="528"/>
			<point x="657" y="355" type="curve" smooth="yes"/>
			<point x="673" y="205"/>
			<point x="613" y="50"/>
			<point x="442" y="32" type="curve" smooth="yes"/>
			<point x="279" y="14"/>
			<point x="171" y="174"/>
		</contour>
	</outline>
</glyph>
<glyph name="Q_u" format="2">
	<advance width="1319"/>
	<outline>
		<contour>
			<point x="1294" y="0" type="line"/>
			<point x="1294" y="35" type="line"/>
			<point x="1275" y="45"/>
			<point x="1268" y="60"/>
			<point x="1265" y="105" type="curve" smooth="yes"/>
			<point x="1261" y="158"/>
			<point x="1258" y="248"/>
			<point x="1258" y="311" type="curve" smooth="yes"/>
			<point x="1258" y="339"/>
			<point x="1269" y="376"/>
			<point x="1274" y="399" type="curve"/>
			<point x="1264" y="409" type="line"/>
			<point x="1220" y="403"/>
			<point x="1164" y="400"/>
			<point x="1098" y="399" type="curve"/>
			<point x="1098" y="369" type="line"/>
			<point x="1136" y="369"/>
			<point x="1169" y="353"/>
			<point x="1169" y="313" type="curve" smooth="yes"/>
			<point x="1169" y="119" type="line"/>
			<point x="1167" y="101" type="line"/>
			<point x="1144" y="66"/>
			<point x="1111" y="49"/>
			<point x="1078" y="49" type="curve" smooth="yes"/>
			<point x="1010" y="49"/>
			<point x="995" y="98"/>
			<point x="990" y="153" type="curve" smooth="yes"/>
			<point x="986" y="199"/>
			<point x="986" y="283"/>
			<point x="989" y="326" type="curve" smooth="yes"/>
			<point x="991" y="354"/>
			<point x="996" y="361"/>
			<point x="1014" y="373" type="curve"/>
			<point x="1015" y="403" type="line"/>
			<point x="954" y="398"/>
			<point x="900" y="401"/>
			<point x="821" y="403" type="curve"/>
			<point x="794" y="584"/>
			<point x="632" y="710"/>
			<point x="435" y="710" type="curve" smooth="yes"/>
			<point x="219" y="710"/>
			<point x="40" y="554"/>
			<point x="40" y="352" type="curve" smooth="yes"/>
			<point x="40" y="157"/>
			<point x="191" y="11"/>
			<point x="385" y="-8" type="curve"/>
			<point x="656" y="-234"/>
			<point x="931" y="-297"/>
			<point x="1228" y="-222" type="curve"/>
			<point x="1218" y="-190" type="line"/>
			<point x="936" y="-255"/>
			<point x="691" y="-149"/>
			<point x="553" y="8" type="curve"/>
			<point x="710" y="54"/>
			<point x="825" y="186"/>
			<point x="825" y="348" type="curve" smooth="yes"/>
			<point x="825" y="356"/>
			<point x="825" y="364"/>
			<point x="824" y="371" type="curve"/>
			<point x="885" y="362"/>
			<point x="888" y="353"/>
			<point x="890" y="326" type="curve" smooth="yes"/>
			<point x="893" y="280"/>
			<point x="896" y="185"/>
			<point x="895" y="119" type="curve" smooth="yes"/>
			<point x="894" y="41"/>
			<point x="921" y="-10"/>
			<point x="1040" y="-10" type="curve" smooth="yes"/>
			<point x="1065" y="-10"/>
			<point x="1110" y="13"/>
			<point x="1164" y="45" type="curve"/>
			<point x="1164" y="0" type="line"/>
		</contour>
		<contour>
			<point x="435" y="30" type="curve" smooth="yes"/>
			<point x="426" y="30"/>
			<point x="418" y="30"/>
			<point x="409" y="31" type="curve" smooth="yes"/>
			<point x="395" y="33" type="line" smooth="yes"/>
			<point x="247" y="57"/>
			<point x="164" y="214"/>
			<point x="164" y="374" type="curve" smooth="yes"/>
			<point x="164" y="525"/>
			<point x="244" y="670"/>
			<point x="426" y="670" type="curve" smooth="yes"/>
			<point x="598" y="670"/>
			<point x="708" y="504"/>
			<point x="708" y="340" type="curve" smooth="yes"/>
			<point x="708" y="169"/>
			<point x="618" y="30"/>
		</contour>
	</outline>
</glyph>
<glyph name="R.ss01" format="2">
	<advance width="728"/>
	<outline>
		<contour>
			<point x="698" y="73" type="line"/>
			<point x="677" y="94" type="line"/>
			<point x="660" y="83"/>
			<point x="656" y="83"/>
			<point x="638" y="83" type="curve"/>
			<point x="609" y="83"/>
			<point x="591" y="135"/>
			<point x="578" y="223" type="curve"/>
			<point x="564" y="320"/>
			<point x="508" y="400"/>
			<point x="420" y="409" type="curve"/>
			<point x="517" y="446"/>
			<point x="589" y="498"/>
			<point x="589" y="580" type="curve"/>
			<point x="589" y="660"/>
			<point x="535" y="710"/>
			<point x="423" y="710" type="curve"/>
			<point x="266" y="710"/>
			<point x="90" y="546"/>
			<point x="31" y="513" type="curve"/>
			<point x="30" y="440" type="line"/>
			<point x="36" y="438" type="line"/>
			<point x="78" y="466"/>
			<point x="115" y="497"/>
			<point x="149" y="526" type="curve"/>
			<point x="121" y="123" type="line" smooth="yes"/>
			<point x="118" y="74"/>
			<point x="94" y="36"/>
			<point x="72" y="14" type="curve"/>
			<point x="86" y="-13" type="line"/>
			<point x="122" y="9"/>
			<point x="156" y="21"/>
			<point x="197" y="21" type="curve"/>
			<point x="231" y="21"/>
			<point x="279" y="1"/>
			<point x="323" y="-13" type="curve"/>
			<point x="326" y="-13" type="line"/>
			<point x="367" y="21"/>
			<point x="429" y="75"/>
			<point x="457" y="103" type="curve"/>
			<point x="441" y="124" type="line"/>
			<point x="421" y="109"/>
			<point x="369" y="77"/>
			<point x="343" y="73" type="curve"/>
			<point x="348" y="345" type="line"/>
			<point x="411" y="325"/>
			<point x="468" y="269"/>
			<point x="499" y="185" type="curve"/>
			<point x="534" y="92"/>
			<point x="540" y="2"/>
			<point x="621" y="-11" type="curve"/>
		</contour>
		<contour>
			<point x="485" y="560" type="curve"/>
			<point x="485" y="560" type="line"/>
			<point x="485" y="490"/>
			<point x="425" y="446"/>
			<point x="349" y="417" type="curve"/>
			<point x="354" y="640" type="line"/>
			<point x="361" y="641"/>
			<point x="370" y="641"/>
			<point x="378" y="641" type="curve"/>
			<point x="457" y="641"/>
			<point x="485" y="603"/>
		</contour>
		<contour>
			<point x="324" y="634" type="curve"/>
			<point x="324" y="634" type="line"/>
			<point x="320" y="407" type="line"/>
			<point x="291" y="398"/>
			<point x="261" y="390"/>
			<point x="232" y="385" type="curve"/>
			<point x="244" y="599" type="line"/>
			<point x="269" y="615"/>
			<point x="295" y="627"/>
		</contour>
		<contour>
			<point x="319" y="351" type="curve"/>
			<point x="314" y="74" type="line"/>
			<point x="284" y="80"/>
			<point x="251" y="93"/>
			<point x="216" y="102" type="curve"/>
			<point x="230" y="348" type="line"/>
			<point x="244" y="351"/>
			<point x="264" y="353"/>
			<point x="295" y="353" type="curve"/>
			<point x="303" y="353"/>
			<point x="311" y="352"/>
		</contour>
	</outline>
</glyph>
<glyph name="R.ss02" format="2">
	<advance width="739"/>
	<outline>
		<contour>
			<point x="306" y="311" type="line"/>
			<point x="366" y="224"/>
			<point x="502" y="-11"/>
			<point x="621" y="-11" type="curve" smooth="yes"/>
			<point x="664" y="-11"/>
			<point x="702" y="-4"/>
			<point x="734" y="12" type="curve"/>
			<point x="726" y="33" type="line"/>
			<point x="653" y="11"/>
			<point x="459" y="241"/>
			<point x="387" y="347" type="curve"/>
		</contour>
		<contour>
			<point x="257" y="342" type="curve" smooth="yes"/>
			<point x="210" y="342" type="line"/>
			<point x="210" y="657" type="line"/>
			<point x="376" y="665"/>
			<point x="446" y="572"/>
			<point x="444" y="486" type="curve" smooth="yes"/>
			<point x="442" y="383"/>
			<point x="378" y="342"/>
		</contour>
		<contour>
			<point x="385" y="330" type="line"/>
			<point x="461" y="356"/>
			<point x="548" y="418"/>
			<point x="550" y="509" type="curve" smooth="yes"/>
			<point x="553" y="637"/>
			<point x="470" y="700"/>
			<point x="262" y="700" type="curve" smooth="yes"/>
			<point x="196" y="700"/>
			<point x="106" y="698"/>
			<point x="42" y="702" type="curve"/>
			<point x="40" y="662" type="line"/>
			<point x="76" y="656"/>
			<point x="109" y="644"/>
			<point x="109" y="598" type="curve" smooth="yes"/>
			<point x="109" y="577"/>
			<point x="110" y="130"/>
			<point x="107" y="82" type="curve" smooth="yes"/>
			<point x="106" y="63"/>
			<point x="89" y="38"/>
			<point x="47" y="38" type="curve"/>
			<point x="50" y="-2" type="line"/>
			<point x="127" y="3"/>
			<point x="214" y="3"/>
			<point x="331" y="-2" type="curve"/>
			<point x="330" y="38" type="line"/>
			<point x="259" y="40"/>
			<point x="212" y="54"/>
			<point x="212" y="104" type="curve" smooth="yes"/>
			<point x="212" y="312" type="line"/>
			<point x="306" y="311" type="line"/>
		</contour>
	</outline>
</glyph>
<glyph name="R_stroke" format="2">
	<advance width="898"/>
	<outline>
		<contour>
			<point x="885" y="33" type="line"/>
			<point x="755" y="19"/>
			<point x="730" y="77"/>
			<point x="652" y="162" type="curve" smooth="yes"/>
			<point x="642" y="173"/>
			<point x="631" y="184"/>
			<point x="620" y="195" type="curve"/>
			<point x="694" y="286"/>
			<point x="762" y="373"/>
			<point x="835" y="450" type="curve"/>
			<point x="835" y="471" type="line"/>
			<point x="781" y="464"/>
			<point x="722" y="461"/>
			<point x="674" y="462" type="curve"/>
			<point x="674" y="432" type="line"/>
			<point x="730" y="413"/>
			<point x="725" y="412"/>
			<point x="699" y="372" type="curve" smooth="yes"/>
			<point x="666" y="322"/>
			<point x="631" y="271"/>
			<point x="593" y="220" type="curve"/>
			<point x="530" y="277"/>
			<point x="459" y="323"/>
			<point x="399" y="335" type="curve"/>
			<point x="471" y="364"/>
			<point x="548" y="424"/>
			<point x="550" y="509" type="curve" smooth="yes"/>
			<point x="553" y="637"/>
			<point x="470" y="700"/>
			<point x="262" y="700" type="curve" smooth="yes"/>
			<point x="196" y="700"/>
			<point x="106" y="698"/>
			<point x="42" y="702" type="curve"/>
			<point x="40" y="662" type="line"/>
			<point x="76" y="656"/>
			<point x="109" y="644"/>
			<point x="109" y="598" type="curve" smooth="yes"/>
			<point x="109" y="577"/>
			<point x="110" y="130"/>
			<point x="107" y="82" type="curve" smooth="yes"/>
			<point x="106" y="63"/>
			<point x="89" y="38"/>
			<point x="47" y="38" type="curve"/>
			<point x="50" y="-2" type="line"/>
			<point x="127" y="3"/>
			<point x="214" y="3"/>
			<point x="291" y="-2" type="curve"/>
			<point x="290" y="38" type="line"/>
			<point x="259" y="40"/>
			<point x="212" y="54"/>
			<point x="212" y="104" type="curve" smooth="yes"/>
			<point x="212" y="312" type="line"/>
			<point x="306" y="311" type="line" smooth="yes"/>
			<point x="412" y="310"/>
			<point x="478" y="211"/>
			<point x="535" y="144" type="curve"/>
			<point x="434" y="19"/>
			<point x="315" y="-103"/>
			<point x="171" y="-198" type="curve"/>
			<point x="177" y="-244" type="line"/>
			<point x="187" y="-245" type="line"/>
			<point x="340" y="-126"/>
			<point x="456" y="-1"/>
			<point x="556" y="119" type="curve"/>
			<point x="610" y="57"/>
			<point x="672" y="-11"/>
			<point x="780" y="-11" type="curve" smooth="yes"/>
			<point x="823" y="-11"/>
			<point x="861" y="-4"/>
			<point x="893" y="12" type="curve"/>
		</contour>
		<contour>
			<point x="257" y="342" type="curve" smooth="yes"/>
			<point x="210" y="342" type="line"/>
			<point x="210" y="657" type="line"/>
			<point x="376" y="665"/>
			<point x="446" y="572"/>
			<point x="444" y="486" type="curve" smooth="yes"/>
			<point x="442" y="383"/>
			<point x="378" y="342"/>
		</contour>
	</outline>
</glyph>
<glyph name="S.ss01" format="2">
	<advance width="696"/>
	<outline>
		<contour>
			<point x="415" y="486" type="curve" smooth="yes"/>
			<point x="386" y="490"/>
			<point x="356" y="495"/>
			<point x="328" y="500" type="curve"/>
			<point x="368" y="542"/>
			<point x="416" y="585"/>
			<point x="455" y="625" type="curve"/>
			<point x="455" y="629" type="line"/>
			<point x="387" y="652"/>
			<point x="266" y="709"/>
			<point x="245" y="718" type="curve"/>
			<point x="216" y="691"/>
			<point x="128" y="613"/>
			<point x="80" y="545" type="curve"/>
			<point x="99" y="500"/>
			<point x="136" y="471"/>
			<point x="182" y="452" type="curve"/>
			<point x="98" y="442"/>
			<point x="30" y="379"/>
			<point x="30" y="320" type="curve" smooth="yes"/>
			<point x="30" y="253"/>
			<point x="83" y="225"/>
			<point x="156" y="225" type="curve" smooth="yes"/>
			<point x="238" y="225"/>
			<point x="277" y="243"/>
			<point x="336" y="243" type="curve" smooth="yes"/>
			<point x="391" y="243"/>
			<point x="431" y="223"/>
			<point x="431" y="170" type="curve" smooth="yes"/>
			<point x="431" y="131"/>
			<point x="400" y="93"/>
			<point x="346" y="71" type="curve"/>
			<point x="317" y="74"/>
			<point x="288" y="78"/>
			<point x="254" y="78" type="curve" smooth="yes"/>
			<point x="180" y="78"/>
			<point x="87" y="40"/>
			<point x="42" y="11" type="curve"/>
			<point x="59" y="-15" type="line"/>
			<point x="113" y="16"/>
			<point x="150" y="34"/>
			<point x="197" y="34" type="curve" smooth="yes"/>
			<point x="277" y="34"/>
			<point x="384" y="-6"/>
			<point x="424" y="-15" type="curve"/>
			<point x="499" y="36"/>
			<point x="617" y="96"/>
			<point x="669" y="187" type="curve"/>
			<point x="709" y="399"/>
			<point x="581" y="461"/>
		</contour>
		<contour>
			<point x="167" y="579" type="curve" smooth="yes"/>
			<point x="167" y="599"/>
			<point x="185" y="627"/>
			<point x="224" y="627" type="curve" smooth="yes"/>
			<point x="262" y="627"/>
			<point x="332" y="606"/>
			<point x="332" y="566" type="curve" smooth="yes"/>
			<point x="332" y="551"/>
			<point x="306" y="528"/>
			<point x="285" y="510" type="curve"/>
			<point x="218" y="525"/>
			<point x="167" y="546"/>
		</contour>
		<contour>
			<point x="429" y="64" type="curve" smooth="yes"/>
			<point x="416" y="64"/>
			<point x="403" y="65"/>
			<point x="391" y="66" type="curve"/>
			<point x="446" y="108"/>
			<point x="490" y="154"/>
			<point x="490" y="213" type="curve" smooth="yes"/>
			<point x="490" y="280"/>
			<point x="439" y="320"/>
			<point x="358" y="320" type="curve" smooth="yes"/>
			<point x="300" y="320"/>
			<point x="246" y="312"/>
			<point x="200" y="312" type="curve" smooth="yes"/>
			<point x="151" y="312"/>
			<point x="115" y="328"/>
			<point x="115" y="363" type="curve" smooth="yes"/>
			<point x="115" y="406"/>
			<point x="158" y="443"/>
			<point x="262" y="428" type="curve"/>
			<point x="291" y="422"/>
			<point x="322" y="417"/>
			<point x="353" y="413" type="curve" smooth="yes"/>
			<point x="490" y="396"/>
			<point x="593" y="350"/>
			<point x="593" y="237" type="curve" smooth="yes"/>
			<point x="593" y="139"/>
			<point x="521" y="64"/>
		</contour>
	</outline>
</glyph>
<glyph name="T.ss01" format="2">
	<advance width="824"/>
	<outline>
		<contour>
			<point x="799" y="130" type="curve"/>
			<point x="775" y="156" type="line"/>
			<point x="698" y="85"/>
			<point x="630" y="50"/>
			<point x="521" y="50" type="curve"/>
			<point x="360" y="50"/>
			<point x="215" y="126"/>
			<point x="215" y="307" type="curve"/>
			<point x="215" y="488"/>
			<point x="403" y="559"/>
			<point x="570" y="559" type="curve"/>
			<point x="638" y="559"/>
			<point x="687" y="551"/>
			<point x="771" y="517" type="curve"/>
			<point x="792" y="525" type="line"/>
			<point x="784" y="567"/>
			<point x="764" y="643"/>
			<point x="759" y="701" type="curve"/>
			<point x="700" y="694" type="line"/>
			<point x="721" y="626" type="line"/>
			<point x="613" y="690"/>
			<point x="472" y="731"/>
			<point x="312" y="731" type="curve"/>
			<point x="197" y="731"/>
			<point x="90" y="700"/>
			<point x="25" y="662" type="curve"/>
			<point x="26" y="591" type="line"/>
			<point x="40" y="591" type="line"/>
			<point x="89" y="631"/>
			<point x="206" y="669"/>
			<point x="310" y="669" type="curve"/>
			<point x="408" y="669"/>
			<point x="554" y="653"/>
			<point x="649" y="586" type="curve"/>
			<point x="403" y="630"/>
			<point x="90" y="524"/>
			<point x="90" y="283" type="curve"/>
			<point x="90" y="93"/>
			<point x="265" y="-8"/>
			<point x="474" y="-8" type="curve"/>
			<point x="600" y="-8"/>
			<point x="721" y="54"/>
		</contour>
		<contour>
			<point x="516" y="389" type="line"/>
			<point x="430" y="308" type="line"/>
			<point x="521" y="225" type="line"/>
			<point x="605" y="310" type="line"/>
		</contour>
	</outline>
</glyph>
<glyph name="U.ss01" format="2">
	<advance width="796"/>
	<outline>
		<contour>
			<point x="781" y="71" type="curve"/>
			<point x="774" y="96" type="line"/>
			<point x="752" y="91"/>
			<point x="739" y="90"/>
			<point x="720" y="90" type="curve"/>
			<point x="683" y="90"/>
			<point x="661" y="204"/>
			<point x="661" y="294" type="curve"/>
			<point x="661" y="448"/>
			<point x="670" y="605"/>
			<point x="713" y="710" type="curve"/>
			<point x="693" y="725" type="line"/>
			<point x="589" y="653" type="line"/>
			<point x="583" y="259" type="line"/>
			<point x="572" y="156"/>
			<point x="507" y="69"/>
			<point x="404" y="52" type="curve"/>
			<point x="404" y="240" type="line"/>
			<point x="477" y="309" type="line"/>
			<point x="404" y="374" type="line"/>
			<point x="404" y="719" type="line"/>
			<point x="321" y="709"/>
			<point x="206" y="709"/>
			<point x="105" y="719" type="curve"/>
			<point x="57" y="612" type="line"/>
			<point x="76" y="605" type="line"/>
			<point x="135" y="625"/>
			<point x="207" y="626"/>
			<point x="273" y="626" type="curve"/>
			<point x="202" y="554"/>
			<point x="40" y="410"/>
			<point x="40" y="255" type="curve"/>
			<point x="40" y="103"/>
			<point x="138" y="-11"/>
			<point x="321" y="-11" type="curve"/>
			<point x="441" y="-11"/>
			<point x="531" y="58"/>
			<point x="581" y="140" type="curve"/>
			<point x="579" y="2" type="line" smooth="yes"/>
			<point x="579" y="-7"/>
			<point x="613" y="4"/>
			<point x="692" y="-10" type="curve"/>
			<point x="702" y="-10"/>
			<point x="751" y="36"/>
		</contour>
		<contour>
			<point x="150" y="292" type="curve"/>
			<point x="150" y="292" type="line"/>
			<point x="150" y="455"/>
			<point x="268" y="571"/>
			<point x="374" y="676" type="curve"/>
			<point x="374" y="380" type="line"/>
			<point x="301" y="307" type="line"/>
			<point x="374" y="241" type="line"/>
			<point x="374" y="49" type="line"/>
			<point x="367" y="49" type="line" smooth="yes"/>
			<point x="222" y="49"/>
			<point x="150" y="151"/>
		</contour>
	</outline>
</glyph>
<glyph name="V.ss01" format="2">
	<advance width="996"/>
	<outline>
		<contour>
			<point x="671" y="715" type="curve"/>
			<point x="671" y="715" type="line"/>
			<point x="631" y="717"/>
			<point x="567" y="708"/>
			<point x="496" y="672" type="curve"/>
			<point x="407" y="502" type="line"/>
			<point x="386" y="618"/>
			<point x="319" y="660"/>
			<point x="266" y="660" type="curve"/>
			<point x="187" y="660"/>
			<point x="161" y="615"/>
			<point x="72" y="506" type="curve"/>
			<point x="104" y="482" type="line"/>
			<point x="156" y="531"/>
			<point x="196" y="547"/>
			<point x="245" y="547" type="curve"/>
			<point x="279" y="547"/>
			<point x="345" y="531"/>
			<point x="370" y="431" type="curve"/>
			<point x="369" y="429" type="line" smooth="yes"/>
			<point x="320" y="336"/>
			<point x="128" y="89"/>
			<point x="15" y="12" type="curve"/>
			<point x="36" y="-22" type="line"/>
			<point x="127" y="18"/>
			<point x="213" y="43"/>
			<point x="360" y="43" type="curve"/>
			<point x="461" y="43"/>
			<point x="584" y="25"/>
			<point x="687" y="-22" type="curve"/>
			<point x="704" y="-22" type="line"/>
			<point x="820" y="89"/>
			<point x="966" y="200"/>
			<point x="966" y="391" type="curve"/>
			<point x="966" y="576"/>
			<point x="846" y="706"/>
		</contour>
		<contour>
			<point x="737" y="78" type="curve"/>
			<point x="737" y="78" type="line"/>
			<point x="718" y="78"/>
			<point x="585" y="151"/>
			<point x="419" y="151" type="curve"/>
			<point x="342" y="151"/>
			<point x="271" y="143"/>
			<point x="200" y="124" type="curve"/>
			<point x="278" y="195"/>
			<point x="398" y="407"/>
			<point x="500" y="564" type="curve"/>
			<point x="625" y="635"/>
			<point x="857" y="602"/>
			<point x="857" y="358" type="curve"/>
			<point x="857" y="228"/>
			<point x="801" y="143"/>
		</contour>
		<contour>
			<point x="614" y="411" type="line"/>
			<point x="530" y="332" type="line"/>
			<point x="618" y="254" type="line"/>
			<point x="699" y="334" type="line"/>
		</contour>
	</outline>
</glyph>
<glyph name="ampersand.ss01" format="2">
	<advance width="307"/>
	<outline>
		<contour>
			<point x="184" y="89" type="curve" smooth="yes"/>
			<point x="184" y="106"/>
			<point x="190" y="140"/>
			<point x="199" y="182" type="curve"/>
			<point x="226" y="181"/>
			<point x="252" y="180"/>
			<point x="275" y="180" type="curve"/>
			<point x="292" y="223" type="line"/>
			<point x="290" y="232" type="line"/>
			<point x="264" y="230"/>
			<point x="238" y="230"/>
			<point x="212" y="230" type="curve"/>
			<point x="226" y="284"/>
			<point x="247" y="346"/>
			<point x="270" y="401" type="curve"/>
			<point x="251" y="411" type="line"/>
			<point x="210" y="361"/>
			<point x="162" y="388"/>
			<point x="92" y="429" type="curve"/>
			<point x="5" y="371" type="line"/>
			<point x="18" y="349" type="line"/>
			<point x="74" y="361"/>
			<point x="130" y="334"/>
			<point x="170" y="313" type="curve"/>
			<point x="168" y="294"/>
			<point x="159" y="264"/>
			<point x="149" y="231" type="curve"/>
			<point x="120" y="232"/>
			<point x="92" y="233"/>
			<point x="63" y="233" type="curve"/>
			<point x="47" y="188" type="line"/>
			<point x="51" y="181" type="line"/>
			<point x="70" y="185"/>
			<point x="100" y="186"/>
			<point x="134" y="185" type="curve"/>
			<point x="119" y="138"/>
			<point x="105" y="91"/>
			<point x="105" y="60" type="curve" smooth="yes"/>
			<point x="105" y="10"/>
			<point x="144" y="-8"/>
			<point x="186" y="-8" type="curve" smooth="yes"/>
			<point x="220" y="-8"/>
			<point x="251" y="10"/>
			<point x="278" y="23" type="curve"/>
			<point x="280" y="45" type="line"/>
			<point x="230" y="43"/>
			<point x="184" y="52"/>
		</contour>
	</outline>
</glyph>
<glyph name="b_strok" format="2">
	<advance width="504"/>
	<outline>
		<contour>
			<point x="290" y="410" type="curve"/>
			<point x="290" y="410" type="line"/>
			<point x="271" y="410"/>
			<point x="185" y="391"/>
			<point x="144" y="381" type="curve"/>
			<point x="145" y="438" type="line"/>
			<point x="262" y="495"/>
			<point x="356" y="576"/>
			<point x="365" y="694" type="curve"/>
			<point x="203" y="704" type="line"/>
			<point x="203" y="673" type="line"/>
			<point x="268" y="655"/>
			<point x="296" y="650"/>
			<point x="286" y="611" type="curve"/>
			<point x="270" y="550"/>
			<point x="213" y="505"/>
			<point x="145" y="469" type="curve"/>
			<point x="146" y="545" type="line" smooth="yes"/>
			<point x="147" y="589"/>
			<point x="152" y="661"/>
			<point x="156" y="700" type="curve"/>
			<point x="147" y="705" type="line"/>
			<point x="99" y="696"/>
			<point x="55" y="692"/>
			<point x="15" y="684" type="curve"/>
			<point x="15" y="654" type="line"/>
			<point x="42" y="651"/>
			<point x="50" y="621"/>
			<point x="51" y="591" type="curve"/>
			<point x="59" y="425"/>
			<point x="49" y="247"/>
			<point x="49" y="81" type="curve"/>
			<point x="49" y="61"/>
			<point x="111" y="-10"/>
			<point x="240" y="-10" type="curve"/>
			<point x="268" y="-10"/>
			<point x="474" y="70"/>
			<point x="474" y="220" type="curve"/>
			<point x="474" y="331"/>
			<point x="409" y="410"/>
		</contour>
		<contour>
			<point x="279" y="53" type="curve"/>
			<point x="279" y="53" type="line"/>
			<point x="175" y="53"/>
			<point x="145" y="96"/>
			<point x="145" y="215" type="curve"/>
			<point x="145" y="314"/>
			<point x="197" y="364"/>
			<point x="259" y="364" type="curve"/>
			<point x="320" y="364"/>
			<point x="376" y="308"/>
			<point x="376" y="222" type="curve"/>
			<point x="376" y="122"/>
			<point x="309" y="53"/>
		</contour>
	</outline>
</glyph>
<glyph name="blason" format="2">
	<advance width="939"/>
	<outline>
		<contour>
			<point x="100" y="750" type="line"/>
			<point x="103" y="-280" type="line"/>
			<point x="839" y="-280" type="line"/>
			<point x="839" y="750" type="line"/>
		</contour>
		<contour>
			<point x="485" y="-248" type="curve"/>
			<point x="485" y="-248" type="line"/>
			<point x="476" y="-248"/>
			<point x="464" y="-242"/>
			<point x="464" y="-228" type="curve"/>
			<point x="464" y="-212"/>
			<point x="482" y="-202"/>
			<point x="497" y="-196" type="curve"/>
			<point x="546" y="-176"/>
			<point x="594" y="-163"/>
			<point x="643" y="-144" type="curve"/>
			<point x="662" y="-135" type="line"/>
			<point x="647" y="-125"/>
			<point x="634" y="-109"/>
			<point x="626" y="-86" type="curve"/>
			<point x="608" y="-31"/>
			<point x="592" y="14"/>
			<point x="563" y="25" type="curve"/>
			<point x="544" y="32" type="line"/>
			<point x="526" y="22"/>
			<point x="502" y="11"/>
			<point x="472" y="-3" type="curve"/>
			<point x="472" y="-8" type="line" smooth="yes"/>
			<point x="472" y="-61"/>
			<point x="528" y="-110"/>
			<point x="553" y="-125" type="curve"/>
			<point x="543" y="-140" type="line"/>
			<point x="534" y="-126"/>
			<point x="514" y="-113"/>
			<point x="495" y="-91" type="curve"/>
			<point x="483" y="-103"/>
			<point x="471" y="-118"/>
			<point x="459" y="-130" type="curve"/>
			<point x="447" y="-117"/>
			<point x="437" y="-103"/>
			<point x="425" y="-90" type="curve"/>
			<point x="398" y="-123"/>
			<point x="360" y="-149"/>
			<point x="314" y="-149" type="curve"/>
			<point x="195" y="-149"/>
			<point x="148" y="-62"/>
			<point x="148" y="19" type="curve"/>
			<point x="148" y="120"/>
			<point x="228" y="185"/>
			<point x="314" y="185" type="curve"/>
			<point x="368" y="185"/>
			<point x="370" y="173"/>
			<point x="418" y="171" type="curve"/>
			<point x="418" y="159"/>
			<point x="412" y="149"/>
			<point x="402" y="143" type="curve"/>
			<point x="391" y="163"/>
			<point x="369" y="177"/>
			<point x="317" y="178" type="curve"/>
			<point x="318" y="154" type="line"/>
			<point x="346" y="152"/>
			<point x="372" y="133"/>
			<point x="397" y="111" type="curve"/>
			<point x="356" y="98" type="line"/>
			<point x="368" y="118"/>
			<point x="347" y="146"/>
			<point x="319" y="148" type="curve"/>
			<point x="321" y="110"/>
			<point x="322" y="72"/>
			<point x="322" y="33" type="curve"/>
			<point x="353" y="14"/>
			<point x="385" y="-8"/>
			<point x="385" y="-53" type="curve"/>
			<point x="385" y="-90"/>
			<point x="352" y="-122"/>
			<point x="320" y="-125" type="curve"/>
			<point x="319" y="-142" type="line"/>
			<point x="396" y="-138"/>
			<point x="451" y="-51"/>
			<point x="451" y="-19" type="curve"/>
			<point x="451" y="37" type="line"/>
			<point x="450" y="261" type="line"/>
			<point x="406" y="236" type="line"/>
			<point x="431" y="271" type="line"/>
			<point x="389" y="285" type="line"/>
			<point x="428" y="296" type="line"/>
			<point x="402" y="346" type="line"/>
			<point x="450" y="310" type="line"/>
			<point x="449" y="393" type="line"/>
			<point x="296" y="392" type="line" smooth="yes"/>
			<point x="265" y="392"/>
			<point x="248" y="387"/>
			<point x="230" y="378" type="curve"/>
			<point x="235" y="393"/>
			<point x="238" y="411"/>
			<point x="236" y="429" type="curve"/>
			<point x="253" y="418"/>
			<point x="269" y="411"/>
			<point x="300" y="411" type="curve"/>
			<point x="449" y="411" type="line"/>
			<point x="449" y="530" type="line"/>
			<point x="381" y="530" type="line" smooth="yes"/>
			<point x="362" y="530"/>
			<point x="349" y="526"/>
			<point x="338" y="520" type="curve"/>
			<point x="342" y="531"/>
			<point x="343" y="547"/>
			<point x="337" y="561" type="curve"/>
			<point x="344" y="557"/>
			<point x="351" y="551"/>
			<point x="380" y="551" type="curve"/>
			<point x="449" y="551" type="line"/>
			<point x="448" y="676" type="line" smooth="yes"/>
			<point x="448" y="695"/>
			<point x="444" y="708"/>
			<point x="438" y="719" type="curve"/>
			<point x="449" y="715"/>
			<point x="462" y="714"/>
			<point x="476" y="720" type="curve"/>
			<point x="472" y="713"/>
			<point x="468" y="702"/>
			<point x="468" y="677" type="curve"/>
			<point x="468" y="551" type="line"/>
			<point x="536" y="551" type="line" smooth="yes"/>
			<point x="561" y="551"/>
			<point x="574" y="559"/>
			<point x="585" y="564" type="curve"/>
			<point x="575" y="547"/>
			<point x="575" y="541"/>
			<point x="585" y="526" type="curve"/>
			<point x="571" y="527"/>
			<point x="556" y="531"/>
			<point x="542" y="531" type="curve"/>
			<point x="468" y="531" type="line"/>
			<point x="469" y="412" type="line"/>
			<point x="605" y="412" type="line" smooth="yes"/>
			<point x="644" y="412"/>
			<point x="669" y="422"/>
			<point x="691" y="440" type="curve"/>
			<point x="684" y="418"/>
			<point x="684" y="402"/>
			<point x="694" y="384" type="curve"/>
			<point x="661" y="392"/>
			<point x="634" y="394"/>
			<point x="600" y="394" type="curve"/>
			<point x="469" y="393" type="line"/>
			<point x="470" y="307" type="line"/>
			<point x="511" y="335" type="line"/>
			<point x="489" y="294" type="line"/>
			<point x="532" y="289" type="line"/>
			<point x="488" y="278" type="line"/>
			<point x="511" y="236" type="line"/>
			<point x="471" y="261" type="line"/>
			<point x="471" y="160" type="line"/>
			<point x="500" y="177"/>
			<point x="542" y="195"/>
			<point x="597" y="195" type="curve"/>
			<point x="680" y="195"/>
			<point x="777" y="132"/>
			<point x="777" y="26" type="curve"/>
			<point x="777" y="-30"/>
			<point x="731" y="-93"/>
			<point x="684" y="-128" type="curve"/>
			<point x="697" y="-134"/>
			<point x="711" y="-139"/>
			<point x="724" y="-139" type="curve"/>
			<point x="754" y="-139"/>
			<point x="771" y="-134"/>
			<point x="771" y="-124" type="curve"/>
			<point x="771" y="-113"/>
			<point x="760" y="-113"/>
			<point x="757" y="-116" type="curve"/>
			<point x="757" y="-113"/>
			<point x="762" y="-101"/>
			<point x="771" y="-101" type="curve"/>
			<point x="780" y="-101"/>
			<point x="787" y="-108"/>
			<point x="787" y="-121" type="curve"/>
			<point x="787" y="-134"/>
			<point x="752" y="-152"/>
			<point x="724" y="-152" type="curve"/>
			<point x="708" y="-152"/>
			<point x="687" y="-149"/>
			<point x="668" y="-138" type="curve"/>
			<point x="661" y="-142"/>
			<point x="654" y="-145"/>
			<point x="648" y="-148" type="curve"/>
			<point x="603" y="-165"/>
			<point x="551" y="-181"/>
			<point x="503" y="-200" type="curve"/>
			<point x="480" y="-209"/>
			<point x="476" y="-216"/>
			<point x="476" y="-228" type="curve"/>
			<point x="476" y="-234"/>
			<point x="480" y="-241"/>
			<point x="485" y="-241" type="curve"/>
			<point x="493" y="-241"/>
			<point x="497" y="-236"/>
			<point x="499" y="-231" type="curve"/>
			<point x="511" y="-234"/>
			<point x="506" y="-248"/>
		</contour>
		<contour>
			<point x="678" y="-124" type="curve"/>
			<point x="678" y="-124" type="line"/>
			<point x="719" y="-93"/>
			<point x="750" y="-41"/>
			<point x="751" y="10" type="curve"/>
			<point x="753" y="129"/>
			<point x="662" y="185"/>
			<point x="586" y="185" type="curve"/>
			<point x="553" y="185"/>
			<point x="520" y="178"/>
			<point x="486" y="162" type="curve"/>
			<point x="494" y="164"/>
			<point x="501" y="165"/>
			<point x="509" y="165" type="curve"/>
			<point x="556" y="165"/>
			<point x="601" y="142"/>
			<point x="601" y="96" type="curve"/>
			<point x="601" y="72"/>
			<point x="589" y="58"/>
			<point x="558" y="40" type="curve"/>
			<point x="591" y="24"/>
			<point x="610" y="15"/>
			<point x="620" y="-8" type="curve"/>
			<point x="647" y="-90" type="line" smooth="yes"/>
			<point x="651" y="-101"/>
			<point x="663" y="-114"/>
		</contour>
		<contour>
			<point x="312" y="-142" type="curve"/>
			<point x="312" y="-142" type="line"/>
			<point x="313" y="-125" type="line"/>
			<point x="269" y="-124"/>
			<point x="265" y="-98"/>
			<point x="226" y="-78" type="curve"/>
			<point x="242" y="-78"/>
			<point x="256" y="-73"/>
			<point x="265" y="-63" type="curve"/>
			<point x="259" y="-98"/>
			<point x="288" y="-117"/>
			<point x="313" y="-119" type="curve"/>
			<point x="314" y="-81"/>
			<point x="314" y="-43"/>
			<point x="314" y="-5" type="curve"/>
			<point x="282" y="14"/>
			<point x="248" y="37"/>
			<point x="248" y="91" type="curve"/>
			<point x="248" y="129"/>
			<point x="287" y="152"/>
			<point x="310" y="154" type="curve"/>
			<point x="309" y="178" type="line"/>
			<point x="226" y="176"/>
			<point x="176" y="108"/>
			<point x="176" y="21" type="curve"/>
			<point x="176" y="-70"/>
			<point x="223" y="-141"/>
		</contour>
		<contour>
			<point x="545" y="46" type="line"/>
			<point x="551" y="43" type="line"/>
			<point x="570" y="53"/>
			<point x="581" y="64"/>
			<point x="581" y="82" type="curve"/>
			<point x="581" y="118"/>
			<point x="549" y="154"/>
			<point x="507" y="154" type="curve"/>
			<point x="493" y="154"/>
			<point x="485" y="151"/>
			<point x="472" y="147" type="curve"/>
			<point x="472" y="72" type="line"/>
		</contour>
		<contour>
			<point x="314" y="37" type="curve"/>
			<point x="314" y="37" type="line"/>
			<point x="313" y="74"/>
			<point x="312" y="111"/>
			<point x="310" y="148" type="curve"/>
			<point x="274" y="145"/>
			<point x="259" y="114"/>
			<point x="260" y="92" type="curve"/>
			<point x="261" y="67"/>
			<point x="286" y="53"/>
		</contour>
		<contour>
			<point x="472" y="59" type="line"/>
			<point x="472" y="6" type="line"/>
			<point x="497" y="18"/>
			<point x="518" y="27"/>
			<point x="536" y="35" type="curve"/>
		</contour>
		<contour>
			<point x="320" y="-119" type="curve"/>
			<point x="320" y="-119" type="line"/>
			<point x="347" y="-116"/>
			<point x="370" y="-91"/>
			<point x="370" y="-65" type="curve"/>
			<point x="370" y="-38"/>
			<point x="348" y="-24"/>
			<point x="322" y="-10" type="curve"/>
			<point x="322" y="-46"/>
			<point x="321" y="-82"/>
		</contour>
		<contour>
			<point x="459" y="-119" type="curve"/>
			<point x="459" y="-119" type="line"/>
			<point x="470" y="-109"/>
			<point x="480" y="-97"/>
			<point x="490" y="-86" type="curve"/>
			<point x="478" y="-72"/>
			<point x="467" y="-54"/>
			<point x="460" y="-29" type="curve"/>
			<point x="454" y="-47"/>
			<point x="444" y="-66"/>
			<point x="431" y="-83" type="curve"/>
			<point x="440" y="-97"/>
			<point x="450" y="-107"/>
		</contour>
		<contour>
			<point x="621" y="-221" type="line"/>
			<point x="601" y="-231" type="line"/>
			<point x="609" y="-213" type="line"/>
			<point x="596" y="-200" type="line"/>
			<point x="611" y="-201" type="line"/>
			<point x="618" y="-184" type="line"/>
			<point x="625" y="-199" type="line"/>
			<point x="641" y="-197" type="line"/>
			<point x="632" y="-212" type="line"/>
			<point x="641" y="-229" type="line"/>
		</contour>
		<contour>
			<point x="331" y="-224" type="line"/>
			<point x="310" y="-235" type="line"/>
			<point x="317" y="-216" type="line"/>
			<point x="305" y="-206" type="line"/>
			<point x="321" y="-205" type="line"/>
			<point x="334" y="-190" type="line"/>
			<point x="342" y="-204" type="line"/>
			<point x="356" y="-201" type="line"/>
			<point x="348" y="-216" type="line"/>
			<point x="357" y="-234" type="line"/>
		</contour>
	</outline>
</glyph>
<glyph name="c_ra" format="2">
	<advance width="415"/>
	<outline>
		<contour>
			<point x="155" y="522" type="curve"/>
			<point x="174" y="548"/>
			<point x="198" y="578"/>
			<point x="214" y="578" type="curve" smooth="yes"/>
			<point x="237" y="578"/>
			<point x="263" y="550"/>
			<point x="288" y="529" type="curve"/>
			<point x="327" y="542"/>
			<point x="367" y="590"/>
			<point x="379" y="633" type="curve"/>
			<point x="358" y="641" type="line"/>
			<point x="352" y="621"/>
			<point x="342" y="614"/>
			<point x="323" y="614" type="curve" smooth="yes"/>
			<point x="298" y="614"/>
			<point x="272" y="633"/>
			<point x="237" y="652" type="curve"/>
			<point x="213" y="617"/>
			<point x="191" y="597"/>
			<point x="178" y="584" type="curve"/>
			<point x="157" y="603"/>
			<point x="132" y="633"/>
			<point x="111" y="663" type="curve"/>
			<point x="33" y="565" type="line"/>
			<point x="55" y="552" type="line"/>
			<point x="66" y="568"/>
			<point x="74" y="572"/>
			<point x="79" y="572" type="curve" smooth="yes"/>
			<point x="99" y="572"/>
			<point x="124" y="551"/>
		</contour>
		<contour>
			<point x="223" y="-9" type="curve" smooth="yes"/>
			<point x="294" y="-9"/>
			<point x="345" y="14"/>
			<point x="384" y="33" type="curve"/>
			<point x="373" y="61" type="line"/>
			<point x="350" y="54"/>
			<point x="313" y="45"/>
			<point x="281" y="45" type="curve" smooth="yes"/>
			<point x="201" y="45"/>
			<point x="132" y="106"/>
			<point x="132" y="209" type="curve" smooth="yes"/>
			<point x="132" y="305"/>
			<point x="184" y="358"/>
			<point x="207" y="358" type="curve" smooth="yes"/>
			<point x="267" y="358"/>
			<point x="308" y="293"/>
			<point x="315" y="293" type="curve"/>
			<point x="347" y="314"/>
			<point x="372" y="337"/>
			<point x="405" y="358" type="curve"/>
			<point x="398" y="387" type="line"/>
			<point x="336" y="384"/>
			<point x="312" y="410"/>
			<point x="234" y="410" type="curve" smooth="yes"/>
			<point x="104" y="410"/>
			<point x="30" y="329"/>
			<point x="30" y="199" type="curve" smooth="yes"/>
			<point x="30" y="69"/>
			<point x="103" y="-9"/>
		</contour>
	</outline>
</glyph>
